<?xml version="1.0" encoding="UTF-8" standalone="no"?><!DOCTYPE svg PUBLIC "-//W3C//DTD SVG 1.1//EN" "http://www.w3.org/Graphics/SVG/1.1/DTD/svg11.dtd"><svg width="4000px" height="2500px" version="1.1" xmlns="http://www.w3.org/2000/svg" xmlns:xlink="http://www.w3.org/1999/xlink" xml:space="preserve" xmlns:serif="http://www.serif.com/" style="fill-rule:evenodd;clip-rule:evenodd;stroke-linejoin:round;stroke-miterlimit:2;"><g id="c99"></g><g transform="matrix(2.2689,0,0,2.2689,-4524.95,-2979.42)"><g id="c59"><g transform="matrix(0.441052,0,0,0.441052,1980.36,1318.99)"><rect x="111.817" y="218.725" width="3805.79" height="2107.56" style="fill:rgb(174,211,240);"/></g><path d="M3708.23,2345.01L2692.5,2345.01C2763.29,2249.77 2861.11,2187.8 2979.52,2170.84C3041.51,2161.96 3106.51,2159.55 3168.84,2166.74C3312.02,2183.27 3566.77,2254.62 3696.16,2169.2C3700.32,2166.46 3704.34,2163.55 3708.23,2160.49L3708.23,2345.01ZM3708.23,1635.19C3686.46,1612.9 3662.26,1593.34 3636.23,1577.4C3575.84,1540.42 3502.58,1524.72 3433.66,1512.77C3095.33,1454.09 2758.68,1631.12 2422.82,1557.45C2330.64,1537.23 2216.77,1490.22 2142.28,1415.46L3708.23,1415.46L3708.23,1635.19Z" style="fill:rgb(195,220,243);"/><g transform="matrix(0.441052,0,0,0.441052,1980.36,1318.99)"><rect x="111.817" y="218.725" width="3805.79" height="2107.56" style="fill:none;"/><clipPath id="_clip1"><rect x="111.817" y="218.725" width="3805.79" height="2107.56"/></clipPath><g clip-path="url(#_clip1)"><g transform="matrix(0.999297,0,0,0.999297,-1.66913,0.144597)"><path d="M1822.18,560.93C1822.18,560.93 2049.41,590.808 2168.73,606.497C2210.93,612.046 2244.37,644.863 2250.7,686.959C2300.08,1015.01 2503.53,2366.67 2503.53,2366.67L1968.43,2407.63L1822.18,560.93Z" style="fill:url(#_Linear2);"/></g><g transform="matrix(2.26731,0,0,2.26731,-4490.09,-2990.56)"><path d="M2018.97,1488.17C2018.97,1488.17 2682.67,1530.99 2872.57,1543.25C2901.41,1545.11 2924.52,1567.83 2926.87,1596.63C2941.65,1777.72 2991.42,2387.31 2991.42,2387.31L2038.82,2394.12L2018.97,1488.17Z" style="fill:rgb(96,162,224);"/><path d="M2019.38,1506.86L2852.09,1560.59C2880.93,1562.45 2904.04,1585.17 2906.39,1613.97L2969.53,2387.46L2038.82,2394.12L2019.38,1506.86Z" style="fill:rgb(219,234,248);"/><path d="M2019.59,1516.5L2019.38,1506.86L2852.09,1560.59C2880.93,1562.45 2904.04,1585.17 2906.39,1613.97L2969.53,2387.46L2955.78,2387.56L2893.34,1622.76C2890.99,1593.96 2867.88,1571.24 2839.05,1569.38L2019.59,1516.5Z" style="fill:rgb(173,207,239);"/><g><path d="M2432.64,1580.87C2389.12,1585.78 2338.47,1630.62 2330.91,1674.24C2322.3,1723.95 2373.45,1755.37 2418.36,1745.98C2473.89,1734.37 2512.18,1689.69 2509.01,1632.64C2507.38,1603.22 2476.18,1586.82 2450.9,1581.18C2445.97,1580.08 2440.43,1578.02 2435.76,1580.57" style="fill:rgb(236,97,152);"/><path d="M2324.2,1811.66C2251.16,1804.52 2155.43,1945.44 2248.05,1984.96C2309.84,2011.33 2396.7,1958.32 2391.55,1888.31C2388.92,1852.47 2350.74,1800.81 2309.34,1816.64" style="fill:rgb(68,174,158);"/><path d="M2572.11,1800.64C2554.52,1799.5 2533.19,1818.17 2521.46,1829.21C2506.48,1843.31 2490.57,1863.69 2487.35,1884.72C2479.99,1932.77 2526.71,1962.02 2569.81,1959.09C2617.25,1955.87 2660.5,1916.32 2655.57,1867.13C2652.12,1832.65 2623.55,1810.9 2592,1803.79C2585.56,1802.34 2578.39,1799.02 2571.82,1801.19" style="fill:rgb(68,174,158);"/><path d="M2502.12,2128.8C2436.17,2148.75 2376.97,2268.47 2478.52,2282.03C2489.59,2283.5 2501.18,2282.86 2512.12,2280.74C2569.4,2269.64 2601.5,2190.2 2558.88,2145.9C2540.19,2126.47 2514.77,2128.8 2489.89,2128.8" style="fill:rgb(247,218,97);"/><path d="M2748.57,2052.08C2694.95,2054.24 2636.14,2176.42 2728.96,2189.86C2774.14,2196.4 2841.11,2144.55 2819.32,2097.29C2807.07,2070.74 2776.49,2061.05 2750.58,2053.75" style="fill:rgb(247,218,97);"/><path d="M2468.32,2145.99C2454.21,2151.73 2440.9,2159.45 2429.55,2166.88C2428.05,2167.86 2427.63,2169.88 2428.61,2171.38C2429.6,2172.88 2431.61,2173.3 2433.11,2172.32C2437.43,2169.5 2442.03,2166.61 2446.86,2163.81C2430.76,2179.39 2418.22,2198 2412.71,2221.02C2409.08,2236.18 2410.83,2248.28 2416.11,2257.74C2421.4,2267.22 2430.28,2274.11 2441.25,2278.69C2472.9,2291.92 2522.12,2285.72 2546.9,2270.55C2577.68,2251.69 2590.46,2224.74 2587.23,2199.8C2584.01,2174.88 2564.75,2151.67 2530.63,2140.32C2517.73,2136.03 2504.11,2136.18 2490.67,2139.01C2493.08,2137.54 2495.51,2136.1 2497.94,2134.7C2499.5,2133.8 2500.03,2131.81 2499.13,2130.25C2498.23,2128.7 2496.24,2128.17 2494.69,2129.07C2485.68,2134.28 2476.78,2139.88 2468.32,2145.99ZM2471.84,2151.44C2447.14,2169.29 2426.41,2191.7 2419.03,2222.53C2415.87,2235.75 2417.18,2246.32 2421.79,2254.58C2428.77,2267.1 2443.1,2274.18 2459.74,2277.41C2488.38,2282.96 2523.98,2276.96 2543.51,2265C2571.62,2247.78 2583.74,2223.41 2580.79,2200.63C2577.83,2177.81 2559.84,2156.88 2528.58,2146.49C2510.2,2140.38 2490.35,2144.02 2471.84,2151.44ZM2704.99,2055.22C2692.16,2060.14 2680.39,2067.62 2668.53,2075.43C2667.03,2076.41 2666.62,2078.43 2667.6,2079.93C2668.59,2081.43 2670.61,2081.84 2672.1,2080.86C2689.63,2069.33 2706.85,2058.34 2728.05,2056.23C2704.97,2065.19 2684.16,2080.74 2671.84,2102.21C2657.3,2127.52 2659.28,2153.74 2671.89,2172.77C2684.51,2191.8 2707.85,2203.75 2736.35,2200.34C2757.31,2197.83 2776.12,2187.31 2792.35,2174.37C2818.9,2153.2 2825.37,2127.95 2819.17,2105.75C2812.76,2082.77 2792.48,2062.9 2766.16,2054.12C2767.29,2054.03 2768.43,2053.97 2769.56,2053.91C2771.35,2053.83 2772.74,2052.31 2772.65,2050.52C2772.57,2048.72 2771.05,2047.34 2769.26,2047.42C2762.43,2047.74 2755.5,2048.64 2748.61,2050.1C2742.27,2049.28 2735.71,2049.09 2729.03,2049.61C2721.27,2050.23 2714.02,2051.95 2707.08,2054.44C2707.33,2054.23 2707.54,2053.98 2707.72,2053.7C2708.68,2052.18 2708.22,2050.17 2706.7,2049.21C2698.64,2044.15 2691.92,2036.37 2685.18,2029.78C2666.67,2011.66 2649,1992.58 2628.79,1976.26C2620.66,1969.68 2612.67,1964.19 2602.94,1960.46C2601.78,1960.01 2599.06,1958.3 2596.89,1957.81C2594.91,1957.36 2593.18,1957.73 2591.96,1958.72C2588.33,1961.66 2585.39,1966.22 2582.91,1971.3C2579.54,1978.23 2577.01,1986.16 2574.3,1991.54C2562.64,2014.71 2551.82,2038.47 2542.24,2062.59C2538.01,2073.22 2533.56,2083.53 2529.98,2094.41C2529.8,2094.93 2527.84,2100.91 2526.19,2105.02C2525.83,2105.92 2525.34,2106.97 2525.06,2107.53C2524.98,2107.6 2524.9,2107.66 2524.82,2107.73C2523.5,2108.95 2523.41,2111 2524.62,2112.32C2525.3,2113.07 2526.1,2113.38 2526.95,2113.42C2527.68,2113.45 2528.84,2113.3 2529.87,2112.08C2530.41,2111.44 2531.33,2109.68 2532.23,2107.44C2533.93,2103.18 2535.97,2096.99 2536.15,2096.45C2539.69,2085.69 2544.1,2075.5 2548.28,2064.99C2557.78,2041.05 2568.54,2017.46 2580.11,1994.47C2582.39,1989.92 2584.56,1983.6 2587.19,1977.56C2589.46,1972.34 2592.03,1967.31 2595.54,1964.2C2595.86,1964.29 2596.35,1964.44 2596.68,1964.58C2598.26,1965.27 2599.81,1966.22 2600.61,1966.53C2609.7,1970.01 2617.12,1975.18 2624.71,1981.31C2644.75,1997.5 2662.27,2016.46 2680.64,2034.42C2687.69,2041.33 2694.8,2049.41 2703.24,2054.72C2703.78,2055.06 2704.39,2055.22 2704.99,2055.22ZM2748.86,2056.68C2720.15,2063.02 2692.29,2079.64 2677.47,2105.45C2664.35,2128.31 2665.91,2151.99 2677.31,2169.17C2688.7,2186.36 2709.85,2196.96 2735.57,2193.88C2755.33,2191.52 2773,2181.49 2788.29,2169.29C2812.26,2150.17 2818.51,2127.54 2812.91,2107.49C2805.83,2082.13 2780.26,2061.12 2748.86,2056.68ZM2528.53,2107.25C2528.69,2107.33 2528.84,2107.43 2528.99,2107.55C2529.14,2107.66 2529.28,2107.79 2529.41,2107.93C2529.14,2107.63 2528.84,2107.41 2528.53,2107.25ZM2286.83,1819.7C2278.73,1819.85 2271.14,1823.5 2264.25,1828.83C2254.58,1836.31 2246.28,1847.12 2239.8,1855C2226.12,1871.62 2212.3,1892.26 2204.9,1912.67C2198,1931.72 2196.73,1950.59 2205.69,1966.1C2211.66,1976.45 2222.21,1985.39 2238.95,1991.82C2247.24,1995 2256.34,1996.16 2265.17,1996.26C2313.99,1996.77 2371.47,1957.97 2393.21,1915.62C2409.8,1883.3 2408.36,1857.34 2394.66,1840.57C2381.05,1823.9 2354.9,1815.98 2320.84,1820.28C2302.18,1822.64 2284.41,1828.13 2267.15,1835.47C2265.5,1836.17 2264.73,1838.08 2265.44,1839.73C2266.14,1841.38 2268.05,1842.15 2269.7,1841.45C2286.4,1834.35 2303.59,1829.01 2321.66,1826.73C2352.93,1822.78 2377.13,1829.37 2389.62,1844.68C2402.03,1859.88 2402.46,1883.37 2387.42,1912.65C2366.67,1953.09 2311.85,1990.25 2265.24,1989.76C2257.17,1989.67 2248.85,1988.65 2241.28,1985.75C2226.26,1979.99 2216.68,1972.13 2211.32,1962.85C2203.28,1948.92 2204.82,1931.98 2211.01,1914.89C2218.16,1895.14 2231.59,1875.21 2244.82,1859.13C2251.04,1851.57 2258.95,1841.15 2268.22,1833.97C2273.96,1829.53 2280.21,1826.33 2286.95,1826.2C2288.74,1826.17 2290.17,1824.69 2290.14,1822.89C2290.11,1821.1 2288.62,1819.67 2286.83,1819.7ZM2552.55,1811.26C2517.72,1819.51 2492.32,1854.96 2486.85,1889.51C2483.48,1910.82 2487.68,1931.72 2501.47,1945.82C2510.67,1955.24 2524.17,1961.7 2542.73,1963.13C2553.39,1963.94 2565.36,1963.12 2575.72,1960.45C2604,1953.17 2641.63,1930.89 2651.65,1902.01C2661.11,1874.75 2656.47,1852.54 2643.89,1836.56C2625.21,1812.84 2588.58,1802.81 2553.39,1810.94C2553.09,1811.01 2552.8,1811.12 2552.55,1811.26ZM2556.11,1816.99C2555.84,1817.14 2555.54,1817.25 2555.23,1817.32C2522.25,1824.43 2498.41,1858.03 2493.27,1890.53C2490.24,1909.71 2493.71,1928.59 2506.12,1941.28C2514.38,1949.73 2526.57,1955.37 2543.23,1956.65C2553.2,1957.41 2564.41,1956.65 2574.1,1954.16C2600.57,1947.34 2636.13,1926.91 2645.51,1899.88C2654.08,1875.19 2650.17,1855.05 2638.78,1840.58C2621.71,1818.9 2588.31,1809.98 2556.11,1816.99ZM2535.07,1806.26C2534.41,1805.2 2531.6,1800.62 2531.48,1800.41C2527.16,1792.81 2522.09,1785.73 2517.34,1778.4C2506.6,1761.81 2493.13,1746.89 2482.92,1730.1C2481.99,1728.57 2479.99,1728.08 2478.45,1729.01C2476.92,1729.94 2476.43,1731.94 2477.36,1733.48C2487.6,1750.32 2501.11,1765.3 2511.88,1781.93C2516.56,1789.16 2521.57,1796.13 2525.83,1803.62C2525.95,1803.83 2527.61,1806.91 2529.03,1809.03C2529.92,1810.37 2530.84,1811.37 2531.4,1811.75C2532.97,1812.81 2534.34,1812.46 2535.27,1811.88C2536.79,1810.93 2537.25,1808.92 2536.3,1807.4C2535.98,1806.9 2535.55,1806.51 2535.07,1806.26ZM2337.69,1809.63C2348.51,1791.89 2359.01,1774.48 2371.6,1757.98C2372.68,1756.55 2372.41,1754.51 2370.98,1753.42C2369.56,1752.33 2367.51,1752.61 2366.43,1754.03C2353.7,1770.71 2343.08,1788.31 2332.14,1806.25C2331.21,1807.78 2331.7,1809.78 2333.23,1810.72C2334.76,1811.65 2336.76,1811.16 2337.69,1809.63ZM2532.03,1806.25L2532.01,1806.27L2532.07,1806.23L2532.03,1806.25ZM2532.39,1806.09L2532.23,1806.15C2532.28,1806.13 2532.34,1806.11 2532.39,1806.09ZM2532.49,1806.05L2532.46,1806.06L2532.5,1806.05L2532.49,1806.05ZM2399.34,1588.52C2363.05,1599.32 2334.57,1636.02 2324.17,1671.36C2318.6,1690.27 2320.46,1706.26 2328.48,1717.91C2336.5,1729.56 2350.79,1737.05 2370.66,1738.55C2382.29,1739.44 2394.11,1737.85 2405.43,1735.26C2441.2,1727.07 2484.44,1706.22 2503.52,1673.32C2521.34,1642.61 2510.85,1605.5 2477.35,1592.32C2454.11,1583.17 2428.97,1586.53 2405.56,1592.93C2403.83,1593.4 2402.81,1595.19 2403.28,1596.92C2403.76,1598.65 2405.55,1599.67 2407.28,1599.2C2429.35,1593.16 2453.06,1589.74 2474.97,1598.37C2504.59,1610.03 2513.66,1642.9 2497.9,1670.06C2479.67,1701.49 2438.16,1721.1 2403.99,1728.92C2393.29,1731.37 2382.13,1732.9 2371.15,1732.07C2353.65,1730.74 2340.9,1724.49 2333.83,1714.23C2326.77,1703.96 2325.5,1689.85 2330.4,1673.19C2340.22,1639.81 2366.91,1604.95 2401.19,1594.75C2402.91,1594.24 2403.89,1592.43 2403.38,1590.71C2402.87,1588.99 2401.06,1588.01 2399.34,1588.52Z" style="fill:rgb(38,62,106);"/><path d="M2408.81,1623.43C2409.02,1622.94 2409.17,1622.42 2409.22,1621.86C2409.72,1616.85 2405.24,1616.06 2404.84,1616C2404.01,1615.88 2400.8,1615.55 2399.28,1619.14C2399.14,1619.49 2398.52,1622.09 2398.23,1623.08C2397.44,1625.73 2396.72,1628.4 2395.86,1631.03C2393.5,1638.19 2390.98,1645.32 2388.6,1652.48C2382.14,1671.9 2371.46,1692.47 2369.19,1713.02C2368.87,1715.85 2370.92,1718.41 2373.76,1718.73C2376.6,1719.04 2379.16,1716.99 2379.47,1714.15C2381.67,1694.31 2392.18,1674.51 2398.42,1655.75C2400.81,1648.58 2403.32,1641.44 2405.68,1634.27C2406.58,1631.55 2407.33,1628.78 2408.15,1626.03C2408.3,1625.52 2408.62,1624.23 2408.81,1623.43ZM2398.91,1621.72L2398.91,1621.76L2398.91,1621.67L2398.91,1621.72ZM2398.9,1621.52L2398.9,1621.59L2398.9,1621.36L2398.9,1621.52ZM2398.9,1621.3L2398.9,1621.35L2398.9,1621.09L2398.9,1621.3ZM2398.9,1621.09L2398.92,1620.83C2398.91,1620.92 2398.91,1621.01 2398.9,1621.09Z" style="fill:white;"/><path d="M2439.62,1652.46C2436.14,1652.6 2432.18,1654.31 2428.39,1657.36C2423.7,1661.14 2419.13,1667.01 2416.06,1673.2C2413.35,1678.66 2411.84,1684.37 2412.09,1689.16C2412.41,1695.28 2415.26,1700.18 2421.41,1702.62C2432.31,1706.94 2446.77,1700.56 2455.53,1690.2C2464.8,1679.23 2467.35,1664.77 2455.83,1655.44C2453.61,1653.64 2450.35,1653.98 2448.55,1656.2C2446.76,1658.42 2447.1,1661.68 2449.32,1663.48C2455.98,1668.88 2452.99,1677.17 2447.63,1683.52C2443.9,1687.92 2438.82,1691.54 2433.66,1693.03C2430.75,1693.87 2427.83,1694.03 2425.23,1693C2423.38,1692.26 2422.6,1690.74 2422.45,1688.93C2422.28,1687 2422.67,1684.83 2423.38,1682.59C2425.2,1676.79 2429.18,1670.66 2433.51,1666.62C2435.75,1664.53 2437.95,1662.88 2440.03,1662.8C2442.89,1662.68 2445.11,1660.27 2445,1657.42C2444.88,1654.57 2442.47,1652.34 2439.62,1652.46Z" style="fill:white;"/><path d="M2451.82,1656C2453.22,1655.7 2454.48,1654.83 2455.24,1653.49C2457.35,1649.78 2459.17,1645.76 2460.68,1641.78C2464.38,1632.03 2462.89,1625.98 2460.07,1622.67C2457.98,1620.22 2454.94,1618.8 2451.27,1618.52C2447.24,1618.22 2442.28,1619.39 2437.68,1621.64C2432.69,1624.08 2428.15,1627.74 2425.56,1631.65C2423.3,1635.06 2422.43,1638.7 2423.15,1642.16C2423.59,1644.3 2425.55,1647.24 2428.69,1650.03C2433.63,1654.44 2441.57,1659.26 2443.5,1660.78C2445.74,1662.55 2449,1662.16 2450.77,1659.91C2451.67,1658.76 2452.01,1657.35 2451.82,1656ZM2445.7,1649.77C2445.81,1649.3 2445.99,1648.83 2446.24,1648.39C2448.08,1645.13 2449.67,1641.6 2451,1638.11C2452.06,1635.31 2452.59,1633.05 2452.59,1631.25C2452.58,1630.44 2452.54,1629.8 2452.18,1629.38C2451.6,1628.69 2450.55,1628.78 2449.46,1628.84C2447.2,1628.95 2444.64,1629.76 2442.22,1630.94C2439.44,1632.3 2436.81,1634.16 2435.02,1636.27C2434.03,1637.44 2433.13,1638.59 2433.24,1639.81C2433.6,1640.2 2435.76,1642.54 2437.58,1643.98C2440.22,1646.07 2443.26,1648.13 2445.7,1649.77Z" style="fill:white;"/><path d="M2292.52,1946.38C2304.03,1930.72 2313.87,1912.86 2319.81,1896.45C2321.38,1892.13 2326.64,1875.92 2324.32,1866.54C2322.85,1860.55 2319.12,1856.51 2311.93,1856.4C2305.27,1856.29 2298.95,1858.97 2293.46,1863.27C2285.96,1869.13 2280.02,1878.03 2276.87,1885.6C2275.29,1889.39 2274.43,1894.49 2275.2,1898.66C2275.7,1901.39 2276.87,1903.77 2278.67,1905.53C2280.57,1907.38 2283.18,1908.67 2286.81,1908.75C2289.66,1908.82 2292.03,1906.55 2292.1,1903.69C2292.16,1900.84 2289.9,1898.47 2287.05,1898.4C2285.96,1898.38 2285.53,1897.63 2285.38,1896.78C2284.95,1894.47 2285.55,1891.67 2286.43,1889.57C2288.98,1883.43 2293.75,1876.18 2299.84,1871.42C2303.41,1868.63 2307.43,1866.68 2311.76,1866.75C2314.4,1866.79 2314.55,1869.31 2314.62,1871.87C2314.83,1879.63 2311.19,1889.86 2310.08,1892.93C2301.28,1917.22 2283.47,1944.88 2264.7,1962.66C2261.16,1966.02 2263.89,1969.41 2264.19,1969.78C2264.8,1970.52 2266.82,1972.7 2270.22,1971.26C2270.44,1971.17 2271.83,1970.29 2272.36,1969.94C2275.36,1967.98 2275.18,1968.14 2278.25,1966.28C2284.51,1962.49 2290.95,1959.23 2297.28,1955.59C2313.86,1946.05 2332.21,1933.34 2351.41,1930.23C2354.23,1929.78 2356.15,1927.12 2355.7,1924.3C2355.24,1921.48 2352.58,1919.56 2349.76,1920.02C2329.52,1923.29 2310.03,1936.29 2292.52,1946.38Z" style="fill:white;"/><path d="M2581.06,1878.18C2580.06,1880.54 2579.06,1882.9 2578.08,1885.27C2575.9,1890.55 2573.77,1895.85 2571.56,1901.12C2567.32,1911.25 2563.16,1921.34 2558.59,1931.3C2557.39,1933.9 2558.53,1936.97 2561.13,1938.16C2563.72,1939.36 2566.8,1938.22 2567.99,1935.62C2572.62,1925.55 2576.82,1915.36 2581.11,1905.12C2583.32,1899.84 2585.45,1894.52 2587.64,1889.23C2589.77,1884.11 2591.95,1879.01 2594.16,1873.93C2595.8,1870.19 2597.58,1866.51 2599.26,1862.79C2601.22,1858.44 2603.55,1854.12 2604.5,1849.41C2605.06,1846.65 2603.63,1845.27 2603.24,1844.84C2601.83,1843.31 2600.01,1842.61 2597.61,1843.5C2597.35,1843.6 2596.7,1843.82 2595.99,1844.45C2596.41,1843.71 2596.65,1842.86 2596.65,1841.95C2596.67,1839.1 2594.36,1836.76 2591.51,1836.75C2573.87,1836.65 2558.1,1845.81 2547.64,1860.05C2545.63,1862.79 2541.45,1868.52 2539.8,1873.83C2538.13,1879.16 2538.84,1884.13 2542.83,1887.5C2547.58,1891.51 2553.75,1892.09 2560.41,1890.11C2567.31,1888.07 2574.85,1883.08 2581.06,1878.18ZM2594.94,1845.77C2594.01,1846.6 2592.79,1847.11 2591.45,1847.1C2577.15,1847.02 2564.46,1854.63 2555.98,1866.18C2554.63,1868.02 2551.98,1871.5 2550.37,1875.1C2549.88,1876.2 2549.48,1877.31 2549.34,1878.36C2549.29,1878.82 2549.14,1879.29 2549.5,1879.59C2550.76,1880.65 2552.3,1880.94 2553.96,1880.85C2556.38,1880.71 2558.99,1879.81 2561.63,1878.56C2570.98,1874.15 2580.54,1865.3 2584.71,1861.23C2587.3,1858.69 2589.66,1855.68 2591.56,1852.58C2592.72,1850.68 2594.53,1846.52 2594.94,1845.77Z" style="fill:white;"/><path d="M2509.38,2172.31C2509.32,2172.57 2509.24,2172.83 2509.16,2173.05C2508.49,2174.78 2507.35,2176.73 2506,2178.74C2501.39,2185.59 2494.43,2192.99 2492.07,2195.49C2489.47,2198.24 2489.77,2198.11 2487.08,2200.84C2486.82,2201.01 2484.64,2202.47 2483.93,2203.15C2482.92,2204.1 2482.4,2205.13 2482.15,2205.97C2481.82,2207.12 2481.86,2208.23 2482.21,2209.27C2482.58,2210.38 2483.29,2211.6 2484.95,2212.49C2486.34,2213.24 2488.41,2213.64 2490.81,2213.41C2493.6,2213.15 2497.18,2211.98 2498.84,2211.79C2503.09,2211.32 2511.24,2210.52 2517.91,2211.84C2520.91,2212.43 2523.75,2213.18 2524.79,2215.48C2525.59,2217.25 2524.81,2219.06 2523.88,2220.76C2522.37,2223.5 2520.06,2225.96 2518.25,2227.81C2514.29,2231.88 2502.89,2239.58 2492.26,2244.43C2488.2,2246.27 2484.27,2247.71 2480.92,2248.27C2479.4,2248.52 2478.06,2248.64 2477,2248.29C2474.28,2247.4 2471.36,2248.88 2470.47,2251.6C2469.58,2254.31 2471.06,2257.24 2473.77,2258.12C2477.8,2259.45 2483.89,2258.72 2490.62,2256.28C2503.97,2251.44 2520.46,2240.37 2525.66,2235.04C2528.56,2232.07 2532.29,2227.8 2534.13,2223.26C2535.73,2219.32 2536.02,2215.18 2534.22,2211.2C2531.91,2206.13 2526.55,2203 2519.91,2201.69C2513.59,2200.44 2506.14,2200.74 2500.91,2201.19C2504.81,2196.99 2512.91,2187.96 2516.97,2180.66C2519.86,2175.46 2520.48,2170.68 2519.18,2167.74C2517.52,2164.01 2514.32,2162.23 2510.43,2161.94C2506.68,2161.66 2502.14,2163.07 2499.49,2164.33C2493.63,2167.08 2485.29,2173.41 2479.83,2180.66C2475.68,2186.16 2473.27,2192.22 2473.81,2197.72C2474.09,2200.56 2476.62,2202.65 2479.46,2202.37C2482.3,2202.09 2484.39,2199.55 2484.11,2196.71C2483.79,2193.49 2485.66,2190.11 2488.09,2186.89C2492.49,2181.05 2499.17,2175.91 2503.89,2173.69C2504.92,2173.21 2506.41,2172.65 2507.95,2172.38C2508.35,2172.31 2508.93,2172.3 2509.38,2172.31Z" style="fill:white;"/><path d="M2766.58,2082.63C2766.61,2083.14 2766.42,2083.71 2766.23,2084.31C2765.65,2086.08 2764.53,2087.95 2763.18,2089.84C2758.31,2096.66 2750.52,2103.46 2747.57,2106.42C2744.63,2109.38 2739.24,2115.27 2738.58,2116.74C2737.1,2120.03 2738.79,2122.14 2739.97,2123.12C2741.59,2124.47 2743.88,2125.26 2746.8,2125.25C2749.29,2125.23 2752.49,2124.6 2756.02,2123.84C2759.57,2123.08 2763.54,2122.2 2767.34,2122.24C2770.22,2122.27 2773.02,2122.82 2775.2,2124.91C2777.57,2127.17 2777.41,2129.84 2776.38,2132.34C2774.83,2136.13 2771.64,2139.66 2768.96,2142.24C2755.98,2154.81 2740.1,2160.24 2722.55,2159.78C2719.69,2159.7 2717.31,2161.96 2717.24,2164.82C2717.16,2167.67 2719.42,2170.05 2722.27,2170.12C2742.67,2170.66 2761.08,2164.27 2776.16,2149.68C2779.75,2146.21 2783.87,2141.36 2785.96,2136.27C2788.58,2129.89 2788.39,2123.19 2782.35,2117.42C2775.8,2111.17 2766.54,2111.27 2758.02,2112.87C2757.06,2113.05 2756.12,2113.24 2755.2,2113.44C2759.19,2109.49 2769.58,2100.16 2774.16,2091.81C2777.01,2086.63 2777.67,2081.61 2775.81,2077.67C2774.17,2074.19 2771.16,2072.48 2767.32,2072.24C2762.25,2071.92 2755.07,2075.08 2752.18,2076.33C2745.37,2079.3 2734.42,2085.86 2726.54,2093.63C2720.6,2099.48 2716.5,2106.11 2716.05,2112.38C2715.85,2115.23 2717.99,2117.71 2720.84,2117.91C2723.69,2118.11 2726.17,2115.97 2726.37,2113.12C2726.67,2108.97 2729.87,2104.87 2733.8,2101C2740.72,2094.18 2750.33,2088.43 2756.31,2085.82C2757.88,2085.14 2761.08,2083.59 2764.19,2082.87C2764.91,2082.7 2765.98,2082.65 2766.58,2082.63Z" style="fill:white;"/></g><path d="M2711.58,1551.52L2852.09,1560.59C2880.93,1562.45 2904.04,1585.17 2906.39,1613.97L2912.84,1692.95C2628.62,1898.95 2359.44,2124.49 2107.24,2368.59C2098.5,2377.05 2089.69,2385.46 2080.85,2393.82L2038.82,2394.12L2033.35,2144.49C2075,2105.04 2110.77,2070.81 2116.95,2064.99C2197.76,1988.85 2284.08,1918.1 2367.63,1845.01C2481.31,1745.56 2593.71,1645.51 2711.58,1551.52ZM2220.13,1519.81L2397.48,1531.26C2267.94,1637.54 2144.5,1752.22 2027.36,1871.21L2023.33,1687.25L2027.85,1683.25C2090.83,1627.48 2154.76,1572.75 2220.13,1519.81Z" style="fill:url(#_Linear3);"/><path d="M2954.62,2387.57L2991.42,2387.31L2970.88,2135.67C2966.26,2131.66 2961.45,2127.88 2956,2124.96C2925.88,2108.84 2909.99,2117.5 2881.82,2111.53C2872.19,2109.48 2865.59,2097.53 2855.54,2094.26L2820.06,2084.5C2801.84,2080.02 2833.81,2118.43 2836.42,2122.38C2851.21,2144.78 2858.39,2175.63 2862.35,2202.22C2866.08,2227.19 2867.44,2252.05 2876.49,2275.89C2887.51,2304.94 2909.11,2327.02 2929.01,2349.88C2935.86,2357.74 2939.35,2367.62 2945.52,2375.91C2948.47,2379.88 2951.51,2383.75 2954.62,2387.57Z" style="fill-opacity:0.16;"/><g transform="matrix(-5.6486,0.845599,0.845599,5.6486,4111.24,904.552)"><g transform="matrix(1,0,0,1,166.05,246.337)"><path d="M0,-75.172C0,-75.172 11.971,-30.353 3.305,-0.77C6.877,0 8.846,-0.77 8.846,-0.77C8.846,-0.77 13.97,-57.545 0,-75.172" style="fill:rgb(52,133,121);fill-rule:nonzero;"/></g><g transform="matrix(1,0,0,1,188.105,250.817)"><path d="M0,-56.5C0,-56.5 -11,-23 -10.75,-6.25C-13,0 -16.538,-6.25 -16.538,-6.25C-16.538,-6.25 -13.208,-40 0,-56.5" style="fill:rgb(52,133,121);fill-rule:nonzero;"/></g><g transform="matrix(1,0,0,1,188.105,253.603)"><path d="M0,-46.786C0,-46.786 -6.727,-18.886 -5.672,-5.215C-7.079,0 -10.12,-4.934 -10.12,-4.934C-10.12,-4.934 -9.301,-32.667 0,-46.786" style="fill:rgb(42,108,98);fill-rule:nonzero;"/></g><g transform="matrix(0.675605,0.737264,0.737264,-0.675605,187.463,233.452)"><path d="M8.746,-4.502C8.746,-4.502 6.49,13.573 10.221,21.344C10.005,24.254 8.746,22.695 8.746,22.695C8.746,22.695 3.328,2.907 7.131,-7.19C9.649,-8.142 8.746,-4.502 8.746,-4.502" style="fill:rgb(52,133,121);fill-rule:nonzero;"/></g><g transform="matrix(-0.872043,-0.489429,-0.489429,0.872043,181.011,241.873)"><path d="M-1.561,-17.68C-1.561,-17.68 0.841,-8.104 -5.265,4.126C-2.983,6.146 -1.561,4.564 -1.561,4.564C-1.561,4.564 4.273,-18.276 -3.607,-23.646C-1.993,-20.391 -1.561,-17.68 -1.561,-17.68" style="fill:rgb(42,108,98);fill-rule:nonzero;"/></g><g transform="matrix(1,0,0,1,172.932,190.703)"><path d="M0,48.447C0,48.447 -0.994,34.849 -12.58,25.176C-18.292,20.406 -16.999,16.765 -21.703,15.483C-26.407,14.199 -33.25,10.208 -35.103,8.355C-36.956,6.502 -64.783,0 -71.911,2.566C-63.928,4.561 -56.235,16.048 -52.244,16.333C-48.252,16.618 -43.112,21.219 -37.411,25.211C-31.708,29.202 -27.262,26.744 -23.556,28.597C-19.85,30.45 -6.307,37.726 0,48.447" style="fill:rgb(52,133,121);fill-rule:nonzero;"/></g><g transform="matrix(1,0,0,1,165.87,194.317)"><path d="M0,33.953C-1.734,31.712 -3.575,29.556 -5.452,27.447C-6.4,26.402 -7.376,25.379 -8.418,24.446C-9.458,23.529 -10.606,22.698 -11.769,21.92C-12.938,21.145 -14.164,20.468 -15.425,19.84C-16.686,19.21 -17.985,18.601 -19.207,17.836C-20.435,17.096 -21.576,16.163 -22.64,15.269C-23.725,14.424 -24.944,13.712 -26.18,13.047C-31.17,10.432 -36.464,8.374 -41.708,6.248L-57.516,0C-52.186,1.924 -46.829,3.774 -41.526,5.779C-36.222,7.775 -30.921,9.812 -25.85,12.428C-24.59,13.096 -23.345,13.807 -22.188,14.696C-21.074,15.612 -20.009,16.468 -18.819,17.213C-17.645,17.964 -16.378,18.572 -15.112,19.218C-13.843,19.863 -12.59,20.57 -11.404,21.371C-10.226,22.183 -9.063,23.008 -8.02,24.013C-6.983,25.005 -6.035,26.068 -5.115,27.152C-3.269,29.315 -1.617,31.627 0,33.953" style="fill:rgb(37,95,86);fill-rule:nonzero;"/></g><g transform="matrix(1,0,0,1,152.602,220.562)"><path d="M0,-11.821C1.526,-10.317 2.903,-8.652 4.063,-6.834C4.65,-5.93 5.156,-4.97 5.569,-3.967C5.982,-2.966 6.285,-1.903 6.371,-0.802L6.386,-0.603L6.189,-0.573C5.107,-0.41 4.024,-0.262 2.934,-0.162C1.843,-0.07 0.748,0 -0.348,-0.029C-1.444,-0.05 -2.541,-0.146 -3.619,-0.346C-4.683,-0.578 -5.778,-0.871 -6.654,-1.535C-5.74,-0.932 -4.644,-0.717 -3.583,-0.557C-2.513,-0.403 -1.429,-0.345 -0.347,-0.365C0.735,-0.389 1.817,-0.445 2.896,-0.557C3.974,-0.669 5.046,-0.831 6.117,-1.003L5.936,-0.775C5.795,-2.865 4.843,-4.837 3.779,-6.66C3.241,-7.578 2.638,-8.459 2.004,-9.317C1.376,-10.181 0.713,-11.022 0,-11.821" style="fill:rgb(42,107,42);fill-rule:nonzero;"/></g><g transform="matrix(1,0,0,1,145.631,214.844)"><path d="M0,-9.654C1.262,-8.452 2.302,-7.032 3.227,-5.553C4.15,-4.069 4.896,-2.479 5.533,-0.851L5.625,-0.615L5.374,-0.567C3.29,-0.165 1.154,0 -0.966,-0.148C-3.075,-0.317 -5.205,-0.735 -7.084,-1.716C-5.132,-0.913 -3.03,-0.59 -0.946,-0.496C0.098,-0.457 1.145,-0.469 2.187,-0.552C3.23,-0.639 4.262,-0.805 5.292,-0.986L5.133,-0.701C4.541,-2.322 3.788,-3.879 2.951,-5.39C2.091,-6.887 1.137,-8.34 0,-9.654" style="fill:rgb(37,95,86);fill-rule:nonzero;"/></g><g transform="matrix(1,0,0,1,132.549,207.536)"><path d="M0,-10.196C1.463,-8.923 2.802,-7.505 4.015,-5.982C5.223,-4.457 6.286,-2.789 6.958,-0.925L7.046,-0.68L6.783,-0.645C4.876,-0.393 2.96,-0.221 1.041,-0.123C-0.878,-0.035 -2.8,0 -4.719,-0.089C-2.802,-0.191 -0.889,-0.307 1.019,-0.469C2.927,-0.615 4.831,-0.817 6.726,-1.07L6.552,-0.79C5.941,-2.594 4.885,-4.229 3.759,-5.786C2.61,-7.334 1.345,-8.801 0,-10.196" style="fill:rgb(37,95,86);fill-rule:nonzero;"/></g><g transform="matrix(1,0,0,1,120.967,203.539)"><path d="M0,-7.721C1.495,-7.014 2.936,-6.188 4.294,-5.231C4.974,-4.753 5.635,-4.242 6.23,-3.648C6.819,-3.056 7.398,-2.405 7.683,-1.549L7.738,-1.383L7.58,-1.304C6.738,-0.885 5.853,-0.708 4.973,-0.552C4.092,-0.405 3.208,-0.293 2.323,-0.21C0.549,-0.072 -1.226,0 -3,-0.049C-1.233,-0.201 0.532,-0.351 2.285,-0.571C3.162,-0.675 4.036,-0.795 4.9,-0.956C5.757,-1.124 6.626,-1.322 7.385,-1.674L7.283,-1.429C7.056,-2.159 6.521,-2.803 5.96,-3.378C5.388,-3.952 4.76,-4.482 4.112,-4.984C2.806,-5.978 1.42,-6.878 0,-7.721" style="fill:rgb(37,95,86);fill-rule:nonzero;"/></g><g transform="matrix(1,0,0,1,169.471,140.707)"><path d="M0,34.212C0,34.212 -4.847,15.68 -17.391,12.829C-29.936,9.978 -33.927,5.131 -41.91,2.566C-49.893,0 -57.59,6.272 -57.59,6.272C-57.59,6.272 -48.04,6.415 -38.845,13.043C-29.65,19.671 -12.473,31.86 0,34.212" style="fill:rgb(68,174,158);fill-rule:nonzero;"/></g><g transform="matrix(1,0,0,1,169.471,145.001)"><path d="M0,29.918C0,29.918 -5.906,17.865 -18.45,15.014C-30.995,12.163 -33.884,5.131 -41.867,2.565C-49.85,0 -57.59,1.978 -57.59,1.978C-57.59,1.978 -48.04,2.121 -38.845,8.749C-29.65,15.377 -12.473,27.566 0,29.918" style="fill:rgb(52,133,121);fill-rule:nonzero;"/></g><g transform="matrix(1,0,0,1,206.249,204.713)"><path d="M0,23.235C0,23.235 3.991,15.11 11.119,10.406C18.247,5.701 23.521,6.771 27.655,4.526C31.789,2.28 42.195,0 47.042,1.568C51.888,3.135 60.112,3.278 63.413,12.829C60.156,10.833 54.882,13.399 49.18,15.395C43.478,17.391 36.756,13.399 31.707,15.395C26.657,17.391 22.095,22.237 16.678,22.523C11.261,22.808 0,23.235 0,23.235" style="fill:rgb(52,133,121);fill-rule:nonzero;"/></g><g transform="matrix(1,0,0,1,189.642,187.108)"><path d="M0,40.84C0,40.84 -0.642,29.935 8.553,24.59C17.747,19.244 26.514,15.395 30.149,9.194C33.784,2.993 45.758,0 57.305,5.132C48.752,4.704 37.847,12.829 26.3,23.093C14.754,33.356 0,40.84 0,40.84" style="fill:rgb(68,174,158);fill-rule:nonzero;"/></g><g transform="matrix(1,0,0,1,189.642,187.108)"><path d="M0,40.84C0,40.84 -0.642,29.935 8.553,24.59C17.747,19.244 26.744,20.577 30.379,14.376C34.014,8.174 45.758,0 57.305,5.132C48.752,4.704 37.847,12.829 26.3,23.093C14.754,33.356 0,40.84 0,40.84" style="fill:rgb(52,133,121);fill-rule:nonzero;"/></g><g transform="matrix(1,0,0,1,181.783,162.689)"><path d="M0,65.259C0,65.259 1.464,39.874 12.28,34.91C23.096,29.946 22.354,19.798 33.954,14.354C45.554,8.909 54.714,0 69.46,1.558C56.269,5.941 52.626,12.093 47.108,19.448C41.59,26.802 35.12,30.291 32.75,33.161C30.379,36.03 23.122,45.633 18.634,47.143C14.146,48.652 2.555,58.998 0,65.259" style="fill:rgb(68,174,158);fill-rule:nonzero;"/></g><g transform="matrix(1,0,0,1,181.783,162.689)"><path d="M0,65.259C0,65.259 4.714,43.342 15.53,38.378C26.346,33.414 24.907,23.447 36.507,18.003C48.106,12.559 54.714,0 69.46,1.558C56.269,5.941 52.626,12.093 47.108,19.448C41.59,26.802 35.12,30.291 32.75,33.161C30.379,36.03 23.122,45.633 18.634,47.143C14.146,48.652 2.555,58.998 0,65.259" style="fill:rgb(52,133,121);fill-rule:nonzero;"/></g><g transform="matrix(1,0,0,1,166.05,226.834)"><path d="M0,2.243C0,2.243 -10.478,-11.415 -22.808,-9.979C-35.138,-8.543 -32.501,-0.688 -44.476,-3.921C-56.45,-7.154 -75.267,4.535 -76.977,13.658C-66.428,5.39 -59.016,3.965 -43.05,6.245C-27.084,8.526 -9.408,0.521 0,2.243" style="fill:rgb(68,174,158);fill-rule:nonzero;"/></g><g transform="matrix(1,0,0,1,166.05,232.996)"><path d="M0,-3.919C0,-3.919 -9.991,-11.415 -22.32,-9.979C-34.65,-8.543 -32.221,-3.446 -44.195,-6.679C-56.169,-9.913 -75.267,-1.627 -76.977,7.496C-66.428,-0.772 -59.016,-2.197 -43.05,0.083C-27.084,2.364 -9.408,-5.641 0,-3.919" style="fill:rgb(52,133,121);fill-rule:nonzero;"/></g><g transform="matrix(1,0,0,1,169.355,228.192)"><path d="M0,17.375C0,17.375 2.625,4.375 -11.125,-3C-5,-3.25 2.047,4.375 4.086,15.5C4.875,20.625 0,17.375 0,17.375" style="fill:rgb(42,108,98);fill-rule:nonzero;"/></g><g transform="matrix(1,0,0,1,166.05,118.326)"><path d="M0,79.971C0,79.971 -9.693,67.712 -5.987,49.465C-2.281,31.219 -1.141,31.789 3.707,23.521C8.553,15.253 11.974,4.99 21.953,4.135C31.931,3.279 30.506,-2.708 40.199,1.854C35.067,1.569 25.089,6.344 25.089,13.614C25.089,20.884 22.951,26.016 20.171,29.223C17.391,32.43 18.46,39.914 15.467,45.046C12.473,50.178 7.555,64.504 4.348,68.674C1.141,72.844 1.996,81.397 2.209,82.038C2.423,82.679 0,79.971 0,79.971" style="fill:rgb(68,174,158);fill-rule:nonzero;"/></g><g transform="matrix(1,0,0,1,188.288,127.307)"><path d="M0,65.853C0,65.853 -5.417,43.621 -1.14,29.936C3.136,16.251 9.693,14.826 16.251,7.413C22.808,0 28.225,3.136 28.225,3.136C28.225,3.136 24.519,8.268 23.949,22.523C23.378,36.778 17.299,47.227 8.268,54.74C-0.763,62.252 0,65.853 0,65.853" style="fill:rgb(68,174,158);fill-rule:nonzero;"/></g><g transform="matrix(1,0,0,1,164.625,169.502)"><path d="M0,34.227C0,34.227 -6.843,10.834 -20.527,5.417C-34.212,0 -35.067,2.281 -44.761,1.711C-54.455,1.141 -66.144,5.703 -71.561,9.979C-57.305,5.703 -42.48,12.511 -33.072,17.945C-23.664,23.378 0,34.227 0,34.227" style="fill:rgb(68,174,158);fill-rule:nonzero;"/></g><g transform="matrix(1,0,0,1,164.625,171.872)"><path d="M0,31.857C0,31.857 -10.264,16.362 -23.949,10.945C-37.633,5.528 -36.452,1.14 -46.145,0.57C-55.838,0 -66.144,3.333 -71.561,7.609C-57.305,3.333 -42.48,10.141 -33.072,15.575C-23.664,21.008 0,31.857 0,31.857" style="fill:rgb(52,133,121);fill-rule:nonzero;"/></g><g transform="matrix(1,0,0,1,186.174,131.671)"><path d="M0,62.281C2.1,56.893 3.958,51.304 4.99,45.626C5.123,44.916 5.216,44.204 5.305,43.492C5.41,42.775 5.478,42.003 5.629,41.267C5.896,39.779 6.336,38.302 6.977,36.923C8.267,34.147 10.17,31.907 11.083,29.194C11.583,27.87 11.831,26.428 12.242,24.994C12.623,23.567 13.07,22.161 13.539,20.764C14.484,17.973 15.574,15.232 16.843,12.574C18.117,9.922 19.564,7.34 21.334,4.984C23.102,2.655 25.23,0.471 27.931,-0.729C25.266,0.549 23.224,2.772 21.536,5.132C19.848,7.517 18.486,10.118 17.297,12.784C16.113,15.454 15.11,18.204 14.252,20.994C13.828,22.391 13.425,23.795 13.089,25.212C12.904,25.919 12.772,26.627 12.608,27.343L12.352,28.439L12.027,29.521C11.125,32.438 9.215,34.844 8.121,37.428C7.561,38.727 7.195,40.096 6.984,41.5C6.86,42.205 6.821,42.899 6.735,43.635C6.664,44.381 6.587,45.126 6.471,45.862C6.048,48.815 5.351,51.698 4.571,54.552C3.775,57.406 2.886,60.209 1.862,63.01L0,62.281Z" style="fill:rgb(52,133,121);fill-rule:nonzero;"/></g><g transform="matrix(1,0,0,1,187.105,178.6)"><path d="M0,-14.534C0.698,-12.141 1.426,-9.759 2.18,-7.388C2.573,-6.208 2.953,-5.025 3.379,-3.861C3.812,-2.703 4.266,-1.534 4.879,-0.499L4.521,-0.569C5.54,-1.3 6.567,-2.02 7.608,-2.722C8.652,-3.417 9.692,-4.12 10.771,-4.763C12.912,-6.069 15.109,-7.3 17.417,-8.284C16.297,-7.722 15.218,-7.085 14.151,-6.433C13.078,-5.792 12.021,-5.124 10.977,-4.437C8.887,-3.066 6.824,-1.653 4.814,-0.165L4.591,0L4.456,-0.235C3.812,-1.354 3.378,-2.529 2.953,-3.706C2.542,-4.888 2.152,-6.075 1.814,-7.277C1.122,-9.674 0.521,-12.096 0,-14.534" style="fill:rgb(52,133,121);fill-rule:nonzero;"/></g><g transform="matrix(1,0,0,1,192.105,167.724)"><path d="M0,-15.074C0.194,-12.589 0.519,-10.118 0.916,-7.665C1.338,-5.216 1.831,-2.778 2.574,-0.415L2.235,-0.562C4.77,-1.808 7.262,-3.152 9.65,-4.663C10.85,-5.409 12.028,-6.193 13.149,-7.05C14.259,-7.909 15.409,-8.782 16.167,-9.991C15.481,-8.736 14.378,-7.775 13.309,-6.85C12.208,-5.947 11.049,-5.117 9.868,-4.325C8.684,-3.537 7.461,-2.808 6.224,-2.107C4.983,-1.413 3.734,-0.731 2.447,-0.123L2.188,0L2.108,-0.27C1.399,-2.677 0.876,-5.132 0.555,-7.61C0.215,-10.086 0.03,-12.58 0,-15.074" style="fill:rgb(52,133,121);fill-rule:nonzero;"/></g><g transform="matrix(1,0,0,1,197.938,156.913)"><path d="M0,-13.18C-0.118,-11.025 -0.092,-8.868 0.042,-6.726C0.213,-4.591 0.479,-2.446 1.184,-0.441L0.833,-0.573C1.86,-1.18 2.881,-1.801 3.845,-2.511C4.812,-3.217 5.75,-3.963 6.658,-4.747C7.571,-5.524 8.458,-6.334 9.316,-7.176C10.183,-8.009 11.031,-8.864 11.833,-9.763C10.362,-7.851 8.707,-6.08 6.922,-4.447C6.036,-3.622 5.084,-2.871 4.119,-2.138C3.147,-1.413 2.132,-0.742 1.072,-0.145L0.813,0L0.722,-0.278C0.036,-2.367 -0.252,-4.541 -0.325,-6.706C-0.399,-8.873 -0.286,-11.04 0,-13.18" style="fill:rgb(52,133,121);fill-rule:nonzero;"/></g><g transform="matrix(1,0,0,1,203.271,144.534)"><path d="M0,-7.301C-0.236,-6.132 -0.356,-4.947 -0.357,-3.773C-0.333,-2.6 -0.2,-1.426 0.223,-0.352L-0.039,-0.501C0.676,-0.641 1.381,-0.904 2.073,-1.193C2.765,-1.485 3.437,-1.833 4.098,-2.2C5.437,-2.91 6.727,-3.718 8.021,-4.53C6.863,-3.53 5.613,-2.641 4.306,-1.837C3.646,-1.446 2.969,-1.079 2.263,-0.761C1.559,-0.442 0.83,-0.155 0.04,-0.03L-0.158,0L-0.222,-0.179C-0.64,-1.342 -0.788,-2.575 -0.706,-3.781C-0.636,-4.986 -0.406,-6.176 0,-7.301" style="fill:rgb(52,133,121);fill-rule:nonzero;"/></g><g transform="matrix(1,0,0,1,167.59,122.983)"><path d="M0,78.124C-0.292,77.832 -0.404,77.654 -0.566,77.424C-0.719,77.205 -0.833,76.985 -0.966,76.765C-1.19,76.32 -1.404,75.874 -1.562,75.419C-1.911,74.514 -2.133,73.593 -2.316,72.673C-2.646,70.83 -2.786,68.981 -2.763,67.15C-2.748,63.481 -2.233,59.875 -1.53,56.332C-0.802,52.802 -0.021,49.26 1.36,45.863C2.04,44.172 2.877,42.557 3.628,40.958C4.392,39.36 4.988,37.716 5.427,36.007C6.157,32.525 7.166,29.012 8.396,25.647C9.622,22.267 11.038,18.954 12.704,15.768C14.373,12.587 16.279,9.516 18.573,6.745C20.863,3.994 23.591,1.512 26.856,0C23.626,1.585 20.975,4.114 18.76,6.897C16.544,9.7 14.721,12.792 13.135,15.987C11.552,19.186 10.221,22.507 9.08,25.886C7.933,29.28 7.021,32.686 6.376,36.236C5.975,38.009 5.394,39.764 4.658,41.42C3.934,43.084 3.165,44.677 2.556,46.329C1.333,49.618 0.642,53.127 -0.009,56.616C-0.626,60.105 -1.05,63.638 -0.99,67.139C-0.976,68.889 -0.801,70.624 -0.466,72.299C-0.283,73.13 -0.065,73.952 0.248,74.713C0.392,75.103 0.576,75.459 0.76,75.811C0.864,75.971 0.959,76.148 1.066,76.294C1.159,76.431 1.313,76.615 1.34,76.639L0,78.124Z" style="fill:rgb(52,133,121);fill-rule:nonzero;"/></g><g transform="matrix(1,0,0,1,162.666,177.63)"><path d="M0,-16.48C0.726,-13.758 1.485,-11.046 2.276,-8.347C2.691,-7.004 3.085,-5.655 3.541,-4.328C4.006,-3.014 4.478,-1.667 5.173,-0.507L4.813,-0.569C6.638,-1.937 8.438,-3.335 10.243,-4.73L12.938,-6.836C13.839,-7.535 14.737,-8.239 15.605,-8.98C13.977,-7.377 12.242,-5.886 10.483,-4.429C8.725,-2.971 6.92,-1.572 5.115,-0.172L4.892,0L4.755,-0.235C4.014,-1.503 3.571,-2.845 3.11,-4.184C2.673,-5.527 2.267,-6.879 1.908,-8.244C1.179,-10.968 0.548,-13.716 0,-16.48" style="fill:rgb(52,133,121);fill-rule:nonzero;"/></g><g transform="matrix(1,0,0,1,167.425,166.698)"><path d="M0,-15.024C0.247,-12.544 0.623,-10.08 1.072,-7.636C1.545,-5.197 2.089,-2.77 2.882,-0.423L2.54,-0.563C5.048,-1.861 7.511,-3.258 9.867,-4.819C11.051,-5.59 12.212,-6.398 13.315,-7.279C14.407,-8.161 15.538,-9.058 16.27,-10.282C15.611,-9.013 14.528,-8.029 13.479,-7.082C12.397,-6.156 11.256,-5.302 10.092,-4.485C8.924,-3.672 7.718,-2.918 6.495,-2.191C5.27,-1.471 4.035,-0.763 2.761,-0.128L2.504,0L2.419,-0.268C1.66,-2.66 1.085,-5.103 0.712,-7.574C0.32,-10.042 0.082,-12.532 0,-15.024" style="fill:rgb(52,133,121);fill-rule:nonzero;"/></g><g transform="matrix(1,0,0,1,173.07,155.797)"><path d="M0,-13.16C-0.073,-11.003 -0.001,-8.847 0.178,-6.708C0.394,-4.577 0.704,-2.438 1.451,-0.448L1.099,-0.573C2.112,-1.202 3.12,-1.844 4.069,-2.574C5.02,-3.3 5.942,-4.066 6.833,-4.868C7.73,-5.664 8.601,-6.493 9.44,-7.353C10.289,-8.203 11.12,-9.076 11.902,-9.993C10.472,-8.05 8.854,-6.245 7.104,-4.574C6.236,-3.731 5.3,-2.96 4.35,-2.207C3.394,-1.462 2.393,-0.769 1.346,-0.151L1.09,0L0.993,-0.276C0.263,-2.349 -0.071,-4.518 -0.188,-6.681C-0.309,-8.846 -0.24,-11.014 0,-13.16" style="fill:rgb(52,133,121);fill-rule:nonzero;"/></g><g transform="matrix(1,0,0,1,178.265,143.329)"><path d="M0,-7.303C-0.211,-6.129 -0.307,-4.943 -0.283,-3.768C-0.235,-2.596 -0.077,-1.425 0.368,-0.361L0.104,-0.504C0.816,-0.659 1.515,-0.937 2.2,-1.24C2.886,-1.546 3.55,-1.909 4.205,-2.289C5.528,-3.027 6.801,-3.863 8.077,-4.701C6.941,-3.678 5.71,-2.762 4.42,-1.931C3.768,-1.526 3.099,-1.144 2.4,-0.812C1.703,-0.478 0.979,-0.176 0.192,-0.035L-0.004,0L-0.073,-0.178C-0.515,-1.332 -0.688,-2.562 -0.632,-3.769C-0.587,-4.975 -0.383,-6.171 0,-7.303" style="fill:rgb(52,133,121);fill-rule:nonzero;"/></g><g transform="matrix(1,0,0,1,181.864,217.559)"><path d="M0,-24.268C0,-24.268 9.542,-33.928 12.193,-27.508C14.843,-21.087 3.711,-6.244 -14.578,-3.196C-32.867,-0.147 -29.156,9.66 -29.156,9.66C-29.156,9.66 -37.992,3.298 -29.466,-13.4C-20.939,-30.1 -5.831,-31.16 0,-24.268" style="fill:rgb(52,133,121);fill-rule:nonzero;"/></g><g transform="matrix(1,0,0,1,182.074,219.402)"><path d="M0,-25.611C-0.236,-25.661 -0.72,-25.64 -1.101,-25.548C-1.507,-25.469 -1.911,-25.33 -2.311,-25.177C-3.106,-24.85 -3.872,-24.418 -4.61,-23.939C-6.086,-22.972 -7.434,-21.788 -8.707,-20.534C-9.36,-19.922 -9.947,-19.248 -10.579,-18.603C-11.207,-17.931 -11.881,-17.304 -12.594,-16.727C-14.024,-15.577 -15.599,-14.636 -17.213,-13.811C-20.419,-12.148 -23.88,-10.908 -26.537,-8.461C-27.86,-7.259 -28.916,-5.762 -29.633,-4.116C-30.359,-2.47 -30.8,-0.704 -31.053,1.081C-30.842,-0.71 -30.441,-2.489 -29.749,-4.166C-29.064,-5.841 -28.028,-7.389 -26.709,-8.645C-24.058,-11.2 -20.578,-12.537 -17.449,-14.256C-15.871,-15.11 -14.353,-16.067 -12.994,-17.213C-11.629,-18.34 -10.529,-19.758 -9.24,-21.067C-7.973,-22.373 -6.624,-23.617 -5.1,-24.666C-4.337,-25.186 -3.537,-25.665 -2.669,-26.044C-2.231,-26.224 -1.783,-26.391 -1.304,-26.496C-0.809,-26.599 -0.375,-26.692 0.279,-26.571L0,-25.611Z" style="fill:rgb(37,95,86);fill-rule:nonzero;"/></g><g transform="matrix(1,0,0,1,151.355,215.198)"><path d="M0,-6.411C0.68,-6.78 1.422,-7.017 2.164,-7.237C2.912,-7.441 3.675,-7.585 4.441,-7.703C5.977,-7.927 7.534,-7.962 9.083,-7.911L9.431,-7.9L9.302,-7.574C8.709,-6.08 8.165,-4.568 7.64,-3.048C7.115,-1.528 6.618,0.002 6.167,1.551C6.41,-0.047 6.819,-1.615 7.267,-3.167C7.73,-4.716 8.264,-6.243 8.84,-7.754L9.059,-7.416C8.297,-7.453 7.534,-7.475 6.771,-7.458C6.008,-7.442 5.247,-7.392 4.486,-7.329C2.97,-7.176 1.449,-6.933 0,-6.411" style="fill:rgb(37,95,86);fill-rule:nonzero;"/></g><g transform="matrix(1,0,0,1,156.417,212.299)"><path d="M0,-11.482C2.322,-11.773 4.662,-11.93 7.008,-11.933C8.182,-11.938 9.356,-11.877 10.529,-11.761C11.698,-11.633 12.883,-11.484 14.014,-11.036L14.18,-10.97L14.168,-10.797C14.101,-9.802 14.009,-8.809 13.866,-7.822C13.712,-6.836 13.535,-5.852 13.254,-4.893C12.984,-3.933 12.676,-2.981 12.257,-2.074C11.828,-1.176 11.345,-0.29 10.688,0.456C11.286,-0.336 11.695,-1.246 12.05,-2.161C12.404,-3.079 12.683,-4.024 12.903,-4.982C13.13,-5.939 13.281,-6.912 13.426,-7.883C13.554,-8.858 13.631,-9.839 13.683,-10.822L13.837,-10.584C12.778,-10.973 11.625,-11.165 10.479,-11.299C9.328,-11.433 8.165,-11.494 7.001,-11.528C4.674,-11.603 2.337,-11.571 0,-11.482" style="fill:rgb(37,95,86);fill-rule:nonzero;"/></g><g transform="matrix(1,0,0,1,165.7,208.672)"><path d="M0,-16.355C0.987,-16.47 1.989,-16.351 2.977,-16.253C3.967,-16.135 4.948,-15.949 5.919,-15.721C7.869,-15.285 9.752,-14.585 11.573,-13.761L11.649,-13.727L11.686,-13.651C12.207,-12.585 12.663,-11.484 12.97,-10.337C13.309,-9.2 13.503,-8.022 13.604,-6.843C13.772,-4.484 13.508,-2.077 12.655,0.115C13.004,-1.005 13.174,-2.168 13.256,-3.329C13.345,-4.488 13.34,-5.655 13.198,-6.806C13.064,-7.956 12.873,-9.103 12.521,-10.207C12.212,-11.324 11.732,-12.381 11.253,-13.433L11.366,-13.323C9.591,-14.177 7.728,-14.835 5.83,-15.372C4.881,-15.643 3.915,-15.852 2.943,-16.033C1.974,-16.203 0.988,-16.396 0,-16.355" style="fill:rgb(37,95,86);fill-rule:nonzero;"/></g><g transform="matrix(1,0,0,1,180.663,202.567)"><path d="M0,-9.542C1.089,-9.228 2.097,-8.77 3.061,-8.214C4.019,-7.653 4.908,-6.968 5.656,-6.146C6.407,-5.324 6.949,-4.323 7.261,-3.268C7.616,-2.209 7.543,-1.081 7.441,0C7.502,-1.087 7.53,-2.205 7.141,-3.231C6.795,-4.255 6.231,-5.206 5.473,-5.976C4.716,-6.747 3.828,-7.377 2.878,-7.887C1.929,-8.389 0.909,-8.802 -0.117,-9.056L0,-9.542Z" style="fill:rgb(37,95,86);fill-rule:nonzero;"/></g><g transform="matrix(1,0,0,1,205.73,212.339)"><path d="M0,15.609C2.126,13.843 4.282,12.1 6.575,10.538C7.719,9.755 8.883,8.997 10.106,8.32C11.333,7.629 12.643,7.127 13.953,6.659C15.27,6.197 16.627,5.837 17.988,5.55C19.35,5.26 20.707,5.029 22.018,4.667C23.332,4.312 24.606,3.833 25.849,3.268C27.126,2.672 28.481,2.256 29.826,1.905C35.235,0.565 40.798,0 46.348,0.079C49.121,0.135 51.9,0.341 54.626,0.872C57.344,1.409 60.036,2.215 62.458,3.561C59.988,2.306 57.288,1.608 54.574,1.174C51.851,0.763 49.098,0.573 46.344,0.588C43.591,0.598 40.841,0.796 38.107,1.109C35.376,1.429 32.656,1.893 30.004,2.588C28.68,2.945 27.382,3.352 26.156,3.936C24.892,4.534 23.564,5.019 22.206,5.371C20.848,5.732 19.473,5.953 18.13,6.228C16.784,6.499 15.461,6.837 14.165,7.278C12.871,7.73 11.588,8.216 10.377,8.832C9.16,9.453 7.979,10.166 6.818,10.906C4.507,12.405 2.214,13.953 0,15.609" style="fill:rgb(42,108,98);fill-rule:nonzero;"/></g><g transform="matrix(1,0,0,1,223.73,224.765)"><path d="M0,-12.096C-0.901,-11.516 -1.764,-10.883 -2.6,-10.218C-3.44,-9.56 -4.256,-8.871 -5.02,-8.131C-6.531,-6.658 -7.975,-5.013 -8.669,-3.035L-8.783,-3.303C-7.797,-2.852 -6.807,-2.408 -5.797,-2.014C-4.788,-1.617 -3.76,-1.275 -2.724,-0.963C-1.686,-0.655 -0.626,-0.421 0.446,-0.284C1.511,-0.155 2.625,-0.07 3.667,-0.407C2.646,0 1.511,-0.011 0.425,-0.072C-0.668,-0.166 -1.75,-0.367 -2.812,-0.639C-3.877,-0.903 -4.913,-1.263 -5.939,-1.643C-6.963,-2.03 -7.968,-2.462 -8.967,-2.908L-9.148,-2.99L-9.081,-3.177C-8.705,-4.216 -8.129,-5.159 -7.464,-6.013C-6.798,-6.87 -6.054,-7.66 -5.247,-8.375C-3.644,-9.817 -1.873,-11.054 0,-12.096" style="fill:rgb(42,108,98);fill-rule:nonzero;"/></g><g transform="matrix(1,0,0,1,231.396,221.093)"><path d="M0,-9.985C-1.447,-9.022 -2.754,-7.877 -3.982,-6.664C-5.191,-5.431 -6.333,-4.132 -7.337,-2.728L-7.414,-3.044C-6.47,-2.595 -5.519,-2.159 -4.538,-1.798C-3.555,-1.439 -2.55,-1.148 -1.533,-0.907C0.5,-0.441 2.613,-0.192 4.708,-0.443C2.635,0 0.471,-0.167 -1.606,-0.566C-3.689,-0.989 -5.703,-1.719 -7.605,-2.662L-7.834,-2.776L-7.682,-2.979C-6.634,-4.378 -5.49,-5.711 -4.205,-6.894C-2.918,-8.073 -1.537,-9.164 0,-9.985" style="fill:rgb(42,108,98);fill-rule:nonzero;"/></g><g transform="matrix(1,0,0,1,246.099,218.036)"><path d="M0,-11C-1.668,-10.015 -3.279,-8.938 -4.8,-7.754C-6.3,-6.554 -7.755,-5.26 -8.825,-3.684L-8.918,-4C-7.159,-3.251 -5.378,-2.549 -3.578,-1.898C-1.783,-1.232 0.029,-0.609 1.85,0C-0.023,-0.427 -1.866,-0.974 -3.692,-1.57C-5.515,-2.178 -7.316,-2.854 -9.086,-3.607L-9.33,-3.71L-9.18,-3.923C-8.035,-5.54 -6.565,-6.864 -4.995,-8.011C-3.418,-9.154 -1.75,-10.164 0,-11" style="fill:rgb(42,108,98);fill-rule:nonzero;"/></g><g transform="matrix(1,0,0,1,257.667,216.855)"><path d="M0,-8.194C-1.594,-7.761 -3.169,-7.264 -4.694,-6.654C-5.453,-6.343 -6.198,-6 -6.903,-5.599C-7.598,-5.195 -8.285,-4.717 -8.698,-4.074L-8.732,-4.338C-8.094,-3.796 -7.31,-3.373 -6.528,-2.983C-5.738,-2.597 -4.928,-2.247 -4.111,-1.914C-2.48,-1.233 -0.819,-0.618 0.844,0C-0.88,-0.426 -2.572,-0.969 -4.244,-1.576C-5.075,-1.892 -5.896,-2.236 -6.707,-2.613C-7.513,-2.998 -8.318,-3.405 -9.018,-4.033L-9.149,-4.152L-9.052,-4.297C-8.549,-5.046 -7.817,-5.519 -7.092,-5.932C-6.36,-6.345 -5.585,-6.661 -4.803,-6.941C-3.239,-7.501 -1.629,-7.912 0,-8.194" style="fill:rgb(42,108,98);fill-rule:nonzero;"/></g><g transform="matrix(-0.981643,0.190728,0.190728,0.981643,198.3,255.165)"><path d="M9.164,-23.262C9.164,-23.262 5.457,-30.384 -0.973,-25.358C-7.402,-20.334 -5.457,-2.85 9.164,7.378C8.473,0.833 8.827,-2.576 13.088,-9.793C17.35,-17.01 14.42,-23.121 9.164,-23.262" style="fill:rgb(68,174,158);fill-rule:nonzero;"/></g><g transform="matrix(1,0,0,1,184.987,261.902)"><path d="M0,-28.243C1.372,-27.899 2.619,-27.301 3.742,-26.48C4.85,-25.653 5.785,-24.555 6.332,-23.27C6.884,-21.988 7.047,-20.572 6.933,-19.209C6.795,-17.883 6.855,-16.565 7.104,-15.258C7.576,-12.65 8.819,-10.161 8.928,-7.425C8.994,-6.068 8.719,-4.712 8.212,-3.465C7.693,-2.22 6.98,-1.069 6.171,0C6.956,-1.088 7.639,-2.253 8.125,-3.499C8.599,-4.748 8.837,-6.087 8.742,-7.415C8.577,-10.093 7.288,-12.526 6.738,-15.184C6.452,-16.508 6.356,-17.894 6.468,-19.243C6.556,-20.55 6.376,-21.875 5.845,-23.056C4.786,-25.441 2.345,-26.998 -0.132,-27.591L0,-28.243Z" style="fill:rgb(52,133,121);fill-rule:nonzero;"/></g><g transform="matrix(1,0,0,1,197.612,241.382)"><path d="M0,0.269C-0.431,-0.176 -0.975,-0.497 -1.499,-0.821C-2.033,-1.135 -2.572,-1.439 -3.134,-1.698C-4.254,-2.22 -5.416,-2.648 -6.611,-2.949L-6.51,-2.957C-8.002,-2.272 -9.421,-1.405 -10.635,-0.289C-11.256,0.251 -11.825,0.853 -12.347,1.493C-12.87,2.131 -13.363,2.803 -13.752,3.538C-13.073,2.016 -12.034,0.662 -10.825,-0.496C-10.208,-1.063 -9.556,-1.596 -8.849,-2.049C-8.156,-2.527 -7.401,-2.902 -6.635,-3.246L-6.586,-3.269L-6.534,-3.254C-5.323,-2.928 -4.138,-2.492 -3.032,-1.902C-2.477,-1.613 -1.936,-1.297 -1.424,-0.938C-0.921,-0.572 -0.399,-0.21 0,0.269" style="fill:rgb(52,133,121);fill-rule:nonzero;"/></g><g transform="matrix(1,0,0,1,197.313,240.436)"><path d="M0,-5.885C-1.31,-7.066 -3.104,-7.571 -4.822,-7.566C-6.562,-7.576 -8.261,-7.039 -9.813,-6.279C-10.597,-5.902 -11.327,-5.442 -11.962,-4.852C-12.62,-4.294 -13.2,-3.642 -13.67,-2.917C-14.624,-1.482 -15.234,0.211 -15.333,1.964C-15.391,0.206 -14.864,-1.573 -13.913,-3.075C-13.438,-3.829 -12.85,-4.512 -12.179,-5.098C-11.525,-5.712 -10.747,-6.171 -9.948,-6.552C-8.359,-7.323 -6.605,-7.849 -4.819,-7.78C-3.054,-7.754 -1.251,-7.125 0,-5.885" style="fill:rgb(52,133,121);fill-rule:nonzero;"/></g></g><g transform="matrix(5.6486,0.845599,-0.845599,5.6486,2848.5,727.721)"><g transform="matrix(1,0,0,1,166.05,246.337)"><path d="M0,-75.172C0,-75.172 11.971,-30.353 3.305,-0.77C6.877,0 8.846,-0.77 8.846,-0.77C8.846,-0.77 13.97,-57.545 0,-75.172" style="fill:rgb(52,133,121);fill-rule:nonzero;"/></g><g transform="matrix(1,0,0,1,188.105,250.817)"><path d="M0,-56.5C0,-56.5 -11,-23 -10.75,-6.25C-13,0 -16.538,-6.25 -16.538,-6.25C-16.538,-6.25 -13.208,-40 0,-56.5" style="fill:rgb(52,133,121);fill-rule:nonzero;"/></g><g transform="matrix(1,0,0,1,188.105,253.603)"><path d="M0,-46.786C0,-46.786 -6.727,-18.886 -5.672,-5.215C-7.079,0 -10.12,-4.934 -10.12,-4.934C-10.12,-4.934 -9.301,-32.667 0,-46.786" style="fill:rgb(42,108,98);fill-rule:nonzero;"/></g><g transform="matrix(0.675605,0.737264,0.737264,-0.675605,187.463,233.452)"><path d="M8.746,-4.502C8.746,-4.502 6.49,13.573 10.221,21.344C10.005,24.254 8.746,22.695 8.746,22.695C8.746,22.695 3.328,2.907 7.131,-7.19C9.649,-8.142 8.746,-4.502 8.746,-4.502" style="fill:rgb(52,133,121);fill-rule:nonzero;"/></g><g transform="matrix(-0.872043,-0.489429,-0.489429,0.872043,181.011,241.873)"><path d="M-1.561,-17.68C-1.561,-17.68 0.841,-8.104 -5.265,4.126C-2.983,6.146 -1.561,4.564 -1.561,4.564C-1.561,4.564 4.273,-18.276 -3.607,-23.646C-1.993,-20.391 -1.561,-17.68 -1.561,-17.68" style="fill:rgb(42,108,98);fill-rule:nonzero;"/></g><g transform="matrix(1,0,0,1,172.932,190.703)"><path d="M0,48.447C0,48.447 -0.994,34.849 -12.58,25.176C-18.292,20.406 -16.999,16.765 -21.703,15.483C-26.407,14.199 -33.25,10.208 -35.103,8.355C-36.956,6.502 -64.783,0 -71.911,2.566C-63.928,4.561 -56.235,16.048 -52.244,16.333C-48.252,16.618 -43.112,21.219 -37.411,25.211C-31.708,29.202 -27.262,26.744 -23.556,28.597C-19.85,30.45 -6.307,37.726 0,48.447" style="fill:rgb(52,133,121);fill-rule:nonzero;"/></g><g transform="matrix(1,0,0,1,165.87,194.317)"><path d="M0,33.953C-1.734,31.712 -3.575,29.556 -5.452,27.447C-6.4,26.402 -7.376,25.379 -8.418,24.446C-9.458,23.529 -10.606,22.698 -11.769,21.92C-12.938,21.145 -14.164,20.468 -15.425,19.84C-16.686,19.21 -17.985,18.601 -19.207,17.836C-20.435,17.096 -21.576,16.163 -22.64,15.269C-23.725,14.424 -24.944,13.712 -26.18,13.047C-31.17,10.432 -36.464,8.374 -41.708,6.248L-57.516,0C-52.186,1.924 -46.829,3.774 -41.526,5.779C-36.222,7.775 -30.921,9.812 -25.85,12.428C-24.59,13.096 -23.345,13.807 -22.188,14.696C-21.074,15.612 -20.009,16.468 -18.819,17.213C-17.645,17.964 -16.378,18.572 -15.112,19.218C-13.843,19.863 -12.59,20.57 -11.404,21.371C-10.226,22.183 -9.063,23.008 -8.02,24.013C-6.983,25.005 -6.035,26.068 -5.115,27.152C-3.269,29.315 -1.617,31.627 0,33.953" style="fill:rgb(37,95,86);fill-rule:nonzero;"/></g><g transform="matrix(1,0,0,1,152.602,220.562)"><path d="M0,-11.821C1.526,-10.317 2.903,-8.652 4.063,-6.834C4.65,-5.93 5.156,-4.97 5.569,-3.967C5.982,-2.966 6.285,-1.903 6.371,-0.802L6.386,-0.603L6.189,-0.573C5.107,-0.41 4.024,-0.262 2.934,-0.162C1.843,-0.07 0.748,0 -0.348,-0.029C-1.444,-0.05 -2.541,-0.146 -3.619,-0.346C-4.683,-0.578 -5.778,-0.871 -6.654,-1.535C-5.74,-0.932 -4.644,-0.717 -3.583,-0.557C-2.513,-0.403 -1.429,-0.345 -0.347,-0.365C0.735,-0.389 1.817,-0.445 2.896,-0.557C3.974,-0.669 5.046,-0.831 6.117,-1.003L5.936,-0.775C5.795,-2.865 4.843,-4.837 3.779,-6.66C3.241,-7.578 2.638,-8.459 2.004,-9.317C1.376,-10.181 0.713,-11.022 0,-11.821" style="fill:rgb(42,107,42);fill-rule:nonzero;"/></g><g transform="matrix(1,0,0,1,145.631,214.844)"><path d="M0,-9.654C1.262,-8.452 2.302,-7.032 3.227,-5.553C4.15,-4.069 4.896,-2.479 5.533,-0.851L5.625,-0.615L5.374,-0.567C3.29,-0.165 1.154,0 -0.966,-0.148C-3.075,-0.317 -5.205,-0.735 -7.084,-1.716C-5.132,-0.913 -3.03,-0.59 -0.946,-0.496C0.098,-0.457 1.145,-0.469 2.187,-0.552C3.23,-0.639 4.262,-0.805 5.292,-0.986L5.133,-0.701C4.541,-2.322 3.788,-3.879 2.951,-5.39C2.091,-6.887 1.137,-8.34 0,-9.654" style="fill:rgb(37,95,86);fill-rule:nonzero;"/></g><g transform="matrix(1,0,0,1,132.549,207.536)"><path d="M0,-10.196C1.463,-8.923 2.802,-7.505 4.015,-5.982C5.223,-4.457 6.286,-2.789 6.958,-0.925L7.046,-0.68L6.783,-0.645C4.876,-0.393 2.96,-0.221 1.041,-0.123C-0.878,-0.035 -2.8,0 -4.719,-0.089C-2.802,-0.191 -0.889,-0.307 1.019,-0.469C2.927,-0.615 4.831,-0.817 6.726,-1.07L6.552,-0.79C5.941,-2.594 4.885,-4.229 3.759,-5.786C2.61,-7.334 1.345,-8.801 0,-10.196" style="fill:rgb(37,95,86);fill-rule:nonzero;"/></g><g transform="matrix(1,0,0,1,120.967,203.539)"><path d="M0,-7.721C1.495,-7.014 2.936,-6.188 4.294,-5.231C4.974,-4.753 5.635,-4.242 6.23,-3.648C6.819,-3.056 7.398,-2.405 7.683,-1.549L7.738,-1.383L7.58,-1.304C6.738,-0.885 5.853,-0.708 4.973,-0.552C4.092,-0.405 3.208,-0.293 2.323,-0.21C0.549,-0.072 -1.226,0 -3,-0.049C-1.233,-0.201 0.532,-0.351 2.285,-0.571C3.162,-0.675 4.036,-0.795 4.9,-0.956C5.757,-1.124 6.626,-1.322 7.385,-1.674L7.283,-1.429C7.056,-2.159 6.521,-2.803 5.96,-3.378C5.388,-3.952 4.76,-4.482 4.112,-4.984C2.806,-5.978 1.42,-6.878 0,-7.721" style="fill:rgb(37,95,86);fill-rule:nonzero;"/></g><g transform="matrix(1,0,0,1,169.471,140.707)"><path d="M0,34.212C0,34.212 -4.847,15.68 -17.391,12.829C-29.936,9.978 -33.927,5.131 -41.91,2.566C-49.893,0 -57.59,6.272 -57.59,6.272C-57.59,6.272 -48.04,6.415 -38.845,13.043C-29.65,19.671 -12.473,31.86 0,34.212" style="fill:rgb(68,174,158);fill-rule:nonzero;"/></g><g transform="matrix(1,0,0,1,169.471,145.001)"><path d="M0,29.918C0,29.918 -5.906,17.865 -18.45,15.014C-30.995,12.163 -33.884,5.131 -41.867,2.565C-49.85,0 -57.59,1.978 -57.59,1.978C-57.59,1.978 -48.04,2.121 -38.845,8.749C-29.65,15.377 -12.473,27.566 0,29.918" style="fill:rgb(52,133,121);fill-rule:nonzero;"/></g><g transform="matrix(1,0,0,1,189.642,187.108)"><path d="M0,40.84C0,40.84 -0.642,29.935 8.553,24.59C17.747,19.244 26.514,15.395 30.149,9.194C33.784,2.993 45.758,0 57.305,5.132C48.752,4.704 37.847,12.829 26.3,23.093C14.754,33.356 0,40.84 0,40.84" style="fill:rgb(68,174,158);fill-rule:nonzero;"/></g><g transform="matrix(1,0,0,1,189.642,187.108)"><path d="M0,40.84C0,40.84 -0.642,29.935 8.553,24.59C17.747,19.244 26.744,20.577 30.379,14.376C34.014,8.174 45.758,0 57.305,5.132C48.752,4.704 37.847,12.829 26.3,23.093C14.754,33.356 0,40.84 0,40.84" style="fill:rgb(52,133,121);fill-rule:nonzero;"/></g><g transform="matrix(1,0,0,1,181.783,162.689)"><path d="M0,65.259C0,65.259 1.464,39.874 12.28,34.91C23.096,29.946 22.354,19.798 33.954,14.354C45.554,8.909 54.714,0 69.46,1.558C56.269,5.941 52.626,12.093 47.108,19.448C41.59,26.802 35.12,30.291 32.75,33.161C30.379,36.03 23.122,45.633 18.634,47.143C14.146,48.652 2.555,58.998 0,65.259" style="fill:rgb(68,174,158);fill-rule:nonzero;"/></g><g transform="matrix(1,0,0,1,181.783,162.689)"><path d="M0,65.259C0,65.259 4.714,43.342 15.53,38.378C26.346,33.414 24.907,23.447 36.507,18.003C48.106,12.559 54.714,0 69.46,1.558C56.269,5.941 52.626,12.093 47.108,19.448C41.59,26.802 35.12,30.291 32.75,33.161C30.379,36.03 23.122,45.633 18.634,47.143C14.146,48.652 2.555,58.998 0,65.259" style="fill:rgb(52,133,121);fill-rule:nonzero;"/></g><g transform="matrix(1,0,0,1,166.05,226.834)"><path d="M0,2.243C0,2.243 -10.478,-11.415 -22.808,-9.979C-35.138,-8.543 -32.501,-0.688 -44.476,-3.921C-56.45,-7.154 -75.267,4.535 -76.977,13.658C-66.428,5.39 -59.016,3.965 -43.05,6.245C-27.084,8.526 -9.408,0.521 0,2.243" style="fill:rgb(68,174,158);fill-rule:nonzero;"/></g><g transform="matrix(1,0,0,1,166.05,232.996)"><path d="M0,-3.919C0,-3.919 -9.991,-11.415 -22.32,-9.979C-34.65,-8.543 -32.221,-3.446 -44.195,-6.679C-56.169,-9.913 -75.267,-1.627 -76.977,7.496C-66.428,-0.772 -59.016,-2.197 -43.05,0.083C-27.084,2.364 -9.408,-5.641 0,-3.919" style="fill:rgb(52,133,121);fill-rule:nonzero;"/></g><g transform="matrix(1,0,0,1,169.355,228.192)"><path d="M0,17.375C0,17.375 2.625,4.375 -11.125,-3C-5,-3.25 2.047,4.375 4.086,15.5C4.875,20.625 0,17.375 0,17.375" style="fill:rgb(42,108,98);fill-rule:nonzero;"/></g><g transform="matrix(1,0,0,1,166.05,118.326)"><path d="M0,79.971C0,79.971 -9.693,67.712 -5.987,49.465C-2.281,31.219 -1.141,31.789 3.707,23.521C8.553,15.253 11.974,4.99 21.953,4.135C31.931,3.279 30.506,-2.708 40.199,1.854C35.067,1.569 25.089,6.344 25.089,13.614C25.089,20.884 22.951,26.016 20.171,29.223C17.391,32.43 18.46,39.914 15.467,45.046C12.473,50.178 7.555,64.504 4.348,68.674C1.141,72.844 1.996,81.397 2.209,82.038C2.423,82.679 0,79.971 0,79.971" style="fill:rgb(68,174,158);fill-rule:nonzero;"/></g><g transform="matrix(1,0,0,1,188.288,127.307)"><path d="M0,65.853C0,65.853 -5.417,43.621 -1.14,29.936C3.136,16.251 9.693,14.826 16.251,7.413C22.808,0 28.225,3.136 28.225,3.136C28.225,3.136 24.519,8.268 23.949,22.523C23.378,36.778 17.299,47.227 8.268,54.74C-0.763,62.252 0,65.853 0,65.853" style="fill:rgb(68,174,158);fill-rule:nonzero;"/></g><g transform="matrix(1,0,0,1,164.625,169.502)"><path d="M0,34.227C0,34.227 -6.843,10.834 -20.527,5.417C-34.212,0 -35.067,2.281 -44.761,1.711C-54.455,1.141 -66.144,5.703 -71.561,9.979C-57.305,5.703 -42.48,12.511 -33.072,17.945C-23.664,23.378 0,34.227 0,34.227" style="fill:rgb(68,174,158);fill-rule:nonzero;"/></g><g transform="matrix(1,0,0,1,164.625,171.872)"><path d="M0,31.857C0,31.857 -10.264,16.362 -23.949,10.945C-37.633,5.528 -36.452,1.14 -46.145,0.57C-55.838,0 -66.144,3.333 -71.561,7.609C-57.305,3.333 -42.48,10.141 -33.072,15.575C-23.664,21.008 0,31.857 0,31.857" style="fill:rgb(52,133,121);fill-rule:nonzero;"/></g><g transform="matrix(1,0,0,1,186.174,131.671)"><path d="M0,62.281C2.1,56.893 3.958,51.304 4.99,45.626C5.123,44.916 5.216,44.204 5.305,43.492C5.41,42.775 5.478,42.003 5.629,41.267C5.896,39.779 6.336,38.302 6.977,36.923C8.267,34.147 10.17,31.907 11.083,29.194C11.583,27.87 11.831,26.428 12.242,24.994C12.623,23.567 13.07,22.161 13.539,20.764C14.484,17.973 15.574,15.232 16.843,12.574C18.117,9.922 19.564,7.34 21.334,4.984C23.102,2.655 25.23,0.471 27.931,-0.729C25.266,0.549 23.224,2.772 21.536,5.132C19.848,7.517 18.486,10.118 17.297,12.784C16.113,15.454 15.11,18.204 14.252,20.994C13.828,22.391 13.425,23.795 13.089,25.212C12.904,25.919 12.772,26.627 12.608,27.343L12.352,28.439L12.027,29.521C11.125,32.438 9.215,34.844 8.121,37.428C7.561,38.727 7.195,40.096 6.984,41.5C6.86,42.205 6.821,42.899 6.735,43.635C6.664,44.381 6.587,45.126 6.471,45.862C6.048,48.815 5.351,51.698 4.571,54.552C3.775,57.406 2.886,60.209 1.862,63.01L0,62.281Z" style="fill:rgb(52,133,121);fill-rule:nonzero;"/></g><g transform="matrix(1,0,0,1,187.105,178.6)"><path d="M0,-14.534C0.698,-12.141 1.426,-9.759 2.18,-7.388C2.573,-6.208 2.953,-5.025 3.379,-3.861C3.812,-2.703 4.266,-1.534 4.879,-0.499L4.521,-0.569C5.54,-1.3 6.567,-2.02 7.608,-2.722C8.652,-3.417 9.692,-4.12 10.771,-4.763C12.912,-6.069 15.109,-7.3 17.417,-8.284C16.297,-7.722 15.218,-7.085 14.151,-6.433C13.078,-5.792 12.021,-5.124 10.977,-4.437C8.887,-3.066 6.824,-1.653 4.814,-0.165L4.591,0L4.456,-0.235C3.812,-1.354 3.378,-2.529 2.953,-3.706C2.542,-4.888 2.152,-6.075 1.814,-7.277C1.122,-9.674 0.521,-12.096 0,-14.534" style="fill:rgb(52,133,121);fill-rule:nonzero;"/></g><g transform="matrix(1,0,0,1,167.59,122.983)"><path d="M0,78.124C-0.292,77.832 -0.404,77.654 -0.566,77.424C-0.719,77.205 -0.833,76.985 -0.966,76.765C-1.19,76.32 -1.404,75.874 -1.562,75.419C-1.911,74.514 -2.133,73.593 -2.316,72.673C-2.646,70.83 -2.786,68.981 -2.763,67.15C-2.748,63.481 -2.233,59.875 -1.53,56.332C-0.802,52.802 -0.021,49.26 1.36,45.863C2.04,44.172 2.877,42.557 3.628,40.958C4.392,39.36 4.988,37.716 5.427,36.007C6.157,32.525 7.166,29.012 8.396,25.647C9.622,22.267 11.038,18.954 12.704,15.768C14.373,12.587 16.279,9.516 18.573,6.745C20.863,3.994 23.591,1.512 26.856,0C23.626,1.585 20.975,4.114 18.76,6.897C16.544,9.7 14.721,12.792 13.135,15.987C11.552,19.186 10.221,22.507 9.08,25.886C7.933,29.28 7.021,32.686 6.376,36.236C5.975,38.009 5.394,39.764 4.658,41.42C3.934,43.084 3.165,44.677 2.556,46.329C1.333,49.618 0.642,53.127 -0.009,56.616C-0.626,60.105 -1.05,63.638 -0.99,67.139C-0.976,68.889 -0.801,70.624 -0.466,72.299C-0.283,73.13 -0.065,73.952 0.248,74.713C0.392,75.103 0.576,75.459 0.76,75.811C0.864,75.971 0.959,76.148 1.066,76.294C1.159,76.431 1.313,76.615 1.34,76.639L0,78.124Z" style="fill:rgb(52,133,121);fill-rule:nonzero;"/></g><g transform="matrix(1,0,0,1,162.666,177.63)"><path d="M0,-16.48C0.726,-13.758 1.485,-11.046 2.276,-8.347C2.691,-7.004 3.085,-5.655 3.541,-4.328C4.006,-3.014 4.478,-1.667 5.173,-0.507L4.813,-0.569C6.638,-1.937 8.438,-3.335 10.243,-4.73L12.938,-6.836C13.839,-7.535 14.737,-8.239 15.605,-8.98C13.977,-7.377 12.242,-5.886 10.483,-4.429C8.725,-2.971 6.92,-1.572 5.115,-0.172L4.892,0L4.755,-0.235C4.014,-1.503 3.571,-2.845 3.11,-4.184C2.673,-5.527 2.267,-6.879 1.908,-8.244C1.179,-10.968 0.548,-13.716 0,-16.48" style="fill:rgb(52,133,121);fill-rule:nonzero;"/></g><g transform="matrix(1,0,0,1,167.425,166.698)"><path d="M0,-15.024C0.247,-12.544 0.623,-10.08 1.072,-7.636C1.545,-5.197 2.089,-2.77 2.882,-0.423L2.54,-0.563C5.048,-1.861 7.511,-3.258 9.867,-4.819C11.051,-5.59 12.212,-6.398 13.315,-7.279C14.407,-8.161 15.538,-9.058 16.27,-10.282C15.611,-9.013 14.528,-8.029 13.479,-7.082C12.397,-6.156 11.256,-5.302 10.092,-4.485C8.924,-3.672 7.718,-2.918 6.495,-2.191C5.27,-1.471 4.035,-0.763 2.761,-0.128L2.504,0L2.419,-0.268C1.66,-2.66 1.085,-5.103 0.712,-7.574C0.32,-10.042 0.082,-12.532 0,-15.024" style="fill:rgb(52,133,121);fill-rule:nonzero;"/></g><g transform="matrix(1,0,0,1,173.07,155.797)"><path d="M0,-13.16C-0.073,-11.003 -0.001,-8.847 0.178,-6.708C0.394,-4.577 0.704,-2.438 1.451,-0.448L1.099,-0.573C2.112,-1.202 3.12,-1.844 4.069,-2.574C5.02,-3.3 5.942,-4.066 6.833,-4.868C7.73,-5.664 8.601,-6.493 9.44,-7.353C10.289,-8.203 11.12,-9.076 11.902,-9.993C10.472,-8.05 8.854,-6.245 7.104,-4.574C6.236,-3.731 5.3,-2.96 4.35,-2.207C3.394,-1.462 2.393,-0.769 1.346,-0.151L1.09,0L0.993,-0.276C0.263,-2.349 -0.071,-4.518 -0.188,-6.681C-0.309,-8.846 -0.24,-11.014 0,-13.16" style="fill:rgb(52,133,121);fill-rule:nonzero;"/></g><g transform="matrix(1,0,0,1,178.265,143.329)"><path d="M0,-7.303C-0.211,-6.129 -0.307,-4.943 -0.283,-3.768C-0.235,-2.596 -0.077,-1.425 0.368,-0.361L0.104,-0.504C0.816,-0.659 1.515,-0.937 2.2,-1.24C2.886,-1.546 3.55,-1.909 4.205,-2.289C5.528,-3.027 6.801,-3.863 8.077,-4.701C6.941,-3.678 5.71,-2.762 4.42,-1.931C3.768,-1.526 3.099,-1.144 2.4,-0.812C1.703,-0.478 0.979,-0.176 0.192,-0.035L-0.004,0L-0.073,-0.178C-0.515,-1.332 -0.688,-2.562 -0.632,-3.769C-0.587,-4.975 -0.383,-6.171 0,-7.303" style="fill:rgb(52,133,121);fill-rule:nonzero;"/></g><g transform="matrix(1,0,0,1,181.864,217.559)"><path d="M0,-24.268C0,-24.268 9.542,-33.928 12.193,-27.508C14.843,-21.087 3.711,-6.244 -14.578,-3.196C-32.867,-0.147 -29.156,9.66 -29.156,9.66C-29.156,9.66 -37.992,3.298 -29.466,-13.4C-20.939,-30.1 -5.831,-31.16 0,-24.268" style="fill:rgb(52,133,121);fill-rule:nonzero;"/></g><g transform="matrix(1,0,0,1,182.074,219.402)"><path d="M0,-25.611C-0.236,-25.661 -0.72,-25.64 -1.101,-25.548C-1.507,-25.469 -1.911,-25.33 -2.311,-25.177C-3.106,-24.85 -3.872,-24.418 -4.61,-23.939C-6.086,-22.972 -7.434,-21.788 -8.707,-20.534C-9.36,-19.922 -9.947,-19.248 -10.579,-18.603C-11.207,-17.931 -11.881,-17.304 -12.594,-16.727C-14.024,-15.577 -15.599,-14.636 -17.213,-13.811C-20.419,-12.148 -23.88,-10.908 -26.537,-8.461C-27.86,-7.259 -28.916,-5.762 -29.633,-4.116C-30.359,-2.47 -30.8,-0.704 -31.053,1.081C-30.842,-0.71 -30.441,-2.489 -29.749,-4.166C-29.064,-5.841 -28.028,-7.389 -26.709,-8.645C-24.058,-11.2 -20.578,-12.537 -17.449,-14.256C-15.871,-15.11 -14.353,-16.067 -12.994,-17.213C-11.629,-18.34 -10.529,-19.758 -9.24,-21.067C-7.973,-22.373 -6.624,-23.617 -5.1,-24.666C-4.337,-25.186 -3.537,-25.665 -2.669,-26.044C-2.231,-26.224 -1.783,-26.391 -1.304,-26.496C-0.809,-26.599 -0.375,-26.692 0.279,-26.571L0,-25.611Z" style="fill:rgb(37,95,86);fill-rule:nonzero;"/></g><g transform="matrix(1,0,0,1,151.355,215.198)"><path d="M0,-6.411C0.68,-6.78 1.422,-7.017 2.164,-7.237C2.912,-7.441 3.675,-7.585 4.441,-7.703C5.977,-7.927 7.534,-7.962 9.083,-7.911L9.431,-7.9L9.302,-7.574C8.709,-6.08 8.165,-4.568 7.64,-3.048C7.115,-1.528 6.618,0.002 6.167,1.551C6.41,-0.047 6.819,-1.615 7.267,-3.167C7.73,-4.716 8.264,-6.243 8.84,-7.754L9.059,-7.416C8.297,-7.453 7.534,-7.475 6.771,-7.458C6.008,-7.442 5.247,-7.392 4.486,-7.329C2.97,-7.176 1.449,-6.933 0,-6.411" style="fill:rgb(37,95,86);fill-rule:nonzero;"/></g><g transform="matrix(1,0,0,1,156.417,212.299)"><path d="M0,-11.482C2.322,-11.773 4.662,-11.93 7.008,-11.933C8.182,-11.938 9.356,-11.877 10.529,-11.761C11.698,-11.633 12.883,-11.484 14.014,-11.036L14.18,-10.97L14.168,-10.797C14.101,-9.802 14.009,-8.809 13.866,-7.822C13.712,-6.836 13.535,-5.852 13.254,-4.893C12.984,-3.933 12.676,-2.981 12.257,-2.074C11.828,-1.176 11.345,-0.29 10.688,0.456C11.286,-0.336 11.695,-1.246 12.05,-2.161C12.404,-3.079 12.683,-4.024 12.903,-4.982C13.13,-5.939 13.281,-6.912 13.426,-7.883C13.554,-8.858 13.631,-9.839 13.683,-10.822L13.837,-10.584C12.778,-10.973 11.625,-11.165 10.479,-11.299C9.328,-11.433 8.165,-11.494 7.001,-11.528C4.674,-11.603 2.337,-11.571 0,-11.482" style="fill:rgb(37,95,86);fill-rule:nonzero;"/></g><g transform="matrix(1,0,0,1,165.7,208.672)"><path d="M0,-16.355C0.987,-16.47 1.989,-16.351 2.977,-16.253C3.967,-16.135 4.948,-15.949 5.919,-15.721C7.869,-15.285 9.752,-14.585 11.573,-13.761L11.649,-13.727L11.686,-13.651C12.207,-12.585 12.663,-11.484 12.97,-10.337C13.309,-9.2 13.503,-8.022 13.604,-6.843C13.772,-4.484 13.508,-2.077 12.655,0.115C13.004,-1.005 13.174,-2.168 13.256,-3.329C13.345,-4.488 13.34,-5.655 13.198,-6.806C13.064,-7.956 12.873,-9.103 12.521,-10.207C12.212,-11.324 11.732,-12.381 11.253,-13.433L11.366,-13.323C9.591,-14.177 7.728,-14.835 5.83,-15.372C4.881,-15.643 3.915,-15.852 2.943,-16.033C1.974,-16.203 0.988,-16.396 0,-16.355" style="fill:rgb(37,95,86);fill-rule:nonzero;"/></g><g transform="matrix(1,0,0,1,180.663,202.567)"><path d="M0,-9.542C1.089,-9.228 2.097,-8.77 3.061,-8.214C4.019,-7.653 4.908,-6.968 5.656,-6.146C6.407,-5.324 6.949,-4.323 7.261,-3.268C7.616,-2.209 7.543,-1.081 7.441,0C7.502,-1.087 7.53,-2.205 7.141,-3.231C6.795,-4.255 6.231,-5.206 5.473,-5.976C4.716,-6.747 3.828,-7.377 2.878,-7.887C1.929,-8.389 0.909,-8.802 -0.117,-9.056L0,-9.542Z" style="fill:rgb(37,95,86);fill-rule:nonzero;"/></g><g transform="matrix(-0.981643,0.190728,0.190728,0.981643,198.3,255.165)"><path d="M9.164,-23.262C9.164,-23.262 5.457,-30.384 -0.973,-25.358C-7.402,-20.334 -5.457,-2.85 9.164,7.378C8.473,0.833 8.827,-2.576 13.088,-9.793C17.35,-17.01 14.42,-23.121 9.164,-23.262" style="fill:rgb(68,174,158);fill-rule:nonzero;"/></g><g transform="matrix(1,0,0,1,184.987,261.902)"><path d="M0,-28.243C1.372,-27.899 2.619,-27.301 3.742,-26.48C4.85,-25.653 5.785,-24.555 6.332,-23.27C6.884,-21.988 7.047,-20.572 6.933,-19.209C6.795,-17.883 6.855,-16.565 7.104,-15.258C7.576,-12.65 8.819,-10.161 8.928,-7.425C8.994,-6.068 8.719,-4.712 8.212,-3.465C7.693,-2.22 6.98,-1.069 6.171,0C6.956,-1.088 7.639,-2.253 8.125,-3.499C8.599,-4.748 8.837,-6.087 8.742,-7.415C8.577,-10.093 7.288,-12.526 6.738,-15.184C6.452,-16.508 6.356,-17.894 6.468,-19.243C6.556,-20.55 6.376,-21.875 5.845,-23.056C4.786,-25.441 2.345,-26.998 -0.132,-27.591L0,-28.243Z" style="fill:rgb(52,133,121);fill-rule:nonzero;"/></g><g transform="matrix(1,0,0,1,196.696,252.46)"><path d="M0,3.186C-0.391,2.309 -0.96,1.535 -1.572,0.811C-2.202,0.101 -2.87,-0.577 -3.61,-1.174L-3.36,-1.232C-4.304,0.842 -5.346,2.885 -6.67,4.746C-5.598,2.736 -4.592,0.704 -3.654,-1.364L-3.564,-1.56L-3.404,-1.421C-2.671,-0.791 -1.972,-0.112 -1.386,0.659C-0.802,1.426 -0.277,2.261 0,3.186" style="fill:rgb(52,133,121);fill-rule:nonzero;"/></g><g transform="matrix(1,0,0,1,198.274,245.353)"><path d="M0,3.99C-1.012,2.948 -2.059,1.942 -3.15,0.994C-3.7,0.525 -4.253,0.061 -4.841,-0.352C-5.426,-0.763 -6.039,-1.155 -6.698,-1.38L-6.52,-1.429C-6.97,-0.9 -7.407,-0.361 -7.822,0.197C-8.229,0.759 -8.624,1.331 -8.988,1.921C-9.355,2.51 -9.693,3.118 -9.979,3.751C-10.271,4.379 -10.534,5.031 -10.655,5.72C-10.587,5.022 -10.372,4.345 -10.126,3.688C-9.869,3.033 -9.55,2.405 -9.206,1.792C-8.512,0.568 -7.67,-0.565 -6.772,-1.643L-6.7,-1.73L-6.593,-1.693C-5.874,-1.443 -5.258,-1.026 -4.664,-0.599C-4.074,-0.163 -3.506,0.298 -2.978,0.802C-1.907,1.793 -0.919,2.864 0,3.99" style="fill:rgb(52,133,121);fill-rule:nonzero;"/></g><g transform="matrix(1,0,0,1,197.612,241.382)"><path d="M0,0.269C-0.431,-0.176 -0.975,-0.497 -1.499,-0.821C-2.033,-1.135 -2.572,-1.439 -3.134,-1.698C-4.254,-2.22 -5.416,-2.648 -6.611,-2.949L-6.51,-2.957C-8.002,-2.272 -9.421,-1.405 -10.635,-0.289C-11.256,0.251 -11.825,0.853 -12.347,1.493C-12.87,2.131 -13.363,2.803 -13.752,3.538C-13.073,2.016 -12.034,0.662 -10.825,-0.496C-10.208,-1.063 -9.556,-1.596 -8.849,-2.049C-8.156,-2.527 -7.401,-2.902 -6.635,-3.246L-6.586,-3.269L-6.534,-3.254C-5.323,-2.928 -4.138,-2.492 -3.032,-1.902C-2.477,-1.613 -1.936,-1.297 -1.424,-0.938C-0.921,-0.572 -0.399,-0.21 0,0.269" style="fill:rgb(52,133,121);fill-rule:nonzero;"/></g><g transform="matrix(1,0,0,1,197.313,240.436)"><path d="M0,-5.885C-1.31,-7.066 -3.104,-7.571 -4.822,-7.566C-6.562,-7.576 -8.261,-7.039 -9.813,-6.279C-10.597,-5.902 -11.327,-5.442 -11.962,-4.852C-12.62,-4.294 -13.2,-3.642 -13.67,-2.917C-14.624,-1.482 -15.234,0.211 -15.333,1.964C-15.391,0.206 -14.864,-1.573 -13.913,-3.075C-13.438,-3.829 -12.85,-4.512 -12.179,-5.098C-11.525,-5.712 -10.747,-6.171 -9.948,-6.552C-8.359,-7.323 -6.605,-7.849 -4.819,-7.78C-3.054,-7.754 -1.251,-7.125 0,-5.885" style="fill:rgb(52,133,121);fill-rule:nonzero;"/></g></g><g><g><path d="M2893.95,2080.82C2892.82,2078.9 2888.07,2081.87 2886.57,2082.37C2882.43,2083.75 2876.04,2084.38 2872.81,2087.81C2870.45,2090.32 2873.91,2099.92 2877.05,2101.23C2896.2,2109.22 2924.22,2113.19 2945.13,2113.19C2949.15,2113.19 2965.62,2109.73 2966.62,2115.86C2966.95,2117.95 2966.67,2119.59 2964.08,2119.46C2960.39,2119.27 2957.54,2115.78 2953.44,2116.2C2945.48,2117.03 2937.85,2120.75 2929.83,2121.79C2928.2,2122 2914.83,2122.7 2918.24,2127.89C2921.58,2132.95 2928.6,2132.68 2933.83,2133.14C2948.1,2134.4 2964.82,2136.27 2979.06,2133.96C2982.87,2133.34 2994.48,2132.38 2994.77,2131.82C2999.92,2121.78 2992.27,2107.12 2984.22,2101.3C2974.87,2094.55 2964.09,2090.12 2954.04,2084.56C2939.56,2076.56 2924.43,2066.53 2907.22,2068.24" style="fill:rgb(104,173,227);"/><path d="M2815.35,2079.61C2815.21,2079.48 2815.18,2079.27 2815.26,2079.1C2815.34,2078.93 2815.51,2078.82 2815.7,2078.84C2819.56,2079.21 2830.74,2080.29 2830.74,2080.29L2864.41,2089.24L2931.06,2108.34C2931.06,2108.34 2939.76,2118.61 2933.9,2130.09C2928.05,2141.58 2917.56,2137.49 2917.56,2137.49L2857.07,2108.01L2826.72,2090.51C2826.72,2090.51 2818.22,2082.36 2815.35,2079.61Z" style="fill:rgb(236,97,152);"/><path d="M2816.53,2080.74C2816.22,2080.44 2816.13,2079.98 2816.31,2079.59C2816.49,2079.19 2816.91,2078.96 2817.34,2079C2822.03,2079.45 2830.74,2080.29 2830.74,2080.29L2864.41,2089.24L2931.06,2108.34C2931.06,2108.34 2939.76,2118.61 2933.9,2130.09C2928.05,2141.58 2917.56,2137.49 2917.56,2137.49L2857.07,2108.01L2826.72,2090.51C2826.72,2090.51 2820.05,2084.12 2816.53,2080.74Z" style="fill:rgb(236,97,152);"/><path d="M2816.32,2080.44C2816.56,2080.67 2816.81,2080.91 2817.08,2081.14C2824,2087.28 2834.96,2089.29 2843.2,2093.12C2851.47,2096.97 2860.12,2099.54 2868.77,2102.38C2878.9,2105.71 2888.49,2110.58 2898.1,2115.11C2903.56,2117.68 2909.27,2119.95 2914.32,2123.27C2919.81,2126.89 2923.55,2131.82 2927.2,2137.05C2922.31,2139.34 2917.56,2137.49 2917.56,2137.49L2857.07,2108.01L2826.72,2090.51C2826.72,2090.51 2820.05,2084.12 2816.53,2080.74C2816.44,2080.66 2816.37,2080.55 2816.32,2080.44Z" style="fill:url(#_Linear4);"/><g transform="matrix(1,0,0,1,-3.36702,-0.86575)"><ellipse cx="2927.18" cy="2123.53" rx="12.579" ry="16.265" style="fill:rgb(229,40,115);"/></g><path d="M2924.83,2138.87C2924.49,2138.91 2924.16,2138.93 2923.82,2138.93C2916.87,2138.93 2911.24,2131.64 2911.24,2122.66C2911.24,2113.68 2916.87,2106.4 2923.82,2106.4C2924.24,2106.4 2924.66,2106.42 2925.07,2106.47C2918.6,2107.14 2913.5,2114.15 2913.5,2122.69C2913.5,2131.12 2918.47,2138.06 2924.83,2138.87Z" style="fill:rgb(255,194,218);"/><path d="M3071.88,2171.16C3064.62,2163.3 3060.28,2151.83 3055.69,2142.37C3049.64,2129.92 3042.28,2117.96 3035.61,2105.82C3029.84,2095.31 3025.98,2083.46 3017.7,2074.43C3013.05,2069.37 3003.88,2071.78 2997.99,2070.76C2994.79,2070.2 2991.83,2068.73 2988.71,2067.86C2985.58,2066.99 2982.82,2065.07 2979.7,2064.14C2969.07,2060.97 2958.02,2058.68 2947.29,2055.64C2941.51,2053.99 2934.69,2049.89 2928.51,2050.6C2916.7,2051.94 2905.81,2059.81 2894.95,2064C2891.97,2065.15 2888.26,2064.85 2885.16,2065.67C2876.29,2068.03 2865.72,2069.98 2856.58,2070.7C2853.77,2070.92 2846.09,2070.39 2844.15,2072.81C2837.53,2081.11 2852.24,2089.53 2857.97,2090.76C2874.41,2094.28 2891.81,2090.3 2908.09,2094.08C2916.43,2096.02 2923.9,2101.45 2929.76,2107.42C2936.54,2114.31 2941.59,2121.4 2945.22,2130.46C2946.17,2132.84 2948.15,2138.78 2945.76,2140.91C2941.81,2144.44 2933.62,2144.34 2928.78,2144.85C2922.97,2145.46 2916.23,2146.81 2910.51,2144.98C2906.21,2143.61 2903.58,2139.91 2900.29,2137.07C2891.88,2129.83 2886.43,2119.17 2877.4,2112.55C2873.57,2109.74 2855.19,2104.89 2856.05,2114.62C2857.51,2131.02 2870.77,2144.88 2879.41,2157.78C2891.39,2175.66 2907.14,2188.63 2923.71,2202.03C2943.32,2217.89 2963.57,2233.31 2985.78,2245.43C2999.36,2252.84 3012.78,2260.91 3028.23,2263.35C3034.8,2264.39 3042.06,2265.05 3046.69,2259.18" style="fill:rgb(255,199,135);"/><path d="M3067.09,2164.92C3068.15,2166.55 3069.28,2168.11 3070.49,2169.57C3069.37,2175.34 3068.31,2181.11 3067.37,2186.92L3046.69,2259.18C3042.06,2265.05 3034.8,2264.39 3028.23,2263.35C3012.78,2260.91 2999.36,2252.84 2985.78,2245.43C2963.57,2233.31 2943.32,2217.89 2923.71,2202.03C2917.12,2196.7 2910.67,2191.44 2904.53,2185.92C2914.01,2189 2924.15,2190.71 2933.51,2193.5C2943.66,2196.53 2952.29,2202.96 2960.86,2208.93C2972,2216.69 2983.24,2223.4 2995.08,2229.93C3000.94,2233.16 3007.8,2238.46 3014.96,2237.22C3015.57,2237.11 3020.27,2223.63 3022.3,2219.85C3030.8,2204.03 3042.78,2187.96 3055.72,2175.51C3059.41,2171.96 3063.04,2168.09 3067.09,2164.92Z" style="fill:rgb(255,171,101);"/><path d="M2844.88,2082.82C2845.28,2083.02 2845.68,2083.21 2846.06,2083.4C2859.38,2089.98 2877.38,2086.97 2891.5,2085.33C2893.65,2085.08 2898.74,2084.62 2900.61,2083.34C2902.03,2082.37 2899.98,2078.38 2902.49,2078.34C2906.82,2078.27 2905.36,2086.93 2908.45,2088.74C2918.55,2094.68 2933.54,2098.8 2941.39,2108.08C2946.22,2113.8 2949.47,2121.39 2953.49,2127.65C2956.45,2132.28 2959.24,2137.58 2963.03,2141.63C2963.58,2142.21 2966.45,2145.45 2966.06,2146.3C2964.23,2150.3 2956.46,2144.76 2953.79,2145.03C2948.24,2145.59 2940.32,2150.84 2933.78,2152.06C2926.37,2153.43 2918.85,2157.82 2911.18,2156.35C2899.39,2154.09 2895.2,2143.47 2886.82,2136.72C2877.17,2128.96 2866.59,2123.16 2856.31,2116.75C2856.2,2116.05 2856.12,2115.34 2856.05,2114.62C2855.19,2104.89 2873.57,2109.74 2877.4,2112.55C2886.43,2119.17 2891.88,2129.83 2900.29,2137.07C2903.58,2139.91 2906.21,2143.61 2910.51,2144.98C2916.23,2146.81 2922.97,2145.46 2928.78,2144.85C2933.62,2144.34 2941.81,2144.44 2945.76,2140.91C2948.15,2138.78 2946.17,2132.84 2945.22,2130.46C2941.59,2121.4 2936.54,2114.31 2929.76,2107.42C2923.9,2101.45 2916.43,2096.02 2908.09,2094.08C2891.81,2090.3 2874.41,2094.28 2857.97,2090.76C2854.66,2090.05 2848.34,2086.93 2844.88,2082.82Z" style="fill:rgb(255,171,101);"/></g><path d="M3233.82,2225.26C3207.91,2219.65 3183.88,2209.41 3158.55,2202.06C3145.96,2198.41 3132.76,2195.75 3120.64,2190.61C3107.21,2184.89 3094.99,2175.88 3081.9,2169.34C3078.49,2167.64 3071.8,2162.76 3067.85,2162.95C3066.62,2163.01 3047.54,2185.88 3045.89,2187.93C3024.62,2214.35 3003.64,2258.04 3016.62,2292.91C3020.25,2302.68 3024.62,2315.25 3032,2322.92C3045.59,2337.04 3076.82,2344.16 3094.36,2352.19C3105.16,2357.14 3107.48,2364.29 3111.04,2366.08C3128.49,2374.8 3147.74,2380.3 3165.87,2387.54C3179.08,2392.82 3192.17,2398.66 3205.87,2402.5C3208.45,2403.22 3216.28,2407.2 3219.08,2405.11C3225.23,2400.51 3229.17,2385.07 3232.29,2378.37C3245.76,2349.43 3254.29,2315.98 3254.37,2283.95" style="fill:rgb(54,87,149);"/><path d="M3013.62,2281.74C3014.28,2285.54 3015.26,2289.27 3016.62,2292.91C3020.25,2302.68 3024.62,2315.25 3032,2322.92C3045.59,2337.04 3076.82,2344.16 3094.36,2352.19C3105.16,2357.14 3107.48,2364.29 3111.04,2366.08C3128.49,2374.8 3147.74,2380.3 3165.87,2387.54C3179.08,2392.82 3192.17,2398.66 3205.87,2402.5C3208.45,2403.22 3216.28,2407.2 3219.08,2405.11C3225.23,2400.51 3229.17,2385.07 3232.29,2378.37C3243.01,2355.34 3250.6,2329.45 3253.29,2303.7C3203.78,2308.71 3148.51,2319.26 3109.76,2307.77C3087.79,2301.26 3085.9,2280.22 3076.47,2261.76C3073.71,2256.35 3071.21,2250.55 3069.05,2244.89C3067.96,2242.05 3066.32,2234.2 3064.81,2236.83C3059.73,2245.71 3064.22,2278.96 3065.22,2289.51C3065.48,2292.2 3068.29,2306.89 3064.07,2307.83C3063.42,2307.97 3023.6,2297.76 3021.64,2296.34C3017.71,2293.49 3017.05,2289.02 3015.04,2284.87C3014.77,2284.31 3014.27,2283.2 3013.62,2281.74Z" style="fill:rgb(43,70,120);"/><path d="M3084.14,2242.05C3082.82,2234.01 3086.43,2225.62 3089.54,2218.31C3089.98,2217.28 3095.11,2206.94 3095.34,2208.05C3098.68,2223.9 3091.45,2241.23 3088.92,2256.68C3088.16,2261.33 3087.07,2271.05 3086.91,2271.06C3085.93,2271.12 3085.18,2265.87 3085.13,2265.72C3083.32,2259.81 3082.25,2253.72 3081.73,2247.58" style="fill:rgb(43,70,120);"/><path d="M3205.9,2296.62C3195.74,2266.11 3228.3,2097.72 3238.38,2054.96C3254.42,1986.94 3312.45,1938.86 3366.59,1897.42C3405.98,1867.27 3533.17,1779.49 3580.99,1776.94C3583.09,1776.83 3578.83,1781.35 3580.39,1783.03C3590.32,1793.73 3606.86,1799.59 3617.68,1810.49C3627.16,1820.02 3632.29,1834.66 3639.17,1846.11C3714.94,1972.22 3757.07,2123.78 3757.08,2271.32C3757.08,2280.31 3758.34,2449.38 3728.57,2445.2" style="fill:rgb(54,87,149);"/><path d="M3384.47,1884.18C3435.62,1847.26 3538.96,1779.18 3580.99,1776.94C3583.09,1776.83 3578.83,1781.35 3580.39,1783.03C3590.32,1793.73 3606.86,1799.59 3617.68,1810.49C3625.73,1818.58 3630.64,1830.34 3636.14,1840.72C3638.65,1848.68 3639.81,1854.52 3638.78,1856.51C3638.68,1856.71 3618.53,1840.97 3613.87,1839.23C3595.48,1832.4 3566.6,1831.74 3548.98,1840.71C3473.21,1879.27 3423.89,1942.43 3372.34,2007.43C3341.36,2046.49 3302.21,2077.87 3273.06,2118.61C3261.74,2134.44 3249.63,2149.78 3239.78,2166.58C3238.86,2168.13 3232.52,2182.49 3230.34,2181.84C3228.6,2181.31 3232.3,2159.95 3236.52,2138.85C3239.16,2125.61 3239.67,2079.37 3256.77,2073.86L3279.57,2016.23C3295.72,1990.09 3315.73,1967.19 3335.73,1944.06C3350.15,1927.38 3363.07,1909.43 3377.31,1892.58C3379.7,1889.76 3382.08,1886.96 3384.47,1884.18Z" style="fill:rgb(43,70,120);"/><path d="M2956.33,1444.23C2937.74,1465.67 2923.73,1525.11 2949.08,1545.57C2972.51,1564.48 2996.36,1547.21 3019.64,1551.12C3026.2,1552.22 3057.91,1577.2 3064.15,1581.78C3079.29,1592.89 3091.16,1606.43 3105.06,1618.81C3129.95,1640.96 3155.25,1661.31 3178.86,1685.03C3198.43,1704.69 3212.68,1731.88 3235.58,1747.65C3280.13,1778.35 3344.39,1779.2 3394.28,1761.26C3413.03,1754.52 3436.2,1745.94 3452.29,1733.72C3524.78,1678.63 3489.61,1639.12 3495.23,1560.57C3498.54,1514.27 3523.74,1456.38 3472.51,1420.7C3436.27,1395.46 3384.87,1394.22 3342.8,1388.79C3306.56,1384.1 3270.59,1382.89 3234.1,1382.15C3131.76,1380.08 3059.28,1361.58 2972.61,1422.83" style="fill:rgb(54,87,149);"/><path d="M2943.68,1466.5C2949.72,1466.07 2955.32,1465.38 2959.76,1464.88C3024.74,1457.54 3087.9,1440.41 3152.5,1432.17C3194.87,1426.76 3247.89,1424.83 3289.21,1437.24C3309.9,1443.44 3328.75,1451.8 3348.63,1459.95C3350.17,1460.58 3353.95,1461.42 3354.95,1459.56C3356.23,1457.17 3360.85,1477.52 3354.22,1475.67C3332.52,1469.65 3303.85,1448.95 3279.93,1462.39C3259.74,1473.72 3254.52,1580.05 3281.37,1598.73C3312.1,1620.11 3378.48,1649.92 3415.26,1634.15C3428.54,1628.45 3444.97,1598.04 3450.72,1585.7C3453.99,1578.69 3459.72,1573.92 3463.68,1567.46C3464.83,1565.57 3465.37,1560.2 3466.99,1561.7C3471.82,1566.2 3464.42,1582.74 3468.76,1590.15C3469.34,1591.15 3473.76,1599.81 3476.21,1597.11C3485.3,1587.06 3497.7,1512.23 3504.27,1488.91C3503.58,1512.95 3496.83,1538.12 3495.23,1560.57C3489.61,1639.12 3524.78,1678.63 3452.29,1733.72C3436.2,1745.94 3413.03,1754.52 3394.28,1761.26C3344.39,1779.2 3280.13,1778.35 3235.58,1747.65C3212.68,1731.88 3198.43,1704.69 3178.86,1685.03C3155.25,1661.31 3129.95,1640.96 3105.06,1618.81C3099.83,1614.15 3112.36,1661.63 3107.42,1656.83C3099.24,1648.88 3073.59,1588.71 3064.15,1581.78C3060.2,1578.88 3039.38,1582.52 3027.45,1574.61C3020.55,1570.04 3018.19,1551.69 3015.79,1551.29C2992.51,1547.38 2972.51,1564.48 2949.08,1545.57C2930.13,1530.27 2933.18,1493.2 2943.68,1466.5Z" style="fill:rgb(42,68,116);"/><path d="M3015.78,1550.75C3014.56,1559.99 3015.24,1572.79 3016.12,1582.01C3019.35,1616.22 3018.33,1645.6 3034.21,1681.77C3042.64,1700.98 3057.05,1722.79 3064.7,1743.13C3079.25,1781.84 3092.7,1820.19 3114.33,1855.84C3127.26,1877.16 3144.46,1928.93 3167.04,1940.39C3203.31,1958.8 3224.81,1916.18 3255.46,1921.28C3276.82,1924.83 3278.63,1975.29 3305.22,1973.73C3329.99,1972.28 3352.38,1946.84 3369.46,1931.28C3410.48,1893.93 3449.88,1857.08 3493.56,1822.99C3506.36,1812.99 3545.54,1787.5 3552.88,1774.56C3555.06,1770.71 3545.44,1751.46 3543.52,1747.3C3533.78,1726.16 3525.31,1702.66 3512.56,1683.2C3510.68,1680.33 3501.74,1666.7 3498.18,1666.29C3491.7,1665.53 3461.08,1688.91 3454.86,1692.65C3434.03,1705.18 3414.68,1722.01 3392.59,1732.14C3374.55,1740.41 3355.56,1745.05 3336.89,1751.48C3324.98,1755.57 3307.79,1763.88 3295.84,1757.65C3267.73,1742.99 3253.5,1711.3 3232.61,1689.21C3219.06,1674.88 3204.07,1661.99 3190,1648.16C3175.84,1634.24 3158.56,1624.95 3145.8,1609.8C3132.61,1594.16 3131.33,1553.98 3106.16,1550.73C3080.25,1547.38 3098.24,1607.34 3101.97,1622.01C3103.2,1626.8 3103.33,1643.99 3098.7,1637.05C3092.77,1628.18 3081.49,1593.62 3080.88,1590.96C3073.29,1557.62 3068.26,1585.04 3037.35,1570.48" style="fill:rgb(255,199,135);"/><path d="M3059.53,1725.97C3060.86,1734.45 3063,1742.61 3063.13,1751.33C3063.23,1757.82 3063.88,1764.23 3064.52,1770.67C3065.89,1784.42 3061.56,1823.81 3077.4,1831.59C3082.28,1833.99 3089.32,1832.42 3094.39,1831.76C3098.42,1831.24 3104.78,1829.66 3107.94,1826.92" style="fill:rgb(255,199,135);"/><g transform="matrix(0.440742,0,0,0.440742,1979.63,1319.06)"><path d="M2553.54,1138.72C2533.03,1140 2504.04,1142.52 2502.53,1144.14C2498.71,1148.29 2517.01,1152.26 2506.08,1156.79C2499.19,1159.64 2490.44,1157.52 2481.83,1156.17C2484.43,1158.96 2487.39,1161.24 2490.74,1162.89C2501.81,1168.33 2517.79,1164.77 2529.29,1163.28C2538.44,1162.08 2552.86,1158.5 2560.04,1152.28L2553.54,1138.72Z" style="fill:rgb(255,171,101);"/></g><path d="M3530.38,1717.34C3534.85,1727.41 3539.05,1737.61 3543.52,1747.3C3545.44,1751.46 3555.06,1770.71 3552.88,1774.56C3545.54,1787.5 3506.36,1812.99 3493.56,1822.99C3449.88,1857.08 3410.48,1893.93 3369.46,1931.28C3352.38,1946.84 3329.99,1972.28 3305.22,1973.73C3278.63,1975.29 3276.82,1924.83 3255.46,1921.28C3224.81,1916.18 3203.31,1958.8 3167.04,1940.39C3158,1935.8 3149.82,1924.74 3142.43,1911.77C3158.99,1930.17 3176.66,1938.54 3208.61,1925.67C3215.04,1923.08 3222.38,1922.59 3228.31,1918.72C3233.52,1915.32 3239.74,1911.18 3243.23,1905.88C3251.49,1893.36 3262.29,1836.01 3268.24,1817.24C3272.61,1803.48 3280.49,1782.82 3283.87,1783.88C3286.56,1784.73 3285.58,1794.59 3285.42,1796.56C3284.4,1809.54 3283.59,1822.98 3286.3,1835.84C3288.51,1846.28 3284.66,1935.03 3293.08,1942.82C3303.28,1952.26 3362.47,1879.92 3377.64,1874.33C3395.2,1867.86 3407.02,1846.66 3418.88,1833.38C3445.87,1803.16 3473.9,1774.46 3504.36,1747.61C3511.39,1741.41 3519.33,1734.82 3525.1,1727.47C3527.53,1724.37 3527.98,1720.42 3530.38,1717.34Z" style="fill:rgb(255,171,101);"/><path d="M3146.19,1617.83C3151.24,1639.19 3159.01,1659.9 3161.52,1681.86C3162.27,1688.41 3164.07,1695.66 3163.27,1702.3C3162.61,1707.74 3161.19,1714.76 3157.01,1718.56C3152.97,1722.25 3143.78,1720.89 3144.56,1728.79C3145.35,1736.75 3153.32,1753.39 3156.68,1761.11C3164.52,1779.14 3178.97,1800.7 3170.4,1777.41C3166.29,1766.22 3154.4,1751.6 3156.37,1738.87C3159.14,1720.87 3169.47,1706.17 3167.87,1687.04C3165.98,1664.38 3156.6,1640.89 3149.06,1619.62" style="fill:rgb(255,171,101);"/><path d="M3099.94,1588.2C3098.76,1589.25 3099.82,1591.88 3099.91,1593.16C3100.23,1598.11 3102.26,1601.86 3104.67,1606.15C3111.13,1617.65 3119.2,1628.08 3124.56,1640.2C3126.68,1644.99 3126.83,1650.39 3128.39,1655.32C3128.87,1656.87 3129.22,1658.46 3129.65,1660.03C3130.54,1663.28 3135.54,1675.06 3129.73,1677.21C3125.38,1678.82 3121.03,1676.03 3119.99,1671.67C3118.16,1663.97 3119.76,1656.21 3118.61,1648.59C3118.48,1647.76 3118.2,1646.88 3117.97,1646.08C3116.23,1640.02 3110.67,1650.91 3107.91,1645.28C3103.77,1636.83 3110.72,1629.71 3109.15,1621.25C3107.51,1612.4 3099.78,1605.69 3097.15,1597.1C3096.66,1595.48 3095.32,1588.24 3098.21,1588.2" style="fill:rgb(255,171,101);"/><g transform="matrix(0.440742,0,0,0.440742,1979.63,1319.06)"><path d="M2556.04,829.562C2546.51,828.117 2521.32,846.208 2532.59,857.385C2543.4,868.111 2562.78,860.663 2576.25,875.985C2584.14,884.951 2590.43,894.175 2600.44,901.023C2601.57,901.799 2611.45,908.988 2611.57,908.926C2614.57,907.285 2608.97,890.937 2606.73,887.869C2598.17,876.096 2584.51,868.912 2576.09,857.543C2570.16,849.531 2567.55,839.451 2560.99,831.959" style="fill:rgb(255,171,101);"/></g><path d="M3210.27,2002.02C3210.27,2002.02 3203.64,2018.56 3209.56,2031.59C3215.47,2044.62 3223.1,2107.56 3223.1,2107.56L3236.17,2129.48C3236.17,2129.48 3283.29,2052.72 3357.23,1977.76C3431.17,1902.8 3540.96,1818.41 3569.1,1807.12C3597.23,1795.83 3614.17,1805.24 3614.17,1805.24C3614.17,1805.24 3582.31,1741.38 3578.25,1734.04C3574.19,1726.69 3492.76,1752.57 3414.98,1803.45C3337.21,1854.34 3210.27,2002.02 3210.27,2002.02Z" style="fill:white;"/><path d="M3592.37,1761.72C3591.28,1764.83 3589.53,1767.83 3586.94,1770.66C3576.16,1782.4 3560.48,1790.08 3547.55,1799.08C3506.25,1827.83 3461.2,1854.43 3423.63,1888.3C3410.39,1900.23 3401.8,1919.89 3389.15,1933.32C3354.35,1970.25 3317.36,2004.95 3282.64,2041.81C3281.71,2042.8 3233.72,2097.31 3232.17,2097.96C3223.32,2101.66 3220.97,2067.31 3217.97,2063.66C3217.56,2063.16 3217.31,2064.43 3217.1,2065.31C3220.47,2085.86 3223.1,2107.56 3223.1,2107.56L3236.17,2129.48C3236.17,2129.48 3283.29,2052.72 3357.23,1977.76C3431.17,1902.8 3540.96,1818.41 3569.1,1807.12C3597.23,1795.83 3614.17,1805.24 3614.17,1805.24C3614.17,1805.24 3602.49,1781.83 3592.37,1761.72Z" style="fill:rgb(233,243,251);"/><path d="M3202.18,2221.37C3210.73,2179.85 3304.58,2058.66 3384.57,2008.54C3464.57,1958.42 3594.15,1902.57 3628.83,1944.9C3663.5,1987.23 3688.28,2030.15 3711.45,2083.85C3734.61,2137.55 3746.11,2340.49 3747.56,2356.04C3749.01,2371.58 3718.01,2422.18 3718.01,2422.18L3178.23,2419.93C3178.23,2419.93 3193.62,2262.89 3202.18,2221.37Z" style="fill:rgb(54,87,149);"/><path d="M3335.71,2045.93C3352.02,2031.43 3368.57,2018.57 3384.57,2008.54C3464.57,1958.42 3594.15,1902.57 3628.83,1944.9C3663.5,1987.23 3688.28,2030.15 3711.45,2083.85C3734.61,2137.55 3746.11,2340.49 3747.56,2356.04C3749.01,2371.58 3718.01,2422.18 3718.01,2422.18L3446.88,2421.05C3464.84,2355.74 3483.94,2290.61 3501.07,2225.01C3506.69,2203.46 3557.79,2026.47 3551.03,2008.78C3539.49,1978.58 3480.12,1993.99 3459,1999.09C3416.54,2009.34 3375.31,2025.9 3335.71,2045.93Z" style="fill:rgb(43,70,120);"/><g transform="matrix(0.440742,0,0,0.440742,1979.63,1319.06)"><path d="M3470.23,1810.6C3440.43,1893.08 3403.68,1970.48 3379.84,2055.32C3365.94,2104.78 3353.75,2154.77 3341.01,2204.48C3333.9,2232.26 3325.86,2260.18 3316.91,2287.42C3306.93,2317.78 3297.44,2350.38 3297.43,2382.35C3297.43,2393.94 3326.91,2382.81 3330.42,2376.43C3332.31,2372.99 3350.93,2297.23 3354.13,2287.17C3389.78,2175.05 3402.13,2055.64 3441.39,1944.56C3449.03,1922.95 3466.99,1825.21 3476.25,1812.77" style="fill:rgb(43,70,120);"/></g><g transform="matrix(0.440742,0,0,0.440742,1979.63,1319.06)"><path d="M3289.76,1592.5C3256.19,1572.18 3160.32,1636.81 3130.18,1658.36C3101.11,1679.14 3071.3,1700.32 3044.89,1724.42C3021.93,1745.37 2998.68,1765.76 2976.33,1787.37C2905.03,1856.26 2821.91,1949.66 2815.61,2054.12C2814.81,2067.46 2804.87,2130.93 2814.35,2140.7C2827.56,2154.33 2861.48,2110.45 2868.25,2103.28C2923.28,2044.96 2989.45,1994.06 3052.61,1945.04C3154.54,1865.91 3279.68,1804.9 3373.21,1717.5C3404.76,1688.02 3445.68,1653.52 3412.75,1612.59C3406.41,1604.7 3332.28,1592.31 3289.76,1592.5Z" style="fill:url(#_Linear5);"/></g><g transform="matrix(0.440742,0,0,0.440742,1979.63,1319.06)"><path d="M2465.96,1933.02C2454.16,1948.47 2439.65,1961.45 2428.02,1977.25C2417.54,1991.49 2408.81,2007.78 2399.79,2022.97C2396.59,2028.37 2378,2052.3 2384.9,2060.22C2390.82,2067.01 2431.74,2034.06 2438.93,2029.72C2465.44,2013.71 2472.64,2018.3 2500.63,2017.17C2506.9,2016.91 2512.87,2018.22 2518.99,2016.22C2533.28,2011.54 2537.04,1995.44 2546.45,1996.49C2584.72,2000.77 2614.7,2022.91 2648.54,2038.92C2665.01,2046.71 2684.15,2051.06 2701.73,2055.77C2730.71,2063.52 2748.38,2081.49 2763,2049.03C2767.39,2039.27 2729.13,2034.21 2722.25,2032.36C2696.44,2025.41 2672.87,2013.75 2647.76,2004.92C2629.36,1998.44 2610,1995.66 2591.66,1988.79C2562.02,1977.7 2510.97,1926.16 2479.43,1924.92" style="fill:url(#_Linear6);"/></g><g transform="matrix(0.440742,0,0,0.440742,1979.63,1319.06)"><path d="M2368.94,596.142C2359.63,636.521 2371.97,687.511 2383.49,726.267C2391.53,753.305 2393.19,782.864 2403.17,809.137C2412.47,833.642 2432.15,857.622 2451.39,875.1C2458.44,881.498 2465.35,888.025 2472.77,893.961C2473.4,894.467 2479.93,901.04 2479.95,900.98C2482.91,890.913 2467.3,851.264 2464.06,838.193C2452.91,793.132 2444.35,750.02 2438.67,704.082C2436.51,686.605 2441.22,656.194 2431.44,641.455C2424.53,631.043 2386.39,575.391 2371.25,579.784" style="fill:url(#_Linear7);"/></g><g transform="matrix(0.440742,0,0,0.440742,1976.07,1315.79)"><path d="M2467.74,984.89C2469.24,1008.01 2471.16,1031.06 2472.51,1054.18C2473.23,1066.5 2473.88,1078.82 2475.8,1091.02C2476.95,1098.3 2478.73,1105.53 2479.92,1112.79C2482.56,1128.75 2503.62,1151.81 2512.84,1126.01C2516.44,1115.94 2482.81,988.044 2471.55,982.881" style="fill:url(#_Linear8);"/></g><g transform="matrix(0.440742,0,0,0.440742,1979.63,1319.06)"><path d="M2553.09,544.052C2500.93,567.42 2579.21,643.841 2594.8,665.145C2607.25,682.146 2619.47,698.393 2632.31,714.791C2633.44,716.231 2634.56,719.654 2636.14,718.726C2647.48,712.059 2610.86,551.376 2560.74,541.588" style="fill:url(#_Linear9);"/></g><g transform="matrix(0.440742,0,0,0.440742,1979.63,1319.06)"><path d="M2288.76,1718.92C2264.43,1714.8 2188.83,1681.46 2166.47,1697.25C2146.45,1711.39 2224.09,1746.95 2236.16,1764C2254.76,1790.27 2376.74,1902.95 2402.73,1906.51C2464.05,1914.91 2374.58,1742.8 2333.83,1727.04" style="fill:url(#_Linear10);"/></g></g></g></g></g></g></g><defs><linearGradient id="_Linear2" x1="0" y1="0" x2="1" y2="0" gradientUnits="userSpaceOnUse" gradientTransform="matrix(-1969.26,1142.29,-1142.29,-1969.26,2497.48,976.387)"><stop offset="0" style="stop-color:black;stop-opacity:0"/><stop offset="1" style="stop-color:black;stop-opacity:1"/></linearGradient><linearGradient id="_Linear3" x1="0" y1="0" x2="1" y2="0" gradientUnits="userSpaceOnUse" gradientTransform="matrix(1163.48,-1175.81,1175.81,1163.48,2186.06,2248.36)"><stop offset="0" style="stop-color:white;stop-opacity:0"/><stop offset="1" style="stop-color:white;stop-opacity:1"/></linearGradient><linearGradient id="_Linear4" x1="0" y1="0" x2="1" y2="0" gradientUnits="userSpaceOnUse" gradientTransform="matrix(-24.7508,42.4712,-42.4712,-24.7508,2873.73,2099.85)"><stop offset="0" style="stop-color:rgb(236,97,152);stop-opacity:1"/><stop offset="1" style="stop-color:rgb(215,0,85);stop-opacity:1"/></linearGradient><linearGradient id="_Linear5" x1="0" y1="0" x2="1" y2="0" gradientUnits="userSpaceOnUse" gradientTransform="matrix(-470.286,-651.061,651.061,-470.286,3166.52,1916.11)"><stop offset="0" style="stop-color:white;stop-opacity:0"/><stop offset="1" style="stop-color:white;stop-opacity:1"/></linearGradient><linearGradient id="_Linear6" x1="0" y1="0" x2="1" y2="0.547452" gradientUnits="userSpaceOnUse" gradientTransform="matrix(-290.727,-167.647,402.48,-121.098,2603.6,2009.25)"><stop offset="0" style="stop-color:white;stop-opacity:0"/><stop offset="1" style="stop-color:white;stop-opacity:1"/></linearGradient><linearGradient id="_Linear7" x1="0" y1="0" x2="1" y2="0" gradientUnits="userSpaceOnUse" gradientTransform="matrix(-286.715,-137.995,137.995,-286.715,2507.8,797.022)"><stop offset="0" style="stop-color:white;stop-opacity:0"/><stop offset="1" style="stop-color:white;stop-opacity:1"/></linearGradient><linearGradient id="_Linear8" x1="0" y1="0" x2="1" y2="-1.13513" gradientUnits="userSpaceOnUse" gradientTransform="matrix(-34.7103,-181.596,48.0526,-131.173,2494.04,1074.23)"><stop offset="0" style="stop-color:white;stop-opacity:0"/><stop offset="1" style="stop-color:white;stop-opacity:1"/></linearGradient><linearGradient id="_Linear9" x1="0" y1="0" x2="1" y2="-0.659214" gradientUnits="userSpaceOnUse" gradientTransform="matrix(-78.6631,-208.09,108.901,-150.311,2594.99,646.266)"><stop offset="0" style="stop-color:white;stop-opacity:0"/><stop offset="1" style="stop-color:white;stop-opacity:1"/></linearGradient><linearGradient id="_Linear10" x1="0" y1="0" x2="1" y2="0" gradientUnits="userSpaceOnUse" gradientTransform="matrix(-68.0351,-321.743,321.743,-68.0351,2399.14,1857.87)"><stop offset="0" style="stop-color:white;stop-opacity:0"/><stop offset="1" style="stop-color:white;stop-opacity:1"/></linearGradient></defs></svg>