<svg id="Layer_1" data-name="Layer 1" xmlns="http://www.w3.org/2000/svg" xmlns:xlink="http://www.w3.org/1999/xlink" viewBox="0 0 4500 2500"><defs><style>.cls-1{fill:none;}.cls-2{fill:#aed3f0;}.cls-3{fill:#c3dcf3;}.cls-10,.cls-11,.cls-12,.cls-13,.cls-14,.cls-15,.cls-21,.cls-22,.cls-24,.cls-25,.cls-26,.cls-27,.cls-28,.cls-29,.cls-3,.cls-30,.cls-31,.cls-32,.cls-33,.cls-34,.cls-35,.cls-36,.cls-5,.cls-6,.cls-7,.cls-8,.cls-9{fill-rule:evenodd;}.cls-4{clip-path:url(#clip-path);}.cls-5{fill:url(#linear-gradient);}.cls-6{fill:#60a2e0;}.cls-7{fill:#dbeaf8;}.cls-8{fill:#adcfef;}.cls-9{fill:#ec6198;}.cls-10,.cls-20{fill:#44ae9e;}.cls-11{fill:#f7da61;}.cls-12{fill:#263e6a;}.cls-13{fill:#fff;}.cls-14{fill:url(#linear-gradient-2);}.cls-15{fill-opacity:0.16;}.cls-16{fill:#348579;}.cls-17{fill:#2a6c62;}.cls-18{fill:#255f56;}.cls-19{fill:#2a6b2a;}.cls-21{fill:#68ade3;}.cls-22{fill:url(#linear-gradient-3);}.cls-23{fill:#e52873;}.cls-24{fill:#ffc2da;}.cls-25{fill:#ffc787;}.cls-26{fill:#ffab65;}.cls-27{fill:#365795;}.cls-28{fill:#2b4678;}.cls-29{fill:#2a4474;}.cls-30{fill:#e9f3fb;}.cls-31{fill:url(#linear-gradient-4);}.cls-32{fill:url(#linear-gradient-5);}.cls-33{fill:url(#linear-gradient-6);}.cls-34{fill:url(#linear-gradient-7);}.cls-35{fill:url(#linear-gradient-8);}.cls-36{fill:url(#linear-gradient-9);}</style><clipPath id="clip-path"><rect class="cls-1" x="-20.59" width="4520.59" height="2499.98"/></clipPath><linearGradient id="linear-gradient" x1="1290.18" y1="1789.62" x2="1291.37" y2="1789.62" gradientTransform="matrix(-1969.26, 1142.29, 1142.29, 1969.26, 499400.34, -4996829.8)" gradientUnits="userSpaceOnUse"><stop offset="0" stop-opacity="0"/><stop offset="1"/></linearGradient><linearGradient id="linear-gradient-2" x1="1289.86" y1="1790.5" x2="1291.05" y2="1790.5" gradientTransform="matrix(2639.82, -2667.8, -2667.8, -2639.82, 1371713.46, 8169577.64)" gradientUnits="userSpaceOnUse"><stop offset="0" stop-color="#fff" stop-opacity="0"/><stop offset="1" stop-color="#fff"/></linearGradient><linearGradient id="linear-gradient-3" x1="1289.59" y1="1779.11" x2="1290.78" y2="1779.11" gradientTransform="matrix(-56.16, 96.36, 96.36, 56.16, -96761.85, -222334.74)" gradientUnits="userSpaceOnUse"><stop offset="0" stop-color="#ec6198"/><stop offset="1" stop-color="#d70055"/></linearGradient><linearGradient id="linear-gradient-4" x1="1291.23" y1="1790.4" x2="1292.42" y2="1790.4" gradientTransform="matrix(-470.29, -651.06, -651.06, 470.29, 1776491.25, 696.2)" xlink:href="#linear-gradient-2"/><linearGradient id="linear-gradient-5" x1="1293.53" y1="1789.87" x2="1294.72" y2="1789.22" gradientTransform="matrix(-290.73, -167.65, -402.48, 121.1, 1099337.27, 2231.86)" xlink:href="#linear-gradient-2"/><linearGradient id="linear-gradient-6" x1="1293.81" y1="1788.86" x2="1294.99" y2="1788.86" gradientTransform="matrix(-286.71, -137.99, -137.99, 286.71, 620637.82, -333685.88)" xlink:href="#linear-gradient-2"/><linearGradient id="linear-gradient-7" x1="1302.24" y1="1800.86" x2="1303.43" y2="1802.21" gradientTransform="matrix(-34.71, -181.6, -48.05, 131.17, 134533.04, 1249.36)" xlink:href="#linear-gradient-2"/><linearGradient id="linear-gradient-8" x1="1296.81" y1="1793.55" x2="1298" y2="1794.33" gradientTransform="matrix(-78.66, -208.09, -108.9, 150.31, 300259.81, 749.06)" xlink:href="#linear-gradient-2"/><linearGradient id="linear-gradient-9" x1="1292.51" y1="1792.79" x2="1293.69" y2="1792.79" gradientTransform="matrix(-68.04, -321.74, -321.74, 68.04, 667341.05, 295846.92)" xlink:href="#linear-gradient-2"/></defs><g id="c59"><rect class="cls-2" x="-20.59" width="4520.59" height="2499.98"/><path class="cls-3" d="M4500,2500H1764.49c190.65-256.15,454.09-422.81,773-468.42,166.94-23.89,342-30.37,509.86-11C3433,2065,4119,2256.9,4467.49,2027.16q16.82-11.06,32.51-23.42Zm0-1909c-58.63-60-123.8-112.55-193.91-155.42-162.64-99.46-359.94-141.69-545.55-173.83C2849.37,103.9,1942.72,580,1038.2,381.88,789.94,327.5,483.28,201.07,282.66,0H4500Z"/><rect class="cls-1" x="-20.59" width="4520.59" height="2499.98"/><g class="cls-4"><path class="cls-5" d="M2007.51,405.63l411.34,54a113.25,113.25,0,0,1,97.3,95.38c58.62,388.86,300.11,1991.06,300.11,1991.06l-635.16,48.56Z"/><path class="cls-6" d="M-49.43,195.55S1738,310.72,2249.45,343.69a156.74,156.74,0,0,1,146.24,143.56c39.8,487,173.84,2126.52,173.84,2126.52L4,2632.08Z"/><path class="cls-7" d="M-48.32,245.82,2194.29,390.33a156.73,156.73,0,0,1,146.24,143.56l170,2080.28L4,2632.08Z"/><path class="cls-8" d="M-47.76,271.75l-.56-25.93L2194.29,390.33a156.73,156.73,0,0,1,146.24,143.56l170,2080.28-37,.27L2305.38,557.53A156.72,156.72,0,0,0,2159.17,414Z"/><path class="cls-9" d="M1064.65,444.87C947.44,458.07,811,578.67,790.67,696c-23.18,133.7,114.57,218.2,235.52,192.95,149.55-31.23,252.67-151.39,244.13-304.83-4.39-79.12-88.41-123.23-156.5-138.4-13.27-3-28.19-8.5-40.77-1.64"/><path class="cls-10" d="M772.6,1065.57c-196.71-19.2-454.52,359.8-205.08,466.09C733.93,1602.58,967.86,1460,954,1271.72c-7.09-96.39-109.91-235.33-221.41-192.75"/><path class="cls-10" d="M1440.26,1035.93c-47.37-3.06-104.82,47.15-136.41,76.84-40.34,37.92-83.19,92.73-91.86,149.29-19.82,129.23,106,207.9,222.08,200,127.76-8.66,244.24-115,231-247.32-9.29-92.74-86.23-151.23-171.2-170.35-17.35-3.9-36.66-12.83-54.35-7"/><path class="cls-11" d="M1251.77,1918.51c-177.62,53.66-337,375.64-63.56,412.11,29.81,4,61,2.23,90.49-3.47,154.26-29.85,240.71-243.5,125.93-362.65-50.33-52.25-118.79-46-185.8-46"/><path class="cls-11" d="M1915.5,1712.18c-144.41,5.8-302.8,334.4-52.82,370.55,121.68,17.59,302-121.86,243.36-249-33-71.41-115.35-97.47-185.13-117.1"/><path class="cls-12" d="M1160.74,1964.74c-38,15.44-73.85,36.2-104.41,56.19a8.74,8.74,0,1,0,9.58,14.63c11.64-7.59,24-15.36,37-22.89-43.36,41.9-77.13,91.95-92,153.87-9.77,40.77-5.06,73.31,9.16,98.75s38.16,44,67.71,56.35c85.23,35.58,217.79,18.9,284.53-21.9,82.89-50.72,117.31-123.2,108.61-190.28s-60.54-129.44-152.43-160c-34.74-11.53-71.42-11.13-107.62-3.52,6.49-4,13-7.82,19.58-11.59a8.74,8.74,0,1,0-8.75-15.14A835.09,835.09,0,0,0,1160.74,1964.74Zm9.48,14.66c-66.52,48-122.35,108.28-142.23,191.2-8.51,35.55-5,64,7.44,86.19,18.8,33.68,57.39,52.72,102.2,61.4,77.13,14.93,173-1.21,225.61-33.37,75.7-46.31,108.34-111.86,100.4-173.12S1407.22,1994,1323,1966.09C1273.53,1949.66,1220.07,1959.45,1170.22,1979.4Zm627.91-258.78c-34.56,13.23-66.25,33.35-98.19,54.35a8.74,8.74,0,1,0,9.61,14.61c47.21-31,93.59-60.57,150.68-66.24-62.16,24.09-118.2,65.92-151.38,123.66-39.16,68.07-33.83,138.59.13,189.77s96.85,83.32,173.61,74.15c56.44-6.75,107.1-35.05,150.81-69.85,71.5-56.94,88.93-124.84,72.23-184.55-17.26-61.8-71.88-115.24-142.76-138.86,3-.24,6.11-.4,9.16-.56a8.74,8.74,0,0,0-.81-17.46,347.29,347.29,0,0,0-55.62,7.21,256,256,0,0,0-52.73-1.32,228,228,0,0,0-59.11,13,8.45,8.45,0,0,0,1.72-2,8.73,8.73,0,0,0-2.75-12.07c-21.7-13.61-39.8-34.54-58-52.26-49.85-48.73-97.44-100-151.87-143.94-21.9-17.7-43.41-32.46-69.62-42.49-3.12-1.21-10.45-5.81-16.29-7.13-5.33-1.21-10-.22-13.28,2.45-9.78,7.9-17.69,20.17-24.37,33.83-9.08,18.64-15.89,40-23.19,54.43-31.4,62.32-60.54,126.22-86.34,191.09-11.39,28.59-23.38,56.32-33,85.58-.49,1.4-5.76,17.48-10.21,28.54-1,2.42-2.29,5.24-3,6.75-.22.19-.43.35-.65.53a8.86,8.86,0,0,0,5.74,15.31,9.41,9.41,0,0,0,7.86-3.61c1.46-1.72,3.94-6.45,6.36-12.48,4.58-11.45,10.07-28.1,10.56-29.55,9.53-28.94,21.41-56.35,32.66-84.61,25.59-64.39,54.57-127.83,85.73-189.67,6.14-12.23,12-29.23,19.06-45.47,6.12-14,13-27.57,22.49-35.94a30.75,30.75,0,0,1,3.07,1c4.26,1.85,8.43,4.41,10.59,5.24,24.48,9.36,44.46,23.26,64.9,39.75,54,43.54,101.16,94.54,150.63,142.84,19,18.58,38.13,40.31,60.86,54.6A8.9,8.9,0,0,0,1798.13,1720.62Zm118.15,3.93c-77.32,17-152.35,61.75-192.27,131.16-35.33,61.48-31.13,125.17-.43,171.38s87.64,74.74,156.9,66.45c53.22-6.34,100.81-33.32,142-66.13,64.55-51.42,81.38-112.29,66.3-166.21C2069.71,1793,2000.84,1736.49,1916.28,1724.55Zm-593.39,136a7.32,7.32,0,0,1,1.24.81,8.4,8.4,0,0,1,1.13,1A8.22,8.22,0,0,0,1322.89,1860.55ZM672,1087.19c-21.82.41-42.26,10.23-60.81,24.56-26,20.12-48.4,49.19-65.85,70.38-36.84,44.7-74.06,100.21-94,155.11-18.58,51.23-22,102,2.13,143.69,16.07,27.84,44.49,51.88,89.57,69.18,22.33,8.55,46.83,11.67,70.62,11.94,131.47,1.37,286.28-103,344.83-216.88,44.68-86.92,40.8-156.74,3.9-201.85-36.65-44.83-107.08-66.13-198.81-54.57-50.25,6.35-98.11,21.12-144.59,40.86a8.74,8.74,0,0,0,6.87,16.08c45-19.09,91.27-33.46,139.93-39.59,84.22-10.62,149.39,7.1,183,48.28,33.42,40.88,34.58,104-5.93,182.8-55.88,108.76-203.52,208.7-329.05,207.39-21.73-.24-44.14-3-64.52-10.79-40.46-15.49-66.26-36.63-80.69-61.59-21.65-37.46-17.51-83-.84-129,19.26-53.12,55.43-106.72,91.06-150,16.75-20.33,38-48.36,63-67.67,15.46-11.94,32.29-20.54,50.44-20.89a8.75,8.75,0,1,0-.32-17.49Zm715.62-22.69c-93.8,22.18-162.2,117.53-176.94,210.45-9.07,57.31,2.24,113.52,39.38,151.44,24.77,25.34,61.13,42.71,111.12,46.56,28.71,2.17,60.94,0,88.84-7.21,76.17-19.58,177.51-79.5,204.49-157.17,25.48-73.32,13-133-20.89-176-50.31-63.79-149-90.77-243.73-68.9A8.47,8.47,0,0,0,1387.58,1064.5Zm9.59,15.41a8.76,8.76,0,0,1-2.37.88c-88.82,19.13-153,109.49-166.87,196.9-8.16,51.58,1.19,102.36,34.61,136.49,22.25,22.73,55.08,37.9,99.94,41.34,26.85,2,57,0,83.14-6.7,71.29-18.34,167.06-73.29,192.32-146,23.08-66.41,12.55-120.57-18.13-159.49C1573.84,1085,1483.89,1061.05,1397.17,1079.91Zm-56.66-28.86c-1.78-2.85-9.35-15.17-9.67-15.73-11.64-20.44-25.29-39.49-38.08-59.2-28.93-44.62-65.2-84.75-92.7-129.9a8.76,8.76,0,0,0-15,9.09c27.57,45.29,64,85.58,93,130.3,12.61,19.45,26.1,38.19,37.57,58.34.33.56,4.8,8.85,8.62,14.55a29.83,29.83,0,0,0,6.38,7.31,9,9,0,0,0,10.43.35,8.71,8.71,0,0,0-.54-15.11Zm-531.58,9.06c29.14-47.71,57.42-94.53,91.33-138.91a8.76,8.76,0,0,0-13.93-10.62C852.05,955.44,823.45,1002.77,794,1051a8.74,8.74,0,1,0,14.94,9.09Zm523.39-9.09,0,.06.16-.11Zm1-.43-.43.16C1333,1050.7,1333.16,1050.65,1333.29,1050.59Zm.27-.11-.08,0,.11,0ZM975,465.44c-97.74,29.05-174.44,127.75-202.45,222.8-15,50.86-10,93.86,11.61,125.19s60.08,51.48,113.6,55.51c31.32,2.4,63.15-1.88,93.64-8.84,96.33-22,212.78-78.11,264.17-166.59,48-82.59,19.74-182.4-70.48-217.85-62.59-24.61-130.3-15.57-193.34,1.64a8.75,8.75,0,1,0,4.63,16.87c59.44-16.25,123.29-25.45,182.3-2.24,79.77,31.36,104.2,119.77,61.75,192.81C1191.31,769.27,1079.51,822,987.49,843c-28.82,6.59-58.87,10.71-88.44,8.48-47.13-3.58-81.47-20.39-100.51-48S776.1,738,789.3,693.16c26.45-89.77,98.33-183.53,190.65-211a8.74,8.74,0,1,0-5-16.76Z"/><path class="cls-13" d="M1000.47,559.33a13.47,13.47,0,0,0,1.1-4.22c1.35-13.48-10.71-15.6-11.79-15.76-2.24-.32-10.88-1.21-15,8.44-.37,1-2,7.94-2.82,10.6-2.13,7.13-4.07,14.31-6.39,21.38C959.24,599,952.45,618.2,946,637.46c-17.4,52.23-46.16,107.55-52.27,162.82a13.92,13.92,0,1,0,27.68,3c5.93-53.36,34.23-106.61,51-157.06,6.43-19.29,13.19-38.49,19.55-57.77,2.42-7.32,4.44-14.77,6.65-22.17C999.1,565,1000,561.48,1000.47,559.33Zm-26.66-4.6v0Zm0-.54v0Zm0-.59v0Zm0-.56.05-.7C973.81,552.58,973.81,552.82,973.78,553Z"/><path class="cls-13" d="M1083.45,637.41c-9.38.37-20,5-30.25,13.18-12.63,10.16-24.94,25.95-33.2,42.6-7.3,14.68-11.37,30-10.7,42.92.86,16.46,8.54,29.64,25.1,36.2,29.36,11.62,68.3-5.54,91.89-33.4,25-29.51,31.84-68.4.81-93.49a13.92,13.92,0,1,0-17.53,21.63c17.94,14.52,9.88,36.81-4.55,53.89-10,11.84-23.73,21.57-37.63,25.58-7.83,2.26-15.7,2.69-22.7-.08-5-2-7.08-6.08-7.49-11-.45-5.19.6-11,2.51-17,4.9-15.6,15.62-32.08,27.28-43,6-5.62,12-10.06,17.56-10.27a13.92,13.92,0,1,0-1.1-27.81Z"/><path class="cls-13" d="M1116.3,646.93a13.89,13.89,0,0,0,9.21-6.75,225.6,225.6,0,0,0,14.65-31.5c10-26.22,6-42.49-1.64-51.39-5.63-6.59-13.82-10.41-23.7-11.16-10.85-.81-24.21,2.34-36.6,8.39-13.44,6.56-25.66,16.4-32.64,26.92-6.09,9.17-8.43,19-6.49,28.27,1.18,5.75,6.46,13.66,14.92,21.16,13.3,11.86,34.69,24.83,39.89,28.91a13.92,13.92,0,0,0,22.4-12.85Zm-16.48-16.76a14.22,14.22,0,0,1,1.45-3.71,205,205,0,0,0,12.82-27.65c2.86-7.53,4.29-13.61,4.29-18.45,0-2.18-.14-3.9-1.11-5-1.56-1.85-4.39-1.61-7.32-1.45-6.09.3-13,2.48-19.5,5.65-7.49,3.66-14.57,8.66-19.39,14.33-2.67,3.15-5.09,6.24-4.8,9.53A122.84,122.84,0,0,0,1078,614.6C1085.06,620.22,1093.25,625.76,1099.82,630.17Z"/><path class="cls-13" d="M687.28,1427.9c31-42.12,57.5-90.15,73.5-134.29,4.23-11.62,18.39-55.21,12.15-80.44-4-16.11-14-27-33.37-27.27-17.94-.3-35,6.91-49.75,18.48-20.19,15.76-36.19,39.69-44.67,60-4.26,10.19-6.58,23.91-4.5,35.13A34,34,0,0,0,650,1318c5.12,5,12.15,8.45,21.93,8.66a13.92,13.92,0,1,0,.64-27.83c-2.93-.06-4.09-2.07-4.5-4.36-1.15-6.21.46-13.74,2.83-19.39,6.87-16.51,19.72-36,36.12-48.82,9.61-7.5,20.44-12.74,32.1-12.56,7.11.11,7.51,6.89,7.7,13.77.57,20.88-9.24,48.39-12.23,56.65-23.69,65.32-71.66,139.71-122.21,187.53-9.53,9-2.18,18.16-1.37,19.15,1.64,2,7.08,7.85,16.24,4,.59-.24,4.33-2.61,5.76-3.55,8.08-5.27,7.59-4.84,15.86-9.84,16.86-10.19,34.2-19,51.25-28.75,44.66-25.66,94.07-59.84,145.78-68.21a13.91,13.91,0,1,0-4.44-27.46C786.93,1365.8,734.44,1400.76,687.28,1427.9Z"/><path class="cls-13" d="M1464.37,1244.48q-4,9.51-8,19.06c-5.87,14.2-11.61,28.46-17.56,42.63-11.42,27.25-22.62,54.38-34.93,81.17a13.93,13.93,0,0,0,25.32,11.62c12.47-27.08,23.78-54.49,35.33-82,6-14.2,11.69-28.51,17.59-42.74q8.6-20.65,17.56-41.14c4.41-10.06,9.21-20,13.73-30,5.28-11.69,11.55-23.31,14.11-36,1.51-7.42-2.34-11.14-3.39-12.29-3.8-4.12-8.7-6-15.16-3.61a13,13,0,0,0-4.37,2.56,13.46,13.46,0,0,0,1.78-6.72,13.92,13.92,0,0,0-13.84-14c-47.51-.27-90,24.37-118.15,62.67-5.41,7.36-16.67,22.78-21.11,37.06s-2.59,27.7,8.16,36.76c12.79,10.79,29.41,12.35,47.34,7C1427.33,1271.07,1447.64,1257.65,1464.37,1244.48Zm37.38-87.17a14,14,0,0,1-9.4,3.58c-38.52-.22-72.69,20.25-95.53,51.31-3.63,5-10.77,14.31-15.11,24a33.13,33.13,0,0,0-2.77,8.77c-.14,1.24-.54,2.5.43,3.31,3.39,2.85,7.54,3.63,12,3.39,6.52-.38,13.55-2.8,20.66-6.16,25.18-11.86,50.93-35.66,62.16-46.61a123.11,123.11,0,0,0,18.44-23.27C1495.77,1170.52,1500.64,1159.33,1501.75,1157.31Z"/><path class="cls-13" d="M1271.32,2035.53a18.13,18.13,0,0,1-.59,2,83.21,83.21,0,0,1-8.51,15.3c-12.42,18.43-31.16,38.33-37.52,45-7,7.4-6.19,7.05-13.44,14.39a94.83,94.83,0,0,0-8.48,6.21,17.15,17.15,0,0,0-4.79,7.59,15,15,0,0,0,7.54,17.53c3.74,2,9.31,3.1,15.78,2.48,7.51-.7,17.15-3.85,21.62-4.36,11.45-1.26,33.4-3.41,51.36.14,8.08,1.58,15.73,3.6,18.53,9.79,2.16,4.76.06,9.62-2.45,14.2-4.07,7.36-10.29,14-15.16,19-10.67,10.94-41.37,31.65-70,44.7-10.93,4.94-21.51,8.82-30.54,10.32-4.09.68-7.7,1-10.55.06a13.91,13.91,0,1,0-8.7,26.43c10.85,3.58,27.25,1.62,45.38-4.94,36-13,80.36-42.79,94.36-57.13,7.82-8,17.86-19.47,22.82-31.68,4.3-10.6,5.09-21.73.24-32.44-6.22-13.63-20.66-22-38.54-25.57-17-3.36-37.09-2.56-51.17-1.35,10.5-11.29,32.32-35.58,43.25-55.21,7.78-14,9.45-26.84,6-34.75-4.47-10-13.09-14.82-23.56-15.6-10.1-.75-22.33,3-29.47,6.43-15.78,7.4-38.24,24.42-52.94,43.92-11.18,14.79-17.67,31.09-16.22,45.88a13.94,13.94,0,0,0,27.74-2.72c-.86-8.66,4.18-17.75,10.72-26.41,11.85-15.7,29.84-29.53,42.55-35.5a45.69,45.69,0,0,1,10.94-3.52A21.93,21.93,0,0,1,1271.32,2035.53Z"/><path class="cls-13" d="M1964,1794.34a13.54,13.54,0,0,1-.94,4.52c-1.57,4.76-4.58,9.79-8.22,14.87-13.11,18.34-34.09,36.63-42,44.59s-22.43,23.8-24.21,27.76c-4,8.85.57,14.52,3.74,17.16,4.37,3.63,10.53,5.75,18.4,5.72,6.7,0,15.32-1.74,24.83-3.79s20.25-4.41,30.49-4.3c7.75.08,15.29,1.56,21.16,7.18,6.39,6.08,6,13.26,3.18,20-4.17,10.2-12.76,19.69-20,26.63-35,33.81-77.73,48.41-125,47.17a13.91,13.91,0,1,0-.75,27.81c54.94,1.45,104.52-15.73,145.13-55,9.67-9.33,20.76-22.38,26.39-36.07,7.06-17.16,6.55-35.18-9.72-50.69-17.64-16.81-42.58-16.54-65.52-12.24q-3.89.72-7.6,1.53c10.75-10.62,38.73-35.72,51.06-58.17,7.68-13.93,9.46-27.43,4.45-38-4.42-9.36-12.53-14-22.87-14.61-13.65-.86-33,7.64-40.77,11-18.34,8-47.83,25.63-69,46.52-16,15.74-27,33.57-28.26,50.43a13.94,13.94,0,0,0,27.8,2c.81-11.16,9.42-22.19,20-32.6,18.63-18.34,44.52-33.8,60.62-40.82,4.23-1.83,12.85-6,21.22-7.94A38.11,38.11,0,0,1,1964,1794.34Z"/><path class="cls-14" d="M1815.88,365.93l378.41,24.4a156.73,156.73,0,0,1,146.24,143.56L2357.9,746.3Q1209.72,1577.36,188.3,2563.42q-35.31,34.13-71.08,67.86L4,2632.08-10.7,1960.71c112.17-106.1,208.5-198.16,225.15-213.81,217.63-204.78,450.1-395.06,675.12-591.63C1195.72,887.8,1498.43,618.72,1815.88,365.93ZM492.33,280.65,970,311.44C621.09,597.28,288.64,905.71-26.83,1225.73L-37.69,731l12.18-10.75C144.1,570.22,316.27,423,492.33,280.65Z"/><path class="cls-15" d="M2470.42,2614.47l99.11-.7L2514.21,1937c-12.44-10.79-25.4-21-40.07-28.81-81.12-43.35-123.92-20.06-199.78-36.12-25.94-5.51-43.71-37.65-70.78-46.44L2108,1799.37c-49.07-12,37,91.25,44.06,101.87,39.83,60.25,59.17,143.22,69.83,214.73,10,67.16,13.71,134,38.08,198.14,29.68,78.13,87.85,137.51,141.45,199,18.45,21.14,27.85,47.71,44.46,70C2453.86,2593.78,2462,2604.19,2470.42,2614.47Z"/><path class="cls-16" d="M3449.13,1603.86s-80,708.1,119.16,1137.81c-52.58,19.83-84.29,12.61-84.29,12.61s-207.25-850.86-34.87-1150.42"/><path class="cls-16" d="M3166.34,2005.74s243.63,483.91,278,738.94c48.47,89.83,88.05-13.17,88.05-13.17s-127.51-505.15-366-725.77"/><path class="cls-17" d="M3194.81,2195.63s165.87,408.56,181,618.64c33.28,76,68.3-5.84,68.3-5.84s-75.61-419.45-249.26-612.8"/><path class="cls-17" d="M3196.85,2512.22s119.5,93.58,160.65,299.5c46.78,3,49.14-29.57,49.14-29.57S3262.12,2450,3115.72,2459.1c50.31,24.29,81.13,53.12,81.13,53.12"/><path class="cls-16" d="M3499.26,2652.32s-15.84-208.83,138.38-382.13c76-85.46,48.07-137.83,116.71-168S3918,1995.79,3942,1963.42s432.48-194.42,546.76-171.65c-116.9,48.46-207.77,240.47-267.84,253.87s-127.79,95-205.43,168.61-150.9,46.37-203.06,82.95-241.61,177.91-313.14,355.12"/><path class="cls-18" d="M3581.92,2471c21.27-38,44.37-74.93,68.12-111.24,12-18,24.56-35.79,38.28-52.34,13.74-16.29,29.31-31.53,45.23-46a523.53,523.53,0,0,1,50.88-39.91c17.75-12.44,36.12-24.65,53-39.05,17-14,32.23-30.8,46.38-46.8,14.58-15.31,31.5-28.9,48.79-41.81,70-51.08,145.8-94.38,220.74-138.6l226.25-130.87c-76.7,41.35-154,81.64-230.09,124.15s-152.14,85.39-223.33,136.67c-17.65,13-35,26.64-50.54,42.78-14.86,16.45-29.12,31.87-45.52,45.9-16.15,14.08-34,26.2-51.83,38.89a532.53,532.53,0,0,0-51.5,41.14c-16.07,15-31.89,30.19-45.47,47.83-13.51,17.43-25.51,35.73-37,54.29-23.16,37.06-43,75.94-62.32,115"/><path class="cls-19" d="M3739.28,2144.12a441.11,441.11,0,0,0-50.45,85,269.16,269.16,0,0,0-16.38,47c-4,16.15-6.19,33-5,49.91l.22,3.06h3.07c16.83,0,33.64-.19,50.45-1.15s33.62-2.51,50.23-5.45a308.27,308.27,0,0,0,49-12.25c15.66-5.95,31.65-12.89,43.46-25-12.53,11.24-28.71,17-44.49,21.84a309.35,309.35,0,0,1-48.79,10.28c-16.51,2.1-33.1,3.71-49.77,4.46s-33.33.73-50,.55l3.28,3c-2.62-32.07,7.37-64.19,19.41-94.31a461.68,461.68,0,0,1,20.95-44.4c7.58-14.55,15.76-28.84,24.78-42.6"/><path class="cls-18" d="M3837.24,2074.32c-16.46,21.13-29,45.07-39.75,69.64s-18.39,50.5-24.37,76.68l-.86,3.79,3.92.16c32.62,1.37,65.49-1,97.41-8.05,31.69-7.36,63.14-18.56,89.5-37.74-27.87,16.64-59.11,26.33-90.6,32.5a415.18,415.18,0,0,1-47.79,6.27c-16.06,1-32.14.88-48.22.47l3.07,4c5.31-26,13.22-51.34,22.51-76.2,9.67-24.7,20.88-48.94,35.18-71.49"/><path class="cls-18" d="M4018.38,1925.32a491.49,491.49,0,0,0-51.49,73.15c-14.9,25.91-27.27,53.67-33.25,83.51l-.78,3.93,4.08-.07q44.37-.77,88.54-5.13c29.39-3,58.71-6.87,87.7-12.58-29.39,2.81-58.76,5.4-88.15,7.27q-44,3.2-88.19,3.85l3.28,3.86c5.19-28.79,17.53-56,31.11-82.25a692.58,692.58,0,0,1,47.15-75.54"/><path class="cls-18" d="M4191.1,1875.85a444,444,0,0,0-59.65,47.6,223.25,223.25,0,0,0-25.85,28.45c-7.61,10.33-14.93,21.54-17.32,35.19l-.46,2.65,2.58.84c13.77,4.45,27.63,5.13,41.38,5.49s27.44-.08,41.09-.83a779.57,779.57,0,0,0,81.34-9.66c-27.23,1.71-54.42,3.45-81.59,4.09-13.57.42-27.14.58-40.65.1s-27.09-1.63-39.44-5.26l2.11,3.49c1.79-11.6,8.46-22.6,15.68-32.61a296.55,296.55,0,0,1,24.46-28.6,663.22,663.22,0,0,1,56.32-50.94"/><path class="cls-20" d="M3405.64,1668.67s31.53-292.56,215.86-364.4,234-154.55,349.63-211.67,247,20.64,247,20.64-145,23.89-269.74,145.49S3590,1604.57,3405.64,1668.67"/><path class="cls-16" d="M3405.64,1668.67s62.39-196.54,246.73-268.38,212.28-185.24,327.88-242.37,237.85-44.68,237.85-44.68-145,23.89-269.74,145.49S3590,1604.57,3405.64,1668.67"/><path class="cls-16" d="M2966.92,2557.92s-79.22-114.36-198.37-169.61-196.94-27-264.94-51.72-231.5-35.69-301.67-.85-194.93,55.7-223.4,208.3c45-37.72,131.08-10.74,222.37,6.62s184.45-58.58,265.81-39.74,161.8,82.08,244.86,74.11,255.34-27.11,255.34-27.11"/><path class="cls-20" d="M3219.55,2520.15s-15.07-167.13-167.12-227.42-294.17-98.84-363.59-184.78-258.39-104.17-422.36.05c129.13-25.95,313.53,72.68,512.56,202.35s440.51,209.8,440.51,209.8"/><path class="cls-16" d="M3219.55,2520.15s-15.07-167.13-167.12-227.42-285.87-19.59-355.29-105.53-266.69-183.42-430.66-79.2c129.13-25.95,313.53,72.68,512.56,202.35s440.51,209.8,440.51,209.8"/><path class="cls-20" d="M3339.11,2502.27S3259,2120,3083.18,2069.15s-187.67-206.67-376.53-263-348.5-170.85-569.28-113.65c210.65,36.59,280.08,121.76,380.78,221s207.06,137.46,249.65,175.67,174.87,167.58,246.58,180.31S3286,2413,3339.11,2502.27"/><path class="cls-16" d="M3339.11,2502.27S3217.48,2180,3041.64,2129.22,2865,1923.72,2676.12,1867.4s-318-232.09-538.75-174.89c210.65,36.59,280.08,121.76,380.78,221s207.06,137.46,249.65,175.67,174.87,167.58,246.58,180.31S3286,2413,3339.11,2502.27"/><path class="cls-20" d="M3581,2483.65s128.29-231.32,319.13-237.55,168.61,119.1,343.42,42.76S4731.24,2347.29,4778,2482c-179.31-101.62-295.31-106.41-533-35.46s-524.82-10.45-664,37.11"/><path class="cls-16" d="M3581,2483.65s134.91-136.6,325.74-142.83,165.5,76.73,340.29.39,484.19,6.08,531,140.79c-179.31-101.62-295.31-106.41-533-35.46s-524.82-10.45-664,37.11"/><path class="cls-17" d="M3568.29,2741.67s-69.54-191.52,122.84-334.83c-93.75,10.13-183.58,142-189.27,315.64-.33,79.65,66.43,19.19,66.43,19.19"/><path class="cls-20" d="M3510.92,2016s119.54-208.28,21.6-477-114-257.51-206.55-372.09-168-262.72-321.72-253-145.69-84.51-282.76,6.84c77.42-16,240.09,33.85,256.65,144.29S3038.9,1248.57,3088.5,1291s50.37,158.53,107.59,229.69,164.68,277.6,223,333.66,64.75,187.94,63,198.16,28.9-36.43,28.9-36.43"/><path class="cls-20" d="M3160.92,1988.58s31.78-350.07-64.45-548.24-199.21-204.91-315.85-302.61-191.9-37.75-191.9-37.75,68.07,69.54,109.2,284.8,157.42,360.18,311.92,453.77,151.08,150,151.08,150"/><path class="cls-20" d="M3545,2095.32s50.82-370.94,246.66-484.35,214-80.71,360.22-111.42,334.38,12,426.52,64.66c-226.61-32.54-436.63,104.6-567.37,208.55s-466,322.56-466,322.56"/><path class="cls-16" d="M3545,2095.32s120.85-258.73,316.7-372.15,167.87-177.39,314-208.09,310.53-3.51,402.67,49.13c-226.61-32.54-436.63,104.6-567.37,208.55s-466,322.56-466,322.56"/><path class="cls-16" d="M3194.89,1995.8c-44.22-77.08-85.21-157.76-113.84-241.67-3.64-10.48-6.68-21.09-9.65-31.7-3.23-10.66-6-22.23-10-33.07a273,273,0,0,0-30.4-62.92c-25.95-39.24-60-68.94-80.06-108.08-10.62-19-17.68-40.32-27.2-61.17-9-20.82-19-41.16-29.36-61.31A1140.74,1140.74,0,0,0,2825.46,1279c-25.42-37.39-53.31-73.33-85.6-105.09-32.2-31.36-69.55-59.7-113.37-71.79,43.45,13.35,79.58,42.48,110.63,74.49,31.11,32.4,57.76,68.81,81.91,106.61a1128.61,1128.61,0,0,1,65,117.8c9.64,20.26,19,40.67,27.3,61.44,4.43,10.31,8.05,20.77,12.17,31.27l6.39,16.07,7.41,15.7c20.37,42.26,54.9,74.47,77.43,111.24a252.18,252.18,0,0,1,26.57,59.27c3.49,10.43,5.66,20.89,8.65,31.87,2.78,11.17,5.64,22.32,9.09,33.23,13.16,43.9,30.32,86.12,48.69,127.7,18.61,41.55,38.52,82.11,60.47,122.33Z"/><path class="cls-16" d="M3112.66,1543.9q-7.74,56.91-16.89,113.52c-3.29,18.82-6.37,37.65-10.2,56.3s-8.2,37.37-15.17,54.49l5.29-1.88q-25.76-13.18-51.86-25.69c-17.47-8.18-34.89-16.49-52.77-23.81-35.54-15-71.77-28.67-109.12-38.37,18.32,6,36.18,13.21,53.9,20.69q26.67,10.95,52.83,23.1c34.92,16.08,69.52,32.85,103.48,50.89l3.77,2,1.52-3.88c7.25-18.47,11.18-37.3,15-56.15,3.56-18.89,6.79-37.81,9.2-56.84q7.59-57,11.06-114.37"/><path class="cls-16" d="M3010.6,1381.84c2.71,38.19,3.39,76.47,2.94,114.64-.84,38.16-2.79,76.32-8.71,113.91l4.82-3c-41.4-13.17-82.37-27.92-122.14-45.44-20-8.61-39.66-17.84-58.66-28.31-18.85-10.52-38.33-21.17-52.61-37.81,13.29,17.5,32.26,29.59,50.63,41.21,18.8,11.22,38.33,21.19,58.1,30.54s40.07,17.57,60.48,25.41,41,15.24,62,21.55l4.22,1.28.6-4.29a731.58,731.58,0,0,0,6.91-115,922.88,922.88,0,0,0-8.56-114.65"/><path class="cls-16" d="M2901.56,1259.64a846.58,846.58,0,0,1,14.06,98.14c2.26,32.83,3.1,66-3.06,98.08l5-2.8c-17-6.89-33.95-14-50.23-22.59s-32.29-17.73-47.89-27.58-31-20-46-30.85c-15.08-10.69-29.93-21.75-44.18-33.58a641.48,641.48,0,0,0,86.82,69.59c15.36,10.52,31.55,19.76,47.9,28.7a437.32,437.32,0,0,0,50.89,23.35l4.27,1.62.75-4.43c5.68-33.3,5.11-67,1.29-100a595.9,595.9,0,0,0-19.69-97.61"/><path class="cls-16" d="M2805.63,1173a275.3,275.3,0,0,1,13.47,52.79c2.3,17.87,3,36-1,53.29l3.65-2.86c-11.2-.5-22.52-2.9-33.71-5.71a322,322,0,0,1-33.09-10.7c-22-7.74-43.45-17.08-65-26.47a438.62,438.62,0,0,0,62.65,32.46,316.37,316.37,0,0,0,33.53,11.7c11.43,3.25,23.18,6,35.48,6h3.08l.57-2.87a136.25,136.25,0,0,0-.84-55.82,192,192,0,0,0-18.76-51.87"/><path class="cls-16" d="M3493.89,2062.23a65.77,65.77,0,0,0,7-11.92c1.83-3.67,3.06-7.27,4.58-10.92a170.13,170.13,0,0,0,6-21.8c3.25-14.54,4.53-29,5.22-43.43a448.63,448.63,0,0,0-5.78-84.92c-8.58-55.71-24.63-109.32-43.39-161.54-19.11-52-39.06-104-67.81-152.47-14.19-24.15-30.6-46.78-45.67-69.36a414.57,414.57,0,0,1-38.64-71.13,1161.77,1161.77,0,0,0-68.76-150.63c-26.35-48.56-55.43-95.67-88-140.28S3090,1057,3048.8,1020.1c-41.11-36.58-88.26-68.09-141.37-83.63,52.75,16.73,98.83,49.12,138.87,86.36,40.09,37.55,74.87,80.37,106.27,125.31s59.18,92.42,84.23,141.16a1115.41,1115.41,0,0,1,64.7,151.08,431.55,431.55,0,0,0,37.94,74.85c14.81,23.63,30.13,46.08,43.16,69.8,26.1,47.18,44.6,98.92,62.45,150.44,17.33,51.6,31.83,104.31,38.89,157.63a422,422,0,0,1,3.78,79.58c-.9,13-2.34,26-5.37,38.3a142.55,142.55,0,0,1-5.29,17.84c-1.22,2.67-2.26,5.58-3.55,8a50.66,50.66,0,0,1-3.39,5.86Z"/><path class="cls-16" d="M3477.8,1444q-7.26,64.5-16.1,128.73c-3.25,21.35-6.18,42.74-10.09,63.93-4.08,21-8.19,42.56-16.13,61.76l5.34-1.76c-30.88-16.63-61.45-33.78-92.08-50.86L3303,1620c-15.3-8.57-30.57-17.22-45.46-26.5,28.42,20.65,58.21,39.35,88.28,57.49s60.71,35.3,91.36,52.46l3.78,2.1,1.55-3.88c8.39-20.95,12.07-42.34,16-63.73,3.59-21.4,6.69-42.86,9-64.41,4.89-43,8.23-86.22,10.27-129.46"/><path class="cls-16" d="M3383.83,1310.88c1.89,38.24,1.78,76.53.51,114.68-1.64,38.13-4.39,76.24-11.1,113.69l4.88-2.9c-41.11-14-81.76-29.64-121.16-48-19.76-9-39.27-18.66-58.05-29.53-18.62-10.92-37.87-22-51.79-38.9,12.91,17.78,31.63,30.26,49.74,42.26,18.57,11.61,37.87,22,57.44,31.75s39.69,18.41,59.95,26.67,40.67,16.1,61.5,22.85l4.2,1.36.68-4.26a732.33,732.33,0,0,0,9.33-114.88,924.33,924.33,0,0,0-6.13-114.8"/><path class="cls-16" d="M3277.37,1186.43a845.88,845.88,0,0,1,12,98.43c1.56,32.86,1.72,66.06-5.11,98l5.07-2.7c-16.85-7.25-33.64-14.71-49.74-23.64s-31.89-18.41-47.27-28.57-30.6-20.66-45.32-31.82c-14.85-11-29.48-22.35-43.47-34.51a641.28,641.28,0,0,0,85.33,71.42c15.13,10.83,31.12,20.41,47.29,29.69a435.52,435.52,0,0,0,50.38,24.41l4.24,1.71.85-4.42c6.38-33.15,6.52-66.86,3.38-100a595.58,595.58,0,0,0-17.62-98"/><path class="cls-16" d="M3183.29,1097.82a275.17,275.17,0,0,1,12.35,53.06c1.94,17.91,2.2,36.06-2.14,53.23l3.69-2.77c-11.19-.73-22.45-3.37-33.56-6.41a329.57,329.57,0,0,1-32.89-11.38c-21.81-8.2-43.08-18-64.4-27.84a439,439,0,0,0,61.94,33.77,315.13,315.13,0,0,0,33.28,12.4c11.36,3.49,23.06,6.43,35.36,6.79l3.06.08.64-2.86a136.37,136.37,0,0,0,.33-55.82,191.71,191.71,0,0,0-17.66-52.25"/><path class="cls-16" d="M3259,1976s-167.16-125-192.87-21.49,177.46,303.74,462.62,308.46,251.05,162.15,251.05,162.15,119.93-116.75-47.8-351S3332,1858,3259,1976"/><path class="cls-18" d="M3256.89,1984c3.48-1.3,10.89-2.08,16.89-1.55a113.54,113.54,0,0,1,19.26,2.89,217.88,217.88,0,0,1,37.79,13.58c24.66,11.33,47.86,26.25,70.08,42.41,11.33,7.81,21.79,16.71,32.87,25.08a305.45,305.45,0,0,0,34.93,23.91c24.37,14.22,50.48,24.94,76.91,33.8,52.56,18,108,28.94,154,60.07a196.23,196.23,0,0,1,57,59c14.79,23.35,25.52,49.18,33.43,75.72-7.28-26.73-17.44-52.84-31.78-76.75a199.73,199.73,0,0,0-56.45-61.13c-46.15-32.78-102.13-45.18-153.65-64.18-26-9.38-51.22-20.47-74.5-34.79-23.33-14-43.3-33.06-65.89-50-22.24-17-45.6-32.79-71.17-45.26a230.17,230.17,0,0,0-40.12-15.41,126.66,126.66,0,0,0-21.8-3.76c-7.76-.44-14.58-.86-24.25,2.46Z"/><path class="cls-18" d="M3758.36,2142c-11.19-4.06-23-6-34.8-7.63a315.41,315.41,0,0,0-35.7-1.9c-23.88.09-47.65,3.1-71.09,7.39l-5.27,1,2.7,4.66c12.42,21.35,24.14,43.08,35.59,65s22.49,44,32.88,66.52c-7.33-23.73-17.13-46.62-27.47-69.18-10.58-22.48-22.18-44.46-34.38-66.1l-2.56,5.63c11.51-2.3,23.06-4.36,34.71-5.84s23.33-2.47,35.05-3.24c23.41-1.12,47.11-.89,70.34,3.75"/><path class="cls-18" d="M3663.2,2032.42a877.14,877.14,0,0,0-107.64,9.09,526.87,526.87,0,0,0-53.17,10.62c-17.49,4.6-35.18,9.56-51.36,18.94l-2.38,1.38.58,2.6c3.28,15,6.95,29.84,11.37,44.51,4.59,14.62,9.52,29.17,16,43.1,6.29,14,13.15,27.73,21.59,40.56,8.57,12.66,17.93,25,29.63,34.87-10.91-10.68-19.2-23.57-26.68-36.66a317.39,317.39,0,0,1-19.4-40.92c-5.64-14-10.15-28.46-14.57-42.88-4.16-14.52-7.57-29.25-10.6-44.07l-1.8,4c15.22-8.32,32.33-13.86,49.46-18.5s34.75-8.22,52.38-11.39c35.23-6.43,70.86-11.26,106.61-15.22"/><path class="cls-18" d="M3502.63,1924.4c-15.28.5-30.25,4.58-45.06,8.32a410.69,410.69,0,0,0-43.54,14.77c-28.68,11.06-55.73,26-81.55,42.64l-1.08.69-.39,1.24c-5.5,17.37-9.93,35.14-12,53.26a267.94,267.94,0,0,0-1.68,54.52c2.81,36.22,12.31,72.19,30.28,103.55-7.86-16.22-13.1-33.5-17-50.95a268.52,268.52,0,0,1-7-53c-.58-17.77-.29-35.63,2.55-53.21,2.16-17.67,7-34.82,11.94-51.89l-1.47,1.93c25.06-17,51.9-31.24,79.55-43.72,13.82-6.27,28-11.64,42.42-16.6,14.35-4.79,28.91-10,44-11.59"/><path class="cls-18" d="M3276.61,1969.19a210.58,210.58,0,0,0-43.54,27.13,169.54,169.54,0,0,0-34.77,37.32,113.35,113.35,0,0,0-17.86,47.37c-3,16.9.69,33.87,4.71,50.06-3.41-16.38-6.38-33.3-2.8-49.77a110.41,110.41,0,0,1,19.13-45.49,164.81,164.81,0,0,1,35.12-34.94,205.44,205.44,0,0,1,42.9-24.57Z"/><path class="cls-17" d="M2974.81,2556.74c-36.36-22-73.13-43.57-111.57-62.09-19.19-9.29-38.62-18.16-58.77-25.66-20.24-7.71-41.31-12.36-62.3-16.49a498.66,498.66,0,0,0-63.91-7.67c-21.38-1.31-42.55-1.73-63.32-4.25a384.79,384.79,0,0,1-61.46-12.54c-20.79-6.15-42.35-9.39-63.61-11.66-85.33-8.06-171.25-4-255.5,9.83-42,7.16-83.86,16.61-124.12,30.88s-79.24,32.7-113,58.66c34.72-24.68,74.2-41.43,114.5-54.19a818.32,818.32,0,0,1,123.86-27.62c41.91-6.11,84.19-9.36,126.5-10.82s84.7-.49,126.63,4c21,2.41,41.63,5.64,61.61,11.73a345.18,345.18,0,0,0,63.36,12.81c21.48,2.4,42.9,2.63,63.95,3.75a487.37,487.37,0,0,1,62.71,6.94c20.72,3.92,41.34,8.39,61.17,15s39.51,14.81,58.86,23.41c38.57,17.52,77,35.82,114.43,55.95"/><path class="cls-17" d="M2666.19,2365.56a492.72,492.72,0,0,1,43.83,22.61,471,471,0,0,1,41.57,26.2c26.34,19,52,40.65,67.11,69.12l1.13-4.33c-14,9.1-28,18.09-42.49,26.38S2748,2521.4,2733,2528.49A309.86,309.86,0,0,1,2686.3,2546c-15.9,4.38-32.66,8.2-49.28,5.45,16.46,3.86,33.7,1.12,50.09-2.28a307.91,307.91,0,0,0,47.95-16c15.6-6.43,30.54-14.25,45.28-22.36s29-17.06,43.18-26.1l2.57-1.66-1.44-2.69c-8.09-14.93-19-28-31.06-39.41a269.69,269.69,0,0,0-39.11-30.84,441.24,441.24,0,0,0-88.29-44.59"/><path class="cls-17" d="M2546,2359.28c24.2,11.33,46.69,25.76,68.13,41.39,21.2,16,41.54,33.12,60,52.17l.45-5c-13.34,9-26.81,17.76-40.92,25.47A409.45,409.45,0,0,1,2590,2493.7c-29.87,11.7-61.44,20.29-93.89,21.24,32.55,2,65.09-5.44,95.78-16.23,30.72-11.16,59.7-26.83,86.48-45.48l3.23-2.25-2.78-2.74c-19.13-18.87-39.56-36.52-61.81-51.57s-45.75-28.42-71-37.39"/><path class="cls-17" d="M2313.07,2330.85a696.61,696.61,0,0,1,80.41,38.4c25.56,14.82,50.64,31.17,70.5,52.68l.7-5q-37.57,23.07-76.45,44.08c-25.79,14.2-51.94,27.79-78.25,41.18,27.52-10.75,54.31-23.25,80.73-36.46q39.52-20.07,77.42-43.21l3.48-2.12-2.77-2.89c-21.1-22-46.48-38.73-73-52.59a494.52,494.52,0,0,0-82.8-34.05"/><path class="cls-17" d="M2140.79,2381.85a660.09,660.09,0,0,1,74.92,12.72,295.07,295.07,0,0,1,36,11c11.49,4.56,23,10.26,30.78,19.09l-.09-4.09c-8.47,9.68-19.43,17.89-30.44,25.6s-22.67,14.82-34.34,21.73c-23.26,14.06-47.12,27.18-71,40.35a772.13,772.13,0,0,0,73.82-35.52q17.88-10,35.1-21.35c11.39-7.68,22.71-15.7,31.93-26.83l1.72-2.1-1.81-2c-9.35-10.23-21.57-15.75-33.54-20.38s-24.58-7.64-37.12-10.12a444,444,0,0,0-75.92-8.11"/><path class="cls-16" d="M4320.87,1128.28s80,708.1-119.16,1137.81c52.58,19.82,84.29,12.6,84.29,12.6s207.24-850.86,34.87-1150.41"/><path class="cls-16" d="M4603.65,1530.16s-243.62,483.9-278,738.93c-48.46,89.84-88.05-13.16-88.05-13.16s127.52-505.15,366-725.77"/><path class="cls-17" d="M4575.19,1720.05s-165.87,408.55-181,618.64c-33.28,76-68.3-5.85-68.3-5.85s75.61-419.45,249.26-612.79"/><path class="cls-16" d="M4522.55,2273.28s211.13-183.94,342.33-203.15c35.26-27.74,4.55-30.39,4.55-30.39s-299,100.91-395.05,236c9.51,40.25,48.17-2.51,48.17-2.51"/><path class="cls-17" d="M4573.15,2036.64s-119.5,93.58-160.65,299.5c-46.78,3-49.14-29.57-49.14-29.57s144.52-332.11,290.92-323.06c-50.31,24.3-81.13,53.13-81.13,53.13"/><path class="cls-16" d="M4270.74,2176.74s15.84-208.84-138.38-382.14c-76-85.45-48.07-137.82-116.71-168S3852,1520.21,3828,1487.84s-432.48-194.42-546.76-171.65c116.9,48.46,207.77,240.46,267.84,253.87s127.79,95,205.43,168.6,150.9,46.37,203.05,82.95,241.62,177.92,313.15,355.13"/><path class="cls-18" d="M4188.08,1995.39c-21.27-38-44.37-74.92-68.12-111.23-12-18-24.56-35.79-38.29-52.34-13.73-16.29-29.3-31.53-45.22-46a523.63,523.63,0,0,0-50.88-39.92c-17.75-12.44-36.12-24.64-53-39-17-14-32.23-30.81-46.38-46.81-14.58-15.3-31.5-28.89-48.79-41.8-70-51.08-145.81-94.38-220.74-138.61l-226.25-130.87c76.7,41.35,154,81.64,230.09,124.16s152.14,85.39,223.33,136.66c17.64,13,35,26.65,50.54,42.79,14.86,16.45,29.11,31.87,45.52,45.9,16.15,14.07,34,26.19,51.83,38.89a533.75,533.75,0,0,1,51.5,41.14c16.07,15,31.89,30.19,45.46,47.83,13.52,17.43,25.52,35.73,37.05,54.29,23.15,37.06,43,75.94,62.32,115"/><path class="cls-19" d="M4030.72,1668.54a440.81,440.81,0,0,1,50.45,85,268.88,268.88,0,0,1,16.38,47c4,16.15,6.19,33,5,49.91l-.22,3h-3.07c-16.83,0-33.64-.2-50.45-1.16s-33.63-2.51-50.23-5.44a309.36,309.36,0,0,1-49-12.25c-15.66-6-31.65-12.89-43.46-25,12.53,11.24,28.71,17,44.49,21.84a310.24,310.24,0,0,0,48.79,10.28c16.51,2.09,33.1,3.7,49.77,4.46s33.33.72,50,.55l-3.27,3c2.62-32.07-7.37-64.2-19.41-94.31a460.55,460.55,0,0,0-20.95-44.4c-7.59-14.56-15.76-28.84-24.78-42.6"/><path class="cls-18" d="M3932.76,1598.74c16.46,21.13,29,45.07,39.75,69.64s18.39,50.5,24.37,76.68l.86,3.79-3.93.16c-32.61,1.37-65.48-1-97.4-8-31.7-7.37-63.15-18.56-89.5-37.74,27.87,16.64,59.11,26.33,90.6,32.5a415.18,415.18,0,0,0,47.79,6.27c16.06,1,32.14.87,48.22.47l-3.07,4c-5.31-26-13.22-51.34-22.51-76.2-9.68-24.7-20.88-48.94-35.18-71.49"/><path class="cls-18" d="M3751.62,1449.73a491.73,491.73,0,0,1,51.48,73.15c14.91,25.92,27.28,53.67,33.26,83.52l.78,3.92-4.08-.06q-44.39-.77-88.54-5.13c-29.39-3-58.71-6.87-87.7-12.59,29.39,2.81,58.76,5.4,88.15,7.28q44,3.18,88.19,3.85l-3.29,3.86c-5.18-28.8-17.52-56-31.11-82.25a691.09,691.09,0,0,0-47.14-75.55"/><path class="cls-18" d="M3578.9,1400.27a444.67,444.67,0,0,1,59.65,47.59,224.08,224.08,0,0,1,25.85,28.46c7.61,10.33,14.93,21.54,17.32,35.19l.46,2.65-2.59.84c-13.76,4.45-27.63,5.12-41.37,5.49s-27.44-.08-41.09-.83a779.57,779.57,0,0,1-81.34-9.66c27.22,1.71,54.42,3.45,81.58,4.09,13.58.41,27.15.58,40.66.1s27.09-1.64,39.44-5.26l-2.11,3.49c-1.79-11.6-8.46-22.6-15.69-32.62a295,295,0,0,0-24.45-28.6,664.64,664.64,0,0,0-56.32-50.93"/><path class="cls-20" d="M4364.36,1193.09s-31.53-292.56-215.87-364.4-234-154.55-349.62-211.67-247,20.64-247,20.64,144.95,23.89,269.74,145.49S4180,1129,4364.36,1193.09"/><path class="cls-16" d="M4364.36,1193.09S4302,996.55,4117.63,924.71s-212.28-185.24-327.88-242.38-237.85-44.67-237.85-44.67,144.95,23.89,269.74,145.49S4180,1129,4364.36,1193.09"/><path class="cls-20" d="M4430.89,2026.69s80.08-382.31,255.93-433.13,187.66-206.66,376.53-263,348.5-170.85,569.27-113.64c-210.65,36.58-280.08,121.76-380.77,221s-207.06,137.46-249.65,175.67-174.87,167.57-246.58,180.31-271.6,143.53-324.73,232.83"/><path class="cls-16" d="M4430.89,2026.69s121.63-322.24,297.47-373,176.65-205.5,365.51-261.83,318-232.09,538.75-174.88c-210.65,36.58-280.08,121.76-380.77,221s-207.06,137.46-249.65,175.67-174.87,167.57-246.58,180.31-271.6,143.53-324.73,232.83"/><path class="cls-20" d="M4189,2008.06s-128.29-231.32-319.13-237.54-168.62,119.1-343.42,42.75-487.67,58.44-534.46,193.14c179.31-101.61,295.31-106.4,533-35.45s524.81-10.45,664,37.1"/><path class="cls-16" d="M4189,2008.06s-134.92-136.6-325.74-142.82-165.5,76.73-340.29.39-484.19,6.08-531,140.79C3171.28,1904.8,3287.28,1900,3525,1971s524.81-10.45,664,37.1"/><path class="cls-17" d="M4201.71,2266.09s69.53-191.52-122.84-334.83c93.74,10.13,183.58,142,189.27,315.64.33,79.65-66.43,19.19-66.43,19.19"/><path class="cls-20" d="M4259.08,1540.46s-119.54-208.28-21.61-477.06,114-257.5,206.56-372.08,168-262.72,321.71-253,145.7-84.5,282.77,6.85c-77.43-16-240.09,33.84-256.65,144.29S4731.09,773,4681.5,815.38s-50.37,158.53-107.59,229.68-164.68,277.61-223,333.67-64.75,187.93-63,198.16-28.9-36.43-28.9-36.43"/><path class="cls-20" d="M4225,1619.74s-50.83-370.94-246.66-484.36-214-80.7-360.22-111.41-334.38,12-426.52,64.66c226.6-32.54,436.63,104.6,567.37,208.55s466,322.56,466,322.56"/><path class="cls-16" d="M4225,1619.74s-120.85-258.74-316.7-372.15-167.87-177.39-314-208.1-310.53-3.5-402.67,49.14c226.6-32.54,436.63,104.6,567.37,208.55s466,322.56,466,322.56"/><path class="cls-16" d="M4276.11,1586.65a66.11,66.11,0,0,1-7-11.92c-1.83-3.67-3.06-7.28-4.58-10.92a171.83,171.83,0,0,1-6-21.8c-3.24-14.55-4.52-29-5.21-43.44a447.92,447.92,0,0,1,5.78-84.92c8.58-55.7,24.63-109.31,43.39-161.54,19.11-52,39.06-104,67.8-152.47,14.2-24.14,30.61-46.77,45.68-69.35a414.57,414.57,0,0,0,38.64-71.13,1158.49,1158.49,0,0,1,68.76-150.63c26.35-48.56,55.43-95.67,88-140.28S4680,581.4,4721.2,544.52c41.1-36.59,88.26-68.09,141.37-83.63-52.75,16.73-98.84,49.12-138.87,86.36-40.09,37.55-74.87,80.37-106.27,125.3S4558.25,765,4533.2,813.71a1117.39,1117.39,0,0,0-64.71,151.09,430.86,430.86,0,0,1-37.94,74.85c-14.8,23.63-30.13,46.08-43.15,69.79-26.1,47.19-44.6,98.92-62.45,150.45-17.33,51.6-31.83,104.31-38.89,157.63a422,422,0,0,0-3.78,79.58c.89,13,2.34,26,5.37,38.3a142.55,142.55,0,0,0,5.29,17.84c1.21,2.67,2.26,5.57,3.55,8a52,52,0,0,0,3.38,5.86Z"/><path class="cls-16" d="M4292.2,968.44q7.26,64.5,16.1,128.73c3.25,21.34,6.17,42.73,10.09,63.93,4.08,21,8.19,42.56,16.12,61.76l-5.33-1.76c30.88-16.63,61.44-33.78,92.08-50.87l45.79-25.86c15.3-8.57,30.56-17.22,45.46-26.51-28.42,20.65-58.21,39.36-88.29,57.49s-60.7,35.3-91.35,52.47l-3.79,2.1-1.54-3.88c-8.39-21-12.07-42.34-16-63.73-3.59-21.4-6.68-42.86-9-64.42-4.88-43-8.22-86.22-10.26-129.45"/><path class="cls-16" d="M4386.17,835.3c-1.89,38.24-1.78,76.53-.52,114.68,1.65,38.13,4.39,76.23,11.11,113.69l-4.88-2.9c41.11-14,81.76-29.64,121.15-48,19.77-9,39.27-18.65,58.06-29.53,18.62-10.91,37.87-22,51.79-38.9-12.91,17.78-31.63,30.27-49.74,42.27-18.57,11.61-37.88,22-57.44,31.75s-39.69,18.41-59.95,26.67-40.67,16.1-61.5,22.85l-4.2,1.36-.68-4.27A730.91,730.91,0,0,1,4380,950.1a920.48,920.48,0,0,1,6.13-114.8"/><path class="cls-16" d="M4492.63,710.85a843.56,843.56,0,0,0-12,98.42c-1.57,32.87-1.72,66.07,5.11,98l-5.07-2.7c16.84-7.25,33.64-14.71,49.74-23.64s31.89-18.41,47.27-28.57,30.6-20.66,45.32-31.82c14.85-11,29.48-22.36,43.46-34.51a639.18,639.18,0,0,1-85.33,71.41c-15.12,10.84-31.12,20.42-47.28,29.7a435.46,435.46,0,0,1-50.38,24.4l-4.24,1.71-.85-4.41c-6.38-33.15-6.52-66.86-3.38-100a595.58,595.58,0,0,1,17.62-98"/><path class="cls-16" d="M4511.05,1500.38s167.16-125.06,192.87-21.5-177.46,303.75-462.63,308.46-251,162.15-251,162.15-119.93-116.74,47.8-351,400-216.06,473-98.09"/><path class="cls-18" d="M4513.11,1508.45c-3.48-1.3-10.89-2.08-16.9-1.55a113.43,113.43,0,0,0-19.25,2.89,217.88,217.88,0,0,0-37.79,13.58c-24.66,11.33-47.86,26.25-70.08,42.41-11.33,7.81-21.79,16.71-32.88,25.07a304.54,304.54,0,0,1-34.92,23.92c-24.38,14.22-50.48,24.93-76.91,33.8-52.56,18-108,28.93-154,60.07a196.4,196.4,0,0,0-57,59c-14.79,23.36-25.52,49.18-33.44,75.73,7.29-26.73,17.44-52.85,31.79-76.75a199.73,199.73,0,0,1,56.45-61.13c46.14-32.79,102.13-45.18,153.64-64.18,25.95-9.39,51.23-20.47,74.51-34.79,23.33-14,43.29-33.06,65.88-50,22.25-17,45.61-32.79,71.18-45.26a229.38,229.38,0,0,1,40.12-15.41,125.75,125.75,0,0,1,21.79-3.76c7.77-.44,14.58-.87,24.26,2.46Z"/><path class="cls-18" d="M4011.64,1666.4c11.19-4.06,23-6,34.8-7.62a317.76,317.76,0,0,1,35.7-1.91c23.88.1,47.64,3.1,71.09,7.4l5.27,1-2.7,4.66c-12.43,21.35-24.15,43.08-35.59,65s-22.5,44-32.89,66.51c7.34-23.72,17.13-46.61,27.48-69.17,10.57-22.48,22.17-44.46,34.38-66.11l2.56,5.64c-11.51-2.3-23.06-4.37-34.71-5.84s-23.33-2.47-35.06-3.24c-23.41-1.12-47.1-.89-70.33,3.74"/><path class="cls-18" d="M4106.8,1556.84a877,877,0,0,1,107.63,9.08,529.85,529.85,0,0,1,53.18,10.62c17.49,4.61,35.18,9.56,51.36,18.94l2.38,1.38-.58,2.6c-3.29,15-7,29.84-11.37,44.51-4.59,14.63-9.52,29.18-16,43.11-6.29,14-13.15,27.73-21.59,40.56-8.57,12.66-17.93,25-29.63,34.86,10.9-10.67,19.2-23.56,26.68-36.66a318,318,0,0,0,19.4-40.91c5.63-14,10.15-28.46,14.56-42.88,4.17-14.53,7.58-29.25,10.61-44.07l1.8,4c-15.23-8.32-32.33-13.86-49.46-18.5s-34.75-8.23-52.38-11.39c-35.23-6.43-70.86-11.26-106.61-15.22"/><path class="cls-18" d="M4267.37,1448.82c15.28.5,30.25,4.58,45.06,8.32a410.69,410.69,0,0,1,43.54,14.77c28.67,11.06,55.72,26,81.55,42.63l1.08.69.39,1.24c5.5,17.38,9.93,35.15,12,53.27a267.21,267.21,0,0,1,1.69,54.52c-2.81,36.22-12.31,72.19-30.28,103.55,7.86-16.22,13.09-33.51,17-51a268.32,268.32,0,0,0,7-52.95c.58-17.78.29-35.64-2.55-53.21-2.16-17.67-7.05-34.82-12-51.89l1.47,1.93c-25.05-17-51.9-31.25-79.55-43.72-13.82-6.28-28-11.65-42.41-16.61-14.35-4.78-28.91-10-44-11.58"/><path class="cls-18" d="M4493.39,1493.6a211.05,211.05,0,0,1,43.54,27.14,169.25,169.25,0,0,1,34.76,37.32,113.18,113.18,0,0,1,17.87,47.37c3,16.89-.69,33.86-4.71,50.06,3.41-16.38,6.38-33.3,2.8-49.77a110.64,110.64,0,0,0-19.13-45.5,165,165,0,0,0-35.12-34.93,205.7,205.7,0,0,0-42.9-24.57Z"/><path class="cls-20" d="M4463.86,2126.83s52.22-111.76,154.38-38.91,83.9,342.44-134,509.13c6.26-100.9-1.45-153-71.74-260.91s-29.34-203.65,51.34-209.31"/><path class="cls-16" d="M4466.63,2120.74a165,165,0,0,1,52.91,35.29c15,15.09,26.69,33.89,32.09,54.66s4.73,42.61-.11,63.06a207.19,207.19,0,0,0-6.39,60.41c1.24,40.69,14.48,81.33,9.91,123.15-2.09,20.76-9.36,40.74-19.91,58.53-10.74,17.73-24.2,33.59-38.94,48,14.42-14.74,27.46-30.88,37.69-48.71,10.05-17.89,16.72-37.69,18.3-58.09,3.59-41.05-10.48-81-12.79-122.58a213.09,213.09,0,0,1,5.14-62.28c4.31-19.65,4.59-40.19-.8-59.34-10.68-38.64-44.26-67.84-80.6-82.49Z"/><path class="cls-16" d="M4594.68,2481.39c-4-14.21-10.84-27.27-18.51-39.66a262.89,262.89,0,0,0-26.48-34.79l3.94-.31c-19.09,29.36-39.59,58-64,83.29q31.32-42.15,59.79-86l1.82-2.78,2.12,2.48c9.71,11.24,18.8,23.14,26,36.19s13.22,26.86,15.33,41.54"/><path class="cls-16" d="M4633,2389.22c-13-18.13-26.66-35.79-41.1-52.67-7.3-8.38-14.65-16.69-22.66-24.3s-16.39-14.92-25.91-19.84l2.82-.34c-8,7-15.92,14.21-23.51,21.74s-14.78,15.41-21.66,23.54a240.4,240.4,0,0,0-19.24,25.55c-5.87,8.88-11.36,18.18-14.77,28.37,2.62-10.45,7.44-20.24,12.67-29.66A236.36,236.36,0,0,1,4498,2334.9c13.34-17,28.73-32.32,44.85-46.65l1.29-1.16,1.54.81c10.37,5.43,18.79,13.16,26.86,21A269.5,269.5,0,0,1,4595,2334a481.68,481.68,0,0,1,38,55.2"/><path class="cls-16" d="M4640.49,2270.86c-5.55-7.74-13.09-13.85-20.33-20a285.09,285.09,0,0,0-22.87-17.05,301.15,301.15,0,0,0-50.05-26.91l1.56.11c-24.26,7-47.82,17-68.83,31.15a222.37,222.37,0,0,0-30.1,23.18c-9.41,8.5-18.44,17.59-26,27.87,13.79-21.58,32.68-39.78,53.71-54.63a224.06,224.06,0,0,1,33.6-19.1c11.63-5.68,24-9.66,36.41-13.14l.79-.24.76.34a255.64,255.64,0,0,1,50.2,28.51,219.28,219.28,0,0,1,22.26,18.3c6.82,6.7,13.94,13.39,18.92,21.57"/><path class="cls-16" d="M4652.11,2162.32c-17.24-20.92-43.38-32.67-69.53-36.5-26.45-4.11-53.52.18-78.86,8.2a132,132,0,0,0-35.94,16.79,136.62,136.62,0,0,0-30.39,25.51c-17.78,19.63-30.91,44-36.41,70.37,3.12-26.84,15.19-52.67,33.07-73.32a142.15,142.15,0,0,1,31-26.79c11.35-7.84,24.23-13,37.25-17,25.93-8.1,53.81-12.11,80.82-7,26.79,4.41,52.79,18.07,69,39.75"/><path class="cls-21" d="M2307,1789.47c-3.05-5.16-15.84,2.82-19.88,4.17-11.15,3.71-28.36,5.4-37.06,14.63-6.35,6.75,3,32.57,11.42,36.09,51.58,21.49,127,32.17,183.35,32.17,10.83,0,55.18-9.31,57.88,7.18.89,5.62.13,10-6.84,9.68-9.94-.51-17.62-9.9-28.66-8.77-21.44,2.24-42,12.24-63.58,15-4.39.56-40.4,2.45-31.22,16.4,9,13.61,27.9,12.89,42,14.12,38.43,3.39,83.46,8.42,121.81,2.21,10.26-1.67,41.53-4.25,42.31-5.76,13.87-27-6.73-66.43-28.41-82.08-25.18-18.15-54.22-30.07-81.28-45-39-21.52-79.75-48.49-126.1-43.89"/><path class="cls-9" d="M2095.34,1786.22a1.21,1.21,0,0,1-.24-1.37,1.18,1.18,0,0,1,1.19-.7c10.39,1,40.5,3.9,40.5,3.9l90.68,24.07,179.5,51.37s23.43,27.62,7.65,58.49-44,19.9-44,19.9L2207.7,1862.6,2126,1815.53Z"/><path class="cls-9" d="M2098.52,1789.26a2.73,2.73,0,0,1,2.18-4.68l36.09,3.47,90.68,24.07,179.5,51.37s23.43,27.62,7.65,58.49-44,19.9-44,19.9L2207.7,1862.6,2126,1815.53S2108,1798.35,2098.52,1789.26Z"/><path class="cls-22" d="M2098,1788.45c.64.62,1.32,1.26,2,1.88,18.64,16.51,48.16,21.92,70.35,32.22s45.57,17.27,68.86,24.91c27.28,9,53.11,22,79,34.23,14.71,6.91,30.09,13,43.69,22,14.78,9.73,24.85,23,34.68,37.06-13.17,6.16-26,1.18-26,1.18L2207.7,1862.6,2126,1815.53s-18-17.18-27.45-26.27A2.51,2.51,0,0,1,2098,1788.45Z"/><ellipse class="cls-23" cx="2387.45" cy="1902.01" rx="33.88" ry="43.74"/><path class="cls-24" d="M2390.19,1945.6a24.66,24.66,0,0,1-2.72.16c-18.72,0-33.88-19.61-33.88-43.76s15.16-43.73,33.88-43.73a27,27,0,0,1,3.37.19c-17.43,1.8-31.16,20.65-31.16,43.62C2359.68,1924.75,2373.06,1943.42,2390.19,1945.6Z"/><path class="cls-25" d="M2786.22,2032.44c-19.55-21.14-31.24-52-43.6-77.43-16.3-33.49-36.12-65.65-54.08-98.3-15.54-28.27-25.94-60.14-48.24-84.43-12.52-13.6-37.22-7.12-53.08-9.87-8.62-1.5-16.59-5.46-25-7.79s-15.86-7.51-24.27-10c-28.62-8.53-58.38-14.68-87.28-22.86-15.57-4.44-33.93-15.47-50.58-13.55-31.8,3.6-61.13,24.76-90.38,36-8,3.1-18,2.29-26.37,4.49-23.88,6.35-52.35,11.6-77,13.53-7.56.59-28.25-.83-33.47,5.68-17.83,22.32,21.78,45,37.22,48.27,44.27,9.47,91.13-1.23,135,8.93,22.46,5.22,42.58,19.82,58.36,35.88,18.26,18.53,31.86,37.6,41.63,62,2.56,6.4,7.89,22.37,1.46,28.1-10.64,9.49-32.7,9.23-45.73,10.6-15.65,1.64-33.8,5.27-49.21.35-11.58-3.69-18.66-13.64-27.52-21.28-22.65-19.47-37.33-48.14-61.65-65.94-10.31-7.56-59.81-20.6-57.49,5.57,3.93,44.1,39.64,81.38,62.91,116.07,32.26,48.09,74.68,83,119.3,119,52.82,42.66,107.35,84.13,167.17,116.72,36.57,19.93,72.71,41.64,114.32,48.2,17.7,2.8,37.25,4.57,49.72-11.21"/><path class="cls-26" d="M2773.32,2015.66a133,133,0,0,0,9.16,12.5c-3,15.52-5.88,31-8.41,46.66l-55.69,194.35c-12.47,15.78-32,14-49.72,11.21-41.61-6.56-77.75-28.27-114.32-48.2-59.82-32.59-114.35-74.06-167.17-116.72-17.74-14.33-35.11-28.48-51.65-43.33,25.53,8.29,52.84,12.89,78.05,20.39,27.33,8.15,50.57,25.44,73.66,41.5,30,20.87,60.27,38.92,92.16,56.48,15.78,8.69,34.25,22.94,53.53,19.6,1.65-.29,14.31-36.55,19.77-46.71,22.89-42.55,55.16-85.77,90-119.25C2752.64,2034.59,2762.41,2024.18,2773.32,2015.66Z"/><path class="cls-26" d="M2174.87,1794.85c1.08.54,2.16,1.05,3.18,1.56,35.87,17.7,84.35,9.6,122.38,5.19,5.79-.67,19.5-1.91,24.53-5.35,3.83-2.61-1.69-13.34,5.07-13.45,11.66-.19,7.73,23.1,16,28,27.2,16,67.57,27.06,88.71,52,13,15.38,21.76,35.79,32.59,52.63,8,12.45,15.48,26.71,25.69,37.6,1.48,1.56,9.21,10.27,8.16,12.56-4.93,10.76-25.85-4.14-33.05-3.42-14.94,1.51-36.27,15.63-53.89,18.91-19.95,3.68-40.2,15.49-60.86,11.54-31.75-6.08-43-34.64-65.61-52.8-26-20.87-54.48-36.47-82.16-53.71-.3-1.88-.52-3.79-.7-5.72-2.32-26.17,47.18-13.13,57.49-5.57,24.32,17.8,39,46.47,61.65,65.94,8.86,7.64,15.94,17.59,27.52,21.28,15.41,4.92,33.56,1.29,49.21-.35,13-1.37,35.09-1.11,45.73-10.6,6.43-5.73,1.1-21.7-1.46-28.1-9.77-24.37-23.37-43.44-41.63-62-15.78-16.06-35.9-30.66-58.36-35.88-43.85-10.16-90.71.54-135-8.93C2201.21,1814.29,2184.19,1805.9,2174.87,1794.85Z"/><path class="cls-27" d="M3222.35,2177.94c-69.78-15.09-134.5-42.63-202.72-62.4-33.9-9.81-69.45-17-102.09-30.79-36.17-15.39-69.08-39.62-104.34-57.21-9.18-4.57-27.2-17.69-37.83-17.18-3.32.16-54.7,61.67-59.15,67.18-57.28,71.06-113.78,188.56-78.82,282.34,9.77,26.28,21.54,60.08,41.42,80.71,36.6,38,120.7,57.13,167.94,78.72,29.09,13.32,35.34,32.55,44.92,37.36,47,23.45,98.84,38.24,147.67,57.72,35.58,14.2,70.83,29.9,107.72,40.23,6.95,1.94,28,12.64,35.58,7,16.56-12.37,27.17-53.9,35.58-71.92,36.27-77.83,59.25-167.79,59.46-253.94"/><path class="cls-28" d="M2629.32,2329.84a166.08,166.08,0,0,0,8.08,30c9.77,26.28,21.54,60.08,41.42,80.71,36.6,38,120.7,57.13,167.94,78.72,29.09,13.32,35.34,32.55,44.92,37.36,47,23.45,98.84,38.24,147.67,57.72,35.58,14.2,70.83,29.9,107.72,40.23,6.95,1.94,28,12.64,35.58,7,16.56-12.37,27.17-53.9,35.58-71.92,28.87-61.93,49.31-131.57,56.55-200.82-133.33,13.48-282.18,41.85-386.54,10.95-59.17-17.51-64.26-74.1-89.66-123.75a466.68,466.68,0,0,1-20-45.37c-2.94-7.64-7.35-28.75-11.42-21.67-13.68,23.88-1.59,113.3,1.1,141.68.7,7.23,8.27,46.74-3.09,49.27-1.76.37-109-27.08-114.28-30.9-10.58-7.67-12.36-19.69-17.77-30.85C2632.41,2336.75,2631.07,2333.77,2629.32,2329.84Z"/><path class="cls-28" d="M2819.24,2223.09c-3.56-21.62,6.16-44.18,14.54-63.84,1.19-2.77,15-30.58,15.62-27.6,9,42.63-10.48,89.24-17.29,130.79-2.05,12.51-5,38.65-5.41,38.68-2.64.16-4.66-14-4.8-14.37a233.6,233.6,0,0,1-9.15-48.78"/><path class="cls-27" d="M3147.16,2369.86c-27.37-82.06,60.32-534.94,87.47-649.94,43.2-182.94,199.48-312.25,345.29-423.7,106.08-81.09,448.62-317.17,577.41-324,5.66-.29-5.82,11.86-1.62,16.38,26.75,28.78,71.29,44.54,100.43,73.85,25.53,25.64,39.35,65,57.88,95.8,204.06,339.17,317.52,746.79,317.55,1143.6,0,24.17,3.39,478.88-76.78,467.64"/><path class="cls-28" d="M3628.07,1260.61c137.76-99.29,416.07-282.39,529.26-288.42,5.66-.29-5.82,11.86-1.62,16.38,26.75,28.78,71.29,44.54,100.43,73.85,21.68,21.76,34.91,53.39,49.72,81.31,6.76,21.41,9.88,37.11,7.11,42.46-.27.54-54.54-41.79-67.09-46.47-49.53-18.37-127.3-20.14-174.76,4-204.06,103.71-336.88,273.57-475.72,448.39-83.43,105.05-188.87,189.45-267.37,299-30.49,42.57-63.1,83.83-89.63,129-2.48,4.17-19.55,42.79-25.42,41-4.69-1.42,5.27-58.87,16.64-115.62,7.11-35.61,8.48-160,54.54-174.79l61.4-155c43.49-70.31,97.38-131.89,151.25-194.1,38.83-44.86,73.63-93.14,112-138.46Q3618.45,1271.83,3628.07,1260.61Z"/><path class="cls-27" d="M2475,77.38C2425,135,2387.23,294.9,2455.5,349.93c63.1,50.86,127.33,4.41,190,14.93,17.67,2.95,103.07,70.14,119.87,82.46,40.78,29.88,72.74,66.29,110.18,99.59,67,59.57,135.17,114.3,198.75,178.09,52.71,52.88,91.08,126,152.76,168.42,120,82.57,293,84.85,427.4,36.6,50.5-18.12,112.9-41.2,156.23-74.07C4006,707.79,3911.23,601.53,3926.37,390.27c8.91-124.52,76.78-280.21-61.19-376.18-97.6-67.88-236-71.21-349.33-85.82-97.6-12.61-194.47-15.86-292.75-17.85-275.61-5.57-470.81-55.33-704.23,109.4"/><path class="cls-29" d="M2441,137.27c16.26-1.15,31.35-3,43.3-4.35,175-19.75,345.1-65.82,519.08-88,114.11-14.55,256.9-19.74,368.18,13.64,55.72,16.67,106.49,39.16,160,61.08,4.15,1.69,14.33,4,17-1,3.45-6.43,15.89,48.3-2,43.33-58.44-16.2-135.65-71.87-200.07-35.72-54.38,30.47-68.43,316.44,3.88,366.68,82.76,57.5,261.53,137.68,360.58,95.26,35.77-15.33,80-97.11,95.5-130.3,8.81-18.86,24.24-31.68,34.91-49.06,3.09-5.08,4.55-19.52,8.91-15.49,13,12.1-6.92,56.59,4.77,76.52,1.56,2.69,13.46,26,20.06,18.71,24.48-27,57.88-228.28,75.57-291-1.86,64.66-20,132.35-24.34,192.73C3911.23,601.53,4006,707.79,3810.72,856,3767.39,888.82,3705,911.9,3654.49,930c-134.36,48.25-307.42,46-427.4-36.6C3165.41,851,3127,777.88,3074.33,725c-63.58-63.79-131.72-118.52-198.75-178.09-14.09-12.54,19.66,115.16,6.35,102.25-22-21.38-91.11-183.21-116.53-201.84-10.64-7.8-66.71,2-98.84-19.29-18.58-12.29-24.94-61.64-31.4-62.72-62.7-10.51-116.56,35.48-179.66-15.38C2404.46,308.78,2412.68,209.08,2441,137.27Z"/><path class="cls-25" d="M2635.13,363.86c-3.28,24.85-1.45,59.28.92,84.07,8.7,92,5.95,171,48.72,268.31,22.7,51.66,61.51,110.32,82.11,165,39.19,104.11,75.41,207.25,133.66,303.13,34.83,57.34,81.15,196.58,142,227.4,97.68,49.51,155.58-65.11,238.13-51.4,57.52,9.55,62.4,145.26,134,141.06,66.71-3.89,127-72.32,173-114.16,110.47-100.46,216.58-199.56,334.22-291.25,34.47-26.89,140-95.45,159.76-130.25,5.87-10.35-20-62.12-25.21-73.31-26.23-56.86-49-120.06-83.38-172.4-5.07-7.72-29.14-44.37-38.73-45.48-17.45-2-99.92,60.84-116.67,70.9-56.1,33.7-108.21,79-167.7,106.2-48.58,22.25-99.73,34.73-150,52-32.07,11-78.37,33.35-110.55,16.59-75.71-39.42-114-124.65-170.29-184.06-36.49-38.54-76.86-73.21-114.76-110.41-38.13-37.44-84.67-62.42-119-103.17-35.53-42.06-39-150.12-106.76-158.86-69.78-9-21.33,152.25-11.28,191.7,3.31,12.89,3.66,59.12-8.81,40.45-16-23.85-46.35-116.8-48-124-20.44-89.66-34-15.92-117.24-55.08"/><path class="cls-25" d="M2753,835.11c3.58,22.81,9.34,44.75,9.69,68.21.27,17.45,2,34.69,3.75,52,3.69,37-8,142.92,34.68,163.84,13.15,6.46,32.11,2.24,45.76.46,10.86-1.4,28-5.65,36.49-13"/><path class="cls-26" d="M2875.63,1090.53c-24.34,1.52-58.75,4.51-60.54,6.43-4.54,4.92,17.18,9.62,4.21,15-8.18,3.38-18.56.87-28.78-.73a36.29,36.29,0,0,0,10.57,8c13.14,6.45,32.11,2.23,45.76.47,10.86-1.43,28-5.67,36.5-13Z"/><path class="cls-26" d="M4021,811.9c12,27.08,23.35,54.52,35.39,80.58,5.17,11.19,31.08,63,25.21,73.31-19.77,34.8-125.29,103.36-159.76,130.25-117.64,91.69-223.75,190.79-334.22,291.25-46,41.84-106.3,110.27-173,114.16-71.61,4.2-76.49-131.51-134-141.06-82.55-13.71-140.45,100.91-238.13,51.4-24.35-12.35-46.38-42.09-66.28-77,44.6,49.48,92.19,72,178.23,37.38,17.32-7,37.09-8.29,53.06-18.69,14-9.15,30.78-20.28,40.18-34.54,22.25-33.67,51.33-187.91,67.36-238.39,11.77-37,33-92.57,42.09-89.72,7.25,2.28,4.61,28.8,4.17,34.1-2.74,34.91-4.92,71.06,2.38,105.64,5.95,28.08-4.42,266.77,18.25,287.72,27.47,25.39,186.88-169.16,227.74-184.2,47.29-17.4,79.12-74.42,111.06-110.13,72.69-81.28,148.18-158.47,230.21-230.68,18.94-16.67,40.32-34.4,55.86-54.17C4013.35,830.81,4014.57,820.18,4021,811.9Z"/><path class="cls-26" d="M2986.35,544.27c13.6,57.45,34.52,113.15,41.28,172.21,2,17.61,6.87,37.11,4.72,55-1.78,14.63-5.61,33.51-16.86,43.73-10.88,9.93-35.63,6.27-33.53,27.51,2.13,21.41,23.59,66.17,32.64,86.93,21.11,48.49,60,106.47,37,43.84-11.07-30.1-43.09-69.42-37.79-103.66,7.46-48.41,35.28-87.94,31-139.39-5.1-60.94-30.36-124.12-50.66-181.33"/><path class="cls-26" d="M2861.79,464.58c-3.18,2.83-.32,9.9-.08,13.34.86,13.31,6.33,23.4,12.82,34.94,17.39,30.93,39.13,59,53.56,91.57,5.71,12.89,6.12,27.41,10.32,40.67,1.29,4.17,2.23,8.44,3.39,12.67,2.4,8.74,15.87,40.42.22,46.2-11.72,4.33-23.43-3.17-26.23-14.9-4.93-20.71-.62-41.58-3.72-62.07a57.53,57.53,0,0,0-1.72-6.75c-4.69-16.3-19.66,13-27.1-2.15-11.15-22.73,7.57-41.88,3.34-64.63-4.41-23.8-25.23-41.85-32.32-65-1.31-4.36-4.92-23.83,2.86-23.94"/><path class="cls-26" d="M2878.6,724.07c-11.31-1.71-41.21,19.73-27.83,33,12.83,12.71,35.83,3.88,51.82,22.05,9.37,10.62,16.83,21.56,28.71,29.68,1.35.92,13.07,9.44,13.22,9.36,3.56-1.94-3.09-21.32-5.75-25-10.16-13.95-26.37-22.47-36.37-35.94-7-9.5-10.14-21.45-17.92-30.33"/><path class="cls-13" d="M3158.92,1577.54s-17.85,44.48-1.91,79.53,36.47,204.32,36.47,204.32l35.2,58.95s126.9-206.44,326-408,494.81-428.56,570.6-458.93,121.38-5,121.38-5-85.8-171.75-96.74-191.5-230.24,49.84-439.71,186.68S3158.92,1577.54,3158.92,1577.54Z"/><path class="cls-30" d="M4188,931.26a69.35,69.35,0,0,1-14.63,24c-29,31.58-71.26,52.23-106.08,76.44-111.23,77.32-232.55,148.86-333.73,240-35.66,32.09-58.8,85-92.86,121.08-93.73,99.33-193.35,192.65-286.85,291.78-2.51,2.67-131.75,149.27-135.93,151-23.83,10-30.16-82.43-38.24-92.25-1.1-1.35-1.78,2.07-2.34,4.44,9.07,55.27,16.16,113.63,16.16,113.63l35.2,58.95s126.9-206.44,326-408,494.81-428.56,570.6-458.93,121.38-5,121.38-5S4215.23,985.34,4188,931.26Z"/><path class="cls-27" d="M3137.14,2167.48c23-111.67,275.78-437.61,491.2-572.4s564.43-285,657.83-171.16,160.11,229.28,222.51,373.7,93.34,690.23,97.25,732.05-79.58,177.88-79.58,177.88l-1453.71-6.05S3114.08,2279.14,3137.14,2167.48Z"/><path class="cls-28" d="M3496.75,1695.64c43.93-39,88.5-73.59,131.59-100.56,215.45-134.8,564.43-285,657.83-171.16s160.11,229.28,222.51,373.7,93.34,690.23,97.25,732.05-79.58,177.88-79.58,177.88l-730.2-3c48.37-175.65,99.81-350.81,145.94-527.24,15.14-58,152.76-534,134.55-581.55-31.08-81.22-191-39.78-247.85-26.06C3714.44,1597.23,3603.4,1641.76,3496.75,1695.64Z"/><path class="cls-28" d="M3963.73,1887c-35.37,97.76-79,189.51-107.29,290.08-16.5,58.63-31,117.88-46.09,176.81-8.44,32.93-18,66-28.61,98.31-11.84,36-23.11,74.63-23.12,112.53,0,13.74,35,.54,39.16-7,2.24-4.08,24.34-93.88,28.14-105.81,42.32-132.9,57-274.44,103.58-406.11,9.07-25.62,30.39-141.48,41.38-156.22"/><path class="cls-31" d="M3749.52,1628.43c-39.85-24.09-153.65,52.52-189.42,78.07-34.51,24.63-69.89,49.73-101.24,78.3-27.25,24.83-54.85,49-81.38,74.62-84.63,81.66-183.29,192.37-190.77,316.2-.95,15.81-12.75,91-1.5,102.62,15.68,16.16,55.94-35.85,64-44.35,65.32-69.13,143.86-129.47,218.83-187.57,121-93.8,269.53-166.12,380.55-269.72,37.45-34.95,86-75.84,46.93-124.36C3888,1642.89,3800,1628.2,3749.52,1628.43Z"/><path class="cls-32" d="M2771.68,2032.07c-14,18.31-31.23,33.7-45,52.43-12.43,16.88-22.8,36.19-33.5,54.19-3.8,6.4-25.87,34.77-17.68,44.16,7,8,55.6-31,64.13-36.16,31.47-19,40-13.53,73.24-14.87,7.44-.31,14.53,1.24,21.79-1.13,17-5.55,21.43-24.63,32.6-23.39,45.43,5.08,81,31.32,121.18,50.3,19.55,9.23,42.27,14.39,63.13,20,34.4,9.19,55.38,30.49,72.73-8,5.21-11.57-40.2-17.57-48.37-19.76-30.64-8.24-58.61-22.06-88.42-32.52-21.84-7.69-44.82-11-66.59-19.12-35.18-13.15-95.78-74.24-133.21-75.71"/><path class="cls-33" d="M2656.52,447.38c-11.05,47.87,3.59,108.31,17.27,154.25,9.54,32,11.51,67.08,23.36,98.23,11,29,34.4,57.47,57.23,78.19,8.37,7.58,16.57,15.32,25.38,22.36.75.59,8.5,8.39,8.52,8.32,3.52-11.94-15-58.94-18.86-74.43-13.23-53.41-23.39-104.52-30.13-159-2.57-20.72,3-56.77-8.59-74.24-8.2-12.34-53.47-78.31-71.44-73.1"/><path class="cls-34" d="M2764.2,899.39c1.78,27.41,4.06,54.73,5.67,82.14.85,14.6,1.62,29.21,3.9,43.67,1.37,8.63,3.48,17.2,4.89,25.8,3.14,18.92,28.13,46.26,39.08,15.67,4.27-11.93-35.65-163.54-49-169.66"/><path class="cls-35" d="M2875.1,385.64c-61.91,27.7,31,118.28,49.51,143.53,14.78,20.16,29.28,39.42,44.52,58.85,1.34,1.71,2.67,5.77,4.55,4.67,13.46-7.9-30-198.37-89.5-210"/><path class="cls-36" d="M2561.35,1778.28c-28.88-4.88-118.62-44.4-145.16-25.69-23.76,16.77,68.39,58.92,82.72,79.13,22.08,31.14,166.87,164.7,197.72,168.92,72.78,10-33.42-194.05-81.79-212.73"/></g></g></svg>